<?xml version="1.0" encoding="UTF-8" standalone="no"?>
<!-- Created with Inkscape (http://www.inkscape.org/) -->

<svg
   version="1.1"
   id="svg2"
   width="1000"
   height="700"
   viewBox="0 0 1000 700"
   sodipodi:docname="fig_iot.eps"
   xmlns:inkscape="http://www.inkscape.org/namespaces/inkscape"
   xmlns:sodipodi="http://sodipodi.sourceforge.net/DTD/sodipodi-0.dtd"
   xmlns="http://www.w3.org/2000/svg"
   xmlns:svg="http://www.w3.org/2000/svg">
  <defs
     id="defs6" />
  <sodipodi:namedview
     id="namedview4"
     pagecolor="#ffffff"
     bordercolor="#000000"
     borderopacity="0.25"
     inkscape:showpageshadow="2"
     inkscape:pageopacity="0.0"
     inkscape:pagecheckerboard="0"
     inkscape:deskcolor="#d1d1d1" />
  <g
     id="g8"
     inkscape:groupmode="layer"
     inkscape:label="ink_ext_XXXXXX"
     transform="matrix(1.3333333,0,0,-1.3333333,0,700)">
    <g
       id="g10"
       transform="scale(0.1)">
      <path
         d="M 0,0 H 7500 V 5250 H 0 Z"
         style="fill:#ffffff;fill-opacity:1;fill-rule:nonzero;stroke:none"
         id="path12" />
      <path
         d="M 0,0 H 7500 V 5250 H 0 Z"
         style="fill:#ffffff;fill-opacity:1;fill-rule:nonzero;stroke:none"
         id="path14" />
      <path
         d="M 975,577.5 H 6787.5 V 4856.25 H 975 Z"
         style="fill:#ffffff;fill-opacity:1;fill-rule:nonzero;stroke:none"
         id="path16" />
      <path
         d="M 975.031,577.5 V 4856.25"
         style="fill:none;stroke:#c6c6c6;stroke-width:4.99875;stroke-linecap:butt;stroke-linejoin:bevel;stroke-miterlimit:10;stroke-dasharray:3.75, 11.25;stroke-dashoffset:0;stroke-opacity:1"
         id="path18" />
      <path
         d="M 1098.67,577.5 V 4856.25"
         style="fill:none;stroke:#c6c6c6;stroke-width:4.99875;stroke-linecap:butt;stroke-linejoin:bevel;stroke-miterlimit:10;stroke-dasharray:3.75, 11.25;stroke-dashoffset:0;stroke-opacity:1"
         id="path20" />
      <path
         d="M 1222.31,577.5 V 4856.25"
         style="fill:none;stroke:#c6c6c6;stroke-width:4.99875;stroke-linecap:butt;stroke-linejoin:bevel;stroke-miterlimit:10;stroke-dasharray:3.75, 11.25;stroke-dashoffset:0;stroke-opacity:1"
         id="path22" />
      <path
         d="M 1346.02,577.5 V 4856.25"
         style="fill:none;stroke:#c6c6c6;stroke-width:4.99875;stroke-linecap:butt;stroke-linejoin:bevel;stroke-miterlimit:10;stroke-dasharray:3.75, 11.25;stroke-dashoffset:0;stroke-opacity:1"
         id="path24" />
      <path
         d="M 1469.67,577.5 V 4856.25"
         style="fill:none;stroke:#c6c6c6;stroke-width:4.99875;stroke-linecap:butt;stroke-linejoin:bevel;stroke-miterlimit:10;stroke-dasharray:3.75, 11.25;stroke-dashoffset:0;stroke-opacity:1"
         id="path26" />
      <path
         d="M 1593.38,577.5 V 4856.25"
         style="fill:none;stroke:#c6c6c6;stroke-width:4.99875;stroke-linecap:butt;stroke-linejoin:bevel;stroke-miterlimit:10;stroke-dasharray:3.75, 11.25;stroke-dashoffset:0;stroke-opacity:1"
         id="path28" />
      <path
         d="M 1717.02,577.5 V 4856.25"
         style="fill:none;stroke:#c6c6c6;stroke-width:4.99875;stroke-linecap:butt;stroke-linejoin:bevel;stroke-miterlimit:10;stroke-dasharray:3.75, 11.25;stroke-dashoffset:0;stroke-opacity:1"
         id="path30" />
      <path
         d="M 1840.66,577.5 V 4856.25"
         style="fill:none;stroke:#c6c6c6;stroke-width:4.99875;stroke-linecap:butt;stroke-linejoin:bevel;stroke-miterlimit:10;stroke-dasharray:3.75, 11.25;stroke-dashoffset:0;stroke-opacity:1"
         id="path32" />
      <path
         d="M 1964.38,577.5 V 4856.25"
         style="fill:none;stroke:#c6c6c6;stroke-width:4.99875;stroke-linecap:butt;stroke-linejoin:bevel;stroke-miterlimit:10;stroke-dasharray:3.75, 11.25;stroke-dashoffset:0;stroke-opacity:1"
         id="path34" />
      <path
         d="M 2088.02,577.5 V 4856.25"
         style="fill:none;stroke:#c6c6c6;stroke-width:4.99875;stroke-linecap:butt;stroke-linejoin:bevel;stroke-miterlimit:10;stroke-dasharray:3.75, 11.25;stroke-dashoffset:0;stroke-opacity:1"
         id="path36" />
      <path
         d="M 2211.73,577.5 V 4856.25"
         style="fill:none;stroke:#c6c6c6;stroke-width:4.99875;stroke-linecap:butt;stroke-linejoin:bevel;stroke-miterlimit:10;stroke-dasharray:3.75, 11.25;stroke-dashoffset:0;stroke-opacity:1"
         id="path38" />
      <path
         d="M 2335.37,577.5 V 4856.25"
         style="fill:none;stroke:#c6c6c6;stroke-width:4.99875;stroke-linecap:butt;stroke-linejoin:bevel;stroke-miterlimit:10;stroke-dasharray:3.75, 11.25;stroke-dashoffset:0;stroke-opacity:1"
         id="path40" />
      <path
         d="M 2459.02,577.5 V 4856.25"
         style="fill:none;stroke:#c6c6c6;stroke-width:4.99875;stroke-linecap:butt;stroke-linejoin:bevel;stroke-miterlimit:10;stroke-dasharray:3.75, 11.25;stroke-dashoffset:0;stroke-opacity:1"
         id="path42" />
      <path
         d="M 2582.73,577.5 V 4856.25"
         style="fill:none;stroke:#c6c6c6;stroke-width:4.99875;stroke-linecap:butt;stroke-linejoin:bevel;stroke-miterlimit:10;stroke-dasharray:3.75, 11.25;stroke-dashoffset:0;stroke-opacity:1"
         id="path44" />
      <path
         d="M 2706.37,577.5 V 4856.25"
         style="fill:none;stroke:#c6c6c6;stroke-width:4.99875;stroke-linecap:butt;stroke-linejoin:bevel;stroke-miterlimit:10;stroke-dasharray:3.75, 11.25;stroke-dashoffset:0;stroke-opacity:1"
         id="path46" />
      <path
         d="M 2830.08,577.5 V 4856.25"
         style="fill:none;stroke:#c6c6c6;stroke-width:4.99875;stroke-linecap:butt;stroke-linejoin:bevel;stroke-miterlimit:10;stroke-dasharray:3.75, 11.25;stroke-dashoffset:0;stroke-opacity:1"
         id="path48" />
      <path
         d="M 2953.73,577.5 V 4856.25"
         style="fill:none;stroke:#c6c6c6;stroke-width:4.99875;stroke-linecap:butt;stroke-linejoin:bevel;stroke-miterlimit:10;stroke-dasharray:3.75, 11.25;stroke-dashoffset:0;stroke-opacity:1"
         id="path50" />
      <path
         d="M 3077.36,577.5 V 4856.25"
         style="fill:none;stroke:#c6c6c6;stroke-width:4.99875;stroke-linecap:butt;stroke-linejoin:bevel;stroke-miterlimit:10;stroke-dasharray:3.75, 11.25;stroke-dashoffset:0;stroke-opacity:1"
         id="path52" />
      <path
         d="M 3201.08,577.5 V 4856.25"
         style="fill:none;stroke:#c6c6c6;stroke-width:4.99875;stroke-linecap:butt;stroke-linejoin:bevel;stroke-miterlimit:10;stroke-dasharray:3.75, 11.25;stroke-dashoffset:0;stroke-opacity:1"
         id="path54" />
      <path
         d="M 3324.72,577.5 V 4856.25"
         style="fill:none;stroke:#c6c6c6;stroke-width:4.99875;stroke-linecap:butt;stroke-linejoin:bevel;stroke-miterlimit:10;stroke-dasharray:3.75, 11.25;stroke-dashoffset:0;stroke-opacity:1"
         id="path56" />
      <path
         d="M 3448.44,577.5 V 4856.25"
         style="fill:none;stroke:#c6c6c6;stroke-width:4.99875;stroke-linecap:butt;stroke-linejoin:bevel;stroke-miterlimit:10;stroke-dasharray:3.75, 11.25;stroke-dashoffset:0;stroke-opacity:1"
         id="path58" />
      <path
         d="M 3572.07,577.5 V 4856.25"
         style="fill:none;stroke:#c6c6c6;stroke-width:4.99875;stroke-linecap:butt;stroke-linejoin:bevel;stroke-miterlimit:10;stroke-dasharray:3.75, 11.25;stroke-dashoffset:0;stroke-opacity:1"
         id="path60" />
      <path
         d="M 3695.71,577.5 V 4856.25"
         style="fill:none;stroke:#c6c6c6;stroke-width:4.99875;stroke-linecap:butt;stroke-linejoin:bevel;stroke-miterlimit:10;stroke-dasharray:3.75, 11.25;stroke-dashoffset:0;stroke-opacity:1"
         id="path62" />
      <path
         d="M 3819.43,577.5 V 4856.25"
         style="fill:none;stroke:#c6c6c6;stroke-width:4.99875;stroke-linecap:butt;stroke-linejoin:bevel;stroke-miterlimit:10;stroke-dasharray:3.75, 11.25;stroke-dashoffset:0;stroke-opacity:1"
         id="path64" />
      <path
         d="M 3943.07,577.5 V 4856.25"
         style="fill:none;stroke:#c6c6c6;stroke-width:4.99875;stroke-linecap:butt;stroke-linejoin:bevel;stroke-miterlimit:10;stroke-dasharray:3.75, 11.25;stroke-dashoffset:0;stroke-opacity:1"
         id="path66" />
      <path
         d="M 4066.79,577.5 V 4856.25"
         style="fill:none;stroke:#c6c6c6;stroke-width:4.99875;stroke-linecap:butt;stroke-linejoin:bevel;stroke-miterlimit:10;stroke-dasharray:3.75, 11.25;stroke-dashoffset:0;stroke-opacity:1"
         id="path68" />
      <path
         d="M 4190.43,577.5 V 4856.25"
         style="fill:none;stroke:#c6c6c6;stroke-width:4.99875;stroke-linecap:butt;stroke-linejoin:bevel;stroke-miterlimit:10;stroke-dasharray:3.75, 11.25;stroke-dashoffset:0;stroke-opacity:1"
         id="path70" />
      <path
         d="M 4314.06,577.5 V 4856.25"
         style="fill:none;stroke:#c6c6c6;stroke-width:4.99875;stroke-linecap:butt;stroke-linejoin:bevel;stroke-miterlimit:10;stroke-dasharray:3.75, 11.25;stroke-dashoffset:0;stroke-opacity:1"
         id="path72" />
      <path
         d="M 4437.78,577.5 V 4856.25"
         style="fill:none;stroke:#c6c6c6;stroke-width:4.99875;stroke-linecap:butt;stroke-linejoin:bevel;stroke-miterlimit:10;stroke-dasharray:3.75, 11.25;stroke-dashoffset:0;stroke-opacity:1"
         id="path74" />
      <path
         d="M 4561.42,577.5 V 4856.25"
         style="fill:none;stroke:#c6c6c6;stroke-width:4.99875;stroke-linecap:butt;stroke-linejoin:bevel;stroke-miterlimit:10;stroke-dasharray:3.75, 11.25;stroke-dashoffset:0;stroke-opacity:1"
         id="path76" />
      <path
         d="M 4685.14,577.5 V 4856.25"
         style="fill:none;stroke:#c6c6c6;stroke-width:4.99875;stroke-linecap:butt;stroke-linejoin:bevel;stroke-miterlimit:10;stroke-dasharray:3.75, 11.25;stroke-dashoffset:0;stroke-opacity:1"
         id="path78" />
      <path
         d="M 4808.77,577.5 V 4856.25"
         style="fill:none;stroke:#c6c6c6;stroke-width:4.99875;stroke-linecap:butt;stroke-linejoin:bevel;stroke-miterlimit:10;stroke-dasharray:3.75, 11.25;stroke-dashoffset:0;stroke-opacity:1"
         id="path80" />
      <path
         d="M 4932.42,577.5 V 4856.25"
         style="fill:none;stroke:#c6c6c6;stroke-width:4.99875;stroke-linecap:butt;stroke-linejoin:bevel;stroke-miterlimit:10;stroke-dasharray:3.75, 11.25;stroke-dashoffset:0;stroke-opacity:1"
         id="path82" />
      <path
         d="M 5056.13,577.5 V 4856.25"
         style="fill:none;stroke:#c6c6c6;stroke-width:4.99875;stroke-linecap:butt;stroke-linejoin:bevel;stroke-miterlimit:10;stroke-dasharray:3.75, 11.25;stroke-dashoffset:0;stroke-opacity:1"
         id="path84" />
      <path
         d="M 5179.77,577.5 V 4856.25"
         style="fill:none;stroke:#c6c6c6;stroke-width:4.99875;stroke-linecap:butt;stroke-linejoin:bevel;stroke-miterlimit:10;stroke-dasharray:3.75, 11.25;stroke-dashoffset:0;stroke-opacity:1"
         id="path86" />
      <path
         d="M 5303.48,577.5 V 4856.25"
         style="fill:none;stroke:#c6c6c6;stroke-width:4.99875;stroke-linecap:butt;stroke-linejoin:bevel;stroke-miterlimit:10;stroke-dasharray:3.75, 11.25;stroke-dashoffset:0;stroke-opacity:1"
         id="path88" />
      <path
         d="M 5427.13,577.5 V 4856.25"
         style="fill:none;stroke:#c6c6c6;stroke-width:4.99875;stroke-linecap:butt;stroke-linejoin:bevel;stroke-miterlimit:10;stroke-dasharray:3.75, 11.25;stroke-dashoffset:0;stroke-opacity:1"
         id="path90" />
      <path
         d="M 5550.77,577.5 V 4856.25"
         style="fill:none;stroke:#c6c6c6;stroke-width:4.99875;stroke-linecap:butt;stroke-linejoin:bevel;stroke-miterlimit:10;stroke-dasharray:3.75, 11.25;stroke-dashoffset:0;stroke-opacity:1"
         id="path92" />
      <path
         d="M 5674.48,577.5 V 4856.25"
         style="fill:none;stroke:#c6c6c6;stroke-width:4.99875;stroke-linecap:butt;stroke-linejoin:bevel;stroke-miterlimit:10;stroke-dasharray:3.75, 11.25;stroke-dashoffset:0;stroke-opacity:1"
         id="path94" />
      <path
         d="M 5798.12,577.5 V 4856.25"
         style="fill:none;stroke:#c6c6c6;stroke-width:4.99875;stroke-linecap:butt;stroke-linejoin:bevel;stroke-miterlimit:10;stroke-dasharray:3.75, 11.25;stroke-dashoffset:0;stroke-opacity:1"
         id="path96" />
      <path
         d="M 5921.84,577.5 V 4856.25"
         style="fill:none;stroke:#c6c6c6;stroke-width:4.99875;stroke-linecap:butt;stroke-linejoin:bevel;stroke-miterlimit:10;stroke-dasharray:3.75, 11.25;stroke-dashoffset:0;stroke-opacity:1"
         id="path98" />
      <path
         d="M 6045.48,577.5 V 4856.25"
         style="fill:none;stroke:#c6c6c6;stroke-width:4.99875;stroke-linecap:butt;stroke-linejoin:bevel;stroke-miterlimit:10;stroke-dasharray:3.75, 11.25;stroke-dashoffset:0;stroke-opacity:1"
         id="path100" />
      <path
         d="M 6169.12,577.5 V 4856.25"
         style="fill:none;stroke:#c6c6c6;stroke-width:4.99875;stroke-linecap:butt;stroke-linejoin:bevel;stroke-miterlimit:10;stroke-dasharray:3.75, 11.25;stroke-dashoffset:0;stroke-opacity:1"
         id="path102" />
      <path
         d="M 6292.83,577.5 V 4856.25"
         style="fill:none;stroke:#c6c6c6;stroke-width:4.99875;stroke-linecap:butt;stroke-linejoin:bevel;stroke-miterlimit:10;stroke-dasharray:3.75, 11.25;stroke-dashoffset:0;stroke-opacity:1"
         id="path104" />
      <path
         d="M 6416.48,577.5 V 4856.25"
         style="fill:none;stroke:#c6c6c6;stroke-width:4.99875;stroke-linecap:butt;stroke-linejoin:bevel;stroke-miterlimit:10;stroke-dasharray:3.75, 11.25;stroke-dashoffset:0;stroke-opacity:1"
         id="path106" />
      <path
         d="M 6540.19,577.5 V 4856.25"
         style="fill:none;stroke:#c6c6c6;stroke-width:4.99875;stroke-linecap:butt;stroke-linejoin:bevel;stroke-miterlimit:10;stroke-dasharray:3.75, 11.25;stroke-dashoffset:0;stroke-opacity:1"
         id="path108" />
      <path
         d="M 6663.83,577.5 V 4856.25"
         style="fill:none;stroke:#c6c6c6;stroke-width:4.99875;stroke-linecap:butt;stroke-linejoin:bevel;stroke-miterlimit:10;stroke-dasharray:3.75, 11.25;stroke-dashoffset:0;stroke-opacity:1"
         id="path110" />
      <path
         d="M 6787.47,577.5 V 4856.25"
         style="fill:none;stroke:#c6c6c6;stroke-width:4.99875;stroke-linecap:butt;stroke-linejoin:bevel;stroke-miterlimit:10;stroke-dasharray:3.75, 11.25;stroke-dashoffset:0;stroke-opacity:1"
         id="path112" />
      <path
         d="M 6787.47,577.5 H 975.031"
         style="fill:none;stroke:#c6c6c6;stroke-width:4.99875;stroke-linecap:butt;stroke-linejoin:bevel;stroke-miterlimit:10;stroke-dasharray:3.75, 11.25;stroke-dashoffset:0;stroke-opacity:1"
         id="path114" />
      <path
         d="M 6787.47,862.75 H 975.031"
         style="fill:none;stroke:#c6c6c6;stroke-width:4.99875;stroke-linecap:butt;stroke-linejoin:bevel;stroke-miterlimit:10;stroke-dasharray:3.75, 11.25;stroke-dashoffset:0;stroke-opacity:1"
         id="path116" />
      <path
         d="M 6787.47,1148 H 975.031"
         style="fill:none;stroke:#c6c6c6;stroke-width:4.99875;stroke-linecap:butt;stroke-linejoin:bevel;stroke-miterlimit:10;stroke-dasharray:3.75, 11.25;stroke-dashoffset:0;stroke-opacity:1"
         id="path118" />
      <path
         d="M 6787.47,1433.25 H 975.031"
         style="fill:none;stroke:#c6c6c6;stroke-width:4.99875;stroke-linecap:butt;stroke-linejoin:bevel;stroke-miterlimit:10;stroke-dasharray:3.75, 11.25;stroke-dashoffset:0;stroke-opacity:1"
         id="path120" />
      <path
         d="M 6787.47,1718.5 H 975.031"
         style="fill:none;stroke:#c6c6c6;stroke-width:4.99875;stroke-linecap:butt;stroke-linejoin:bevel;stroke-miterlimit:10;stroke-dasharray:3.75, 11.25;stroke-dashoffset:0;stroke-opacity:1"
         id="path122" />
      <path
         d="M 6787.47,2003.75 H 975.031"
         style="fill:none;stroke:#c6c6c6;stroke-width:4.99875;stroke-linecap:butt;stroke-linejoin:bevel;stroke-miterlimit:10;stroke-dasharray:3.75, 11.25;stroke-dashoffset:0;stroke-opacity:1"
         id="path124" />
      <path
         d="M 6787.47,2289 H 975.031"
         style="fill:none;stroke:#c6c6c6;stroke-width:4.99875;stroke-linecap:butt;stroke-linejoin:bevel;stroke-miterlimit:10;stroke-dasharray:3.75, 11.25;stroke-dashoffset:0;stroke-opacity:1"
         id="path126" />
      <path
         d="M 6787.47,2574.25 H 975.031"
         style="fill:none;stroke:#c6c6c6;stroke-width:4.99875;stroke-linecap:butt;stroke-linejoin:bevel;stroke-miterlimit:10;stroke-dasharray:3.75, 11.25;stroke-dashoffset:0;stroke-opacity:1"
         id="path128" />
      <path
         d="M 6787.47,2859.5 H 975.031"
         style="fill:none;stroke:#c6c6c6;stroke-width:4.99875;stroke-linecap:butt;stroke-linejoin:bevel;stroke-miterlimit:10;stroke-dasharray:3.75, 11.25;stroke-dashoffset:0;stroke-opacity:1"
         id="path130" />
      <path
         d="M 6787.47,3144.75 H 975.031"
         style="fill:none;stroke:#c6c6c6;stroke-width:4.99875;stroke-linecap:butt;stroke-linejoin:bevel;stroke-miterlimit:10;stroke-dasharray:3.75, 11.25;stroke-dashoffset:0;stroke-opacity:1"
         id="path132" />
      <path
         d="M 6787.47,3430 H 975.031"
         style="fill:none;stroke:#c6c6c6;stroke-width:4.99875;stroke-linecap:butt;stroke-linejoin:bevel;stroke-miterlimit:10;stroke-dasharray:3.75, 11.25;stroke-dashoffset:0;stroke-opacity:1"
         id="path134" />
      <path
         d="M 6787.47,3715.25 H 975.031"
         style="fill:none;stroke:#c6c6c6;stroke-width:4.99875;stroke-linecap:butt;stroke-linejoin:bevel;stroke-miterlimit:10;stroke-dasharray:3.75, 11.25;stroke-dashoffset:0;stroke-opacity:1"
         id="path136" />
      <path
         d="M 6787.47,4000.5 H 975.031"
         style="fill:none;stroke:#c6c6c6;stroke-width:4.99875;stroke-linecap:butt;stroke-linejoin:bevel;stroke-miterlimit:10;stroke-dasharray:3.75, 11.25;stroke-dashoffset:0;stroke-opacity:1"
         id="path138" />
      <path
         d="M 6787.47,4285.75 H 975.031"
         style="fill:none;stroke:#c6c6c6;stroke-width:4.99875;stroke-linecap:butt;stroke-linejoin:bevel;stroke-miterlimit:10;stroke-dasharray:3.75, 11.25;stroke-dashoffset:0;stroke-opacity:1"
         id="path140" />
      <path
         d="M 6787.47,4571 H 975.031"
         style="fill:none;stroke:#c6c6c6;stroke-width:4.99875;stroke-linecap:butt;stroke-linejoin:bevel;stroke-miterlimit:10;stroke-dasharray:3.75, 11.25;stroke-dashoffset:0;stroke-opacity:1"
         id="path142" />
      <path
         d="M 6787.47,4856.25 H 975.031"
         style="fill:none;stroke:#c6c6c6;stroke-width:4.99875;stroke-linecap:butt;stroke-linejoin:bevel;stroke-miterlimit:10;stroke-dasharray:3.75, 11.25;stroke-dashoffset:0;stroke-opacity:1"
         id="path144" />
      <path
         d="m 2283.56,4937.93 v 6.32 c 12.35,0 18.52,3.56 18.52,10.67 v 98.61 c -3.91,0.7 -10.08,1.06 -18.52,1.06 v 6.32 h 34.46 c 0.58,0 0.99,-0.23 1.23,-0.7 l 63.69,-93.81 v 77.52 c 0,7.11 -6.17,10.67 -18.51,10.67 v 6.32 h 42.77 v -6.32 c -12.31,0 -18.46,-3.56 -18.46,-10.67 v -104.41 c 0,-0.35 -0.24,-0.71 -0.7,-1.06 -0.47,-0.35 -0.84,-0.52 -1.11,-0.52 h -2.23 c -0.59,0 -1,0.23 -1.24,0.7 l -75.58,111.27 v -94.98 c 0,-7.11 6.19,-10.67 18.58,-10.67 v -6.32 h -42.9"
         style="fill:#000000;fill-opacity:1;fill-rule:nonzero;stroke:none"
         id="path146" />
      <path
         d="m 2432.45,4959.37 v 39.73 c 0,3.24 -0.49,5.58 -1.46,7 -0.98,1.42 -2.38,2.3 -4.19,2.64 -1.82,0.33 -4.62,0.49 -8.41,0.49 v 6.33 l 27.24,1.94 v -58.13 c 0,-4.69 0.33,-8.33 1,-10.92 0.66,-2.6 2.1,-4.55 4.31,-5.84 2.2,-1.29 5.71,-1.93 10.52,-1.93 6.44,0 11.57,2.7 15.37,8.09 3.81,5.39 5.72,11.5 5.72,18.34 v 31.99 c 0,3.24 -0.5,5.58 -1.5,7 -0.99,1.42 -2.39,2.3 -4.19,2.64 -1.79,0.33 -4.59,0.49 -8.37,0.49 v 6.33 l 27.12,1.94 v -63.23 c 0,-3.16 0.49,-5.45 1.47,-6.88 0.97,-1.43 2.37,-2.31 4.19,-2.64 1.82,-0.33 4.62,-0.5 8.41,-0.5 v -6.32 l -26.61,-2.05 v 15.23 c -2.22,-4.49 -5.33,-8.15 -9.31,-10.99 -3.99,-2.83 -8.38,-4.24 -13.19,-4.24 -8.63,0 -15.47,1.83 -20.53,5.5 -5.06,3.67 -7.59,9.67 -7.59,17.99"
         style="fill:#000000;fill-opacity:1;fill-rule:nonzero;stroke:none"
         id="path148" />
      <path
         d="m 2518.39,4937.93 v 6.32 c 4.1,0 7.47,0.33 10.11,0.97 2.63,0.64 3.95,2.24 3.95,4.78 v 49.1 c 0,3.24 -0.49,5.58 -1.46,7 -0.98,1.42 -2.38,2.3 -4.19,2.64 -1.82,0.33 -4.62,0.49 -8.41,0.49 v 6.33 l 26.07,1.94 v -17.58 c 2.42,5.15 5.99,9.37 10.7,12.65 4.7,3.29 9.85,4.93 15.43,4.93 13.83,0 21.94,-5.63 24.32,-16.88 2.42,5.04 5.95,9.11 10.58,12.22 4.63,3.11 9.69,4.66 15.2,4.66 5.43,0 10.01,-0.88 13.74,-2.64 3.73,-1.76 6.54,-4.44 8.41,-8.06 1.88,-3.61 2.82,-8.13 2.82,-13.56 V 4950 c 0,-2.54 1.32,-4.14 3.98,-4.78 2.66,-0.64 6.02,-0.97 10.08,-0.97 v -6.32 h -41.25 v 6.32 c 4.1,0 7.47,0.33 10.1,0.97 2.64,0.64 3.96,2.24 3.96,4.78 v 42.71 c 0,6.02 -0.85,10.87 -2.55,14.56 -1.7,3.69 -5.19,5.54 -10.46,5.54 -6.91,0 -12.63,-2.79 -17.14,-8.35 -4.51,-5.57 -6.77,-11.89 -6.77,-18.96 V 4950 c 0,-2.54 1.32,-4.14 3.96,-4.78 2.64,-0.64 6,-0.97 10.11,-0.97 v -6.32 h -41.19 v 6.32 c 4.1,0 7.47,0.33 10.1,0.97 2.64,0.64 3.96,2.24 3.96,4.78 v 42.71 c 0,5.86 -0.85,10.67 -2.55,14.44 -1.7,3.78 -5.19,5.66 -10.46,5.66 -6.99,0 -12.72,-2.79 -17.2,-8.35 -4.47,-5.57 -6.7,-11.89 -6.7,-18.96 V 4950 c 0,-2.54 1.31,-4.14 3.95,-4.78 2.64,-0.64 5.96,-0.97 9.99,-0.97 v -6.32 h -41.19"
         style="fill:#000000;fill-opacity:1;fill-rule:nonzero;stroke:none"
         id="path150" />
      <path
         d="m 2676.75,4937.93 v 106.52 c 0,3.24 -0.49,5.57 -1.46,7 -0.99,1.43 -2.38,2.31 -4.2,2.64 -1.81,0.33 -4.62,0.5 -8.41,0.5 v 6.32 l 26.61,1.94 v -56.37 c 1.99,2.23 4.32,4.18 7,5.86 2.67,1.68 5.54,2.96 8.58,3.84 3.05,0.87 6.15,1.32 9.32,1.32 5.39,0 10.38,-1.09 14.97,-3.25 4.59,-2.17 8.58,-5.16 11.98,-8.97 3.4,-3.81 6.06,-8.19 7.97,-13.15 1.91,-4.97 2.87,-10.08 2.87,-15.36 0,-7.26 -1.77,-14.03 -5.33,-20.3 -3.56,-6.27 -8.39,-11.27 -14.5,-15 -6.11,-3.73 -12.84,-5.59 -20.19,-5.59 -4.57,0 -8.99,1.17 -13.27,3.54 -4.28,2.37 -7.82,5.48 -10.64,9.35 l -6.15,-10.84 z m 13.07,17.69 c 1.99,-4.41 4.86,-8.01 8.61,-10.78 3.75,-2.77 7.91,-4.16 12.48,-4.16 6.21,0 11.24,1.79 15.09,5.36 3.84,3.58 6.53,8.09 8.05,13.54 1.53,5.44 2.29,11.18 2.29,17.19 0,10.16 -1.33,17.87 -3.98,23.15 -1.18,2.34 -2.77,4.51 -4.78,6.5 -2.01,1.99 -4.27,3.56 -6.77,4.69 -2.5,1.13 -5.12,1.7 -7.85,1.7 -4.8,0 -9.26,-1.27 -13.36,-3.81 -4.1,-2.54 -7.36,-5.96 -9.78,-10.25 v -43.13"
         style="fill:#000000;fill-opacity:1;fill-rule:nonzero;stroke:none"
         id="path152" />
      <path
         d="m 2807.82,4935.88 c -7.3,0 -14.02,1.92 -20.15,5.76 -6.13,3.85 -10.94,8.99 -14.42,15.42 -3.48,6.42 -5.21,13.21 -5.21,20.36 0,7.03 1.59,13.71 4.77,20.04 3.19,6.33 7.64,11.43 13.36,15.32 5.72,3.89 12.1,5.83 19.13,5.83 5.51,0 10.3,-0.92 14.36,-2.75 4.06,-1.84 7.41,-4.4 10.05,-7.68 2.63,-3.28 4.63,-7.15 5.97,-11.6 1.35,-4.45 2.02,-9.36 2.02,-14.71 0,-1.56 -0.6,-2.34 -1.81,-2.34 h -52.15 v -1.94 c 0,-9.96 2.01,-18.51 6.03,-25.66 4.03,-7.15 10.57,-10.72 19.64,-10.72 3.71,0 7.13,0.82 10.25,2.46 3.13,1.64 5.85,3.92 8.17,6.85 2.33,2.93 3.9,6.06 4.72,9.38 0.11,0.43 0.33,0.8 0.64,1.11 0.31,0.31 0.69,0.47 1.11,0.47 h 1.59 c 1.21,0 1.81,-0.76 1.81,-2.28 -1.67,-6.8 -5.32,-12.39 -10.95,-16.76 -5.62,-4.38 -11.93,-6.56 -18.93,-6.56 z m -23.9,48.1 h 41.07 c 0,4.53 -0.63,9.11 -1.9,13.74 -1.27,4.63 -3.38,8.48 -6.3,11.55 -2.93,3.06 -6.76,4.59 -11.49,4.59 -6.79,0 -12.06,-3.17 -15.79,-9.52 -3.73,-6.35 -5.59,-13.13 -5.59,-20.36"
         style="fill:#000000;fill-opacity:1;fill-rule:nonzero;stroke:none"
         id="path154" />
      <path
         d="m 2847.69,4937.93 v 6.32 c 4.1,0 7.47,0.33 10.1,0.97 2.64,0.64 3.96,2.24 3.96,4.78 v 49.1 c 0,3.24 -0.49,5.58 -1.47,7 -0.97,1.42 -2.37,2.3 -4.19,2.64 -1.81,0.33 -4.62,0.49 -8.4,0.49 v 6.33 l 25.72,1.94 v -17.58 c 1.95,5.19 4.72,9.42 8.29,12.68 3.57,3.27 7.9,4.9 12.98,4.9 3.59,0 6.8,-1.06 9.61,-3.17 2.81,-2.11 4.22,-4.9 4.22,-8.38 0,-2.15 -0.78,-4.03 -2.35,-5.65 -1.56,-1.62 -3.47,-2.43 -5.74,-2.43 -2.22,0 -4.13,0.79 -5.71,2.37 -1.58,1.58 -2.38,3.49 -2.38,5.71 0,3.25 1.13,5.53 3.4,6.86 h -1.05 c -4.84,0 -8.81,-1.76 -11.9,-5.27 -3.08,-3.52 -5.27,-7.89 -6.56,-13.1 -1.29,-5.21 -1.93,-10.19 -1.93,-14.91 V 4950 c 0,-3.83 5.84,-5.75 17.51,-5.75 v -6.32 h -44.11"
         style="fill:#000000;fill-opacity:1;fill-rule:nonzero;stroke:none"
         id="path156" />
      <path
         d="m 3018.5,4935.88 c -7.19,0 -13.86,1.83 -20.01,5.5 -6.15,3.67 -11.02,8.59 -14.59,14.74 -3.58,6.15 -5.36,12.86 -5.36,20.13 0,5.5 0.98,10.8 2.93,15.9 1.95,5.1 4.76,9.66 8.44,13.69 3.67,4.02 7.93,7.15 12.8,9.4 4.86,2.25 10.12,3.37 15.79,3.37 7.38,0 14.11,-1.94 20.18,-5.83 6.08,-3.89 10.87,-9.1 14.39,-15.65 3.52,-6.54 5.27,-13.5 5.27,-20.88 0,-7.19 -1.79,-13.88 -5.36,-20.07 -3.57,-6.19 -8.43,-11.13 -14.56,-14.8 -6.13,-3.67 -12.78,-5.5 -19.92,-5.5 z m 0,5.33 c 9.61,0 16.02,3.48 19.25,10.45 3.22,6.98 4.83,15.86 4.83,26.64 0,6.01 -0.32,11 -0.97,14.97 -0.64,3.96 -2.04,7.55 -4.18,10.75 -1.37,1.99 -3.09,3.74 -5.16,5.25 -2.07,1.5 -4.27,2.64 -6.59,3.42 -2.33,0.78 -4.72,1.17 -7.18,1.17 -3.75,0 -7.3,-0.85 -10.67,-2.55 -3.36,-1.69 -6.15,-4.13 -8.37,-7.29 -2.23,-3.4 -3.66,-7.13 -4.28,-11.19 -0.63,-4.06 -0.94,-8.91 -0.94,-14.53 0,-6.76 0.59,-12.82 1.76,-18.17 1.17,-5.35 3.54,-9.84 7.09,-13.47 3.55,-3.64 8.69,-5.45 15.41,-5.45"
         style="fill:#000000;fill-opacity:1;fill-rule:nonzero;stroke:none"
         id="path158" />
      <path
         d="m 3069.3,4937.93 v 6.32 c 4.06,0 7.41,0.33 10.05,0.97 2.63,0.64 3.95,2.24 3.95,4.78 v 59.23 h -13.82 v 6.33 h 13.82 v 21.51 c 0,3.86 0.81,7.49 2.41,10.86 1.59,3.39 3.76,6.34 6.5,8.85 2.74,2.52 5.87,4.49 9.4,5.92 3.54,1.43 7.22,2.14 11.05,2.14 4.02,0 7.66,-1.2 10.93,-3.6 3.26,-2.4 4.89,-5.6 4.89,-9.58 0,-2.27 -0.78,-4.18 -2.34,-5.75 -1.57,-1.56 -3.48,-2.34 -5.75,-2.34 -2.3,0 -4.25,0.78 -5.86,2.34 -1.6,1.57 -2.4,3.48 -2.4,5.75 0,3.75 1.6,6.27 4.81,7.55 -1.92,0.67 -3.64,1 -5.16,1 -3.51,0 -6.52,-1.25 -9.02,-3.75 -2.5,-2.5 -4.37,-5.53 -5.6,-9.11 -1.23,-3.58 -1.85,-7.12 -1.85,-10.64 v -21.15 h 20.75 v -6.33 h -20.1 V 4950 c 0,-2.46 1.75,-4.04 5.27,-4.72 3.52,-0.68 7.56,-1.03 12.13,-1.03 v -6.32 h -44.06"
         style="fill:#000000;fill-opacity:1;fill-rule:nonzero;stroke:none"
         id="path160" />
      <path
         d="m 3183.54,4923.86 c 0,4.26 1.55,7.99 4.66,11.19 3.1,3.21 6.78,5.49 11.04,6.86 -2.38,1.8 -4.21,4.07 -5.48,6.83 -1.27,2.75 -1.9,5.69 -1.9,8.81 0,5.63 1.8,10.61 5.39,14.95 -5.51,5.39 -8.26,11.56 -8.26,18.51 0,3.75 0.8,7.27 2.4,10.55 1.6,3.28 3.84,6.12 6.71,8.52 2.87,2.4 6.06,4.24 9.58,5.51 3.52,1.27 7.13,1.91 10.84,1.91 7.15,0 13.55,-2.09 19.22,-6.27 2.46,2.65 5.38,4.7 8.76,6.12 3.38,1.42 6.88,2.14 10.52,2.14 2.57,0 4.68,-0.92 6.32,-2.76 1.64,-1.83 2.46,-4.04 2.46,-6.62 0,-1.48 -0.55,-2.78 -1.66,-3.9 -1.12,-1.1 -2.42,-1.66 -3.9,-1.66 -1.53,0 -2.85,0.56 -3.96,1.66 -1.11,1.12 -1.67,2.42 -1.67,3.9 0,2.23 0.75,3.77 2.23,4.63 -6.21,0 -11.54,-2.13 -16,-6.38 2.15,-2.19 3.89,-4.85 5.21,-7.97 1.34,-3.13 2,-6.25 2,-9.38 0,-5.08 -1.41,-9.66 -4.22,-13.74 -2.81,-4.08 -6.52,-7.24 -11.13,-9.49 -4.61,-2.24 -9.34,-3.37 -14.18,-3.37 -6.56,0 -12.58,1.78 -18.05,5.33 -1.68,-2.34 -2.52,-4.98 -2.52,-7.91 0,-3.16 1.04,-5.92 3.1,-8.29 2.08,-2.36 4.69,-3.54 7.86,-3.54 h 14.77 c 7.14,0 13.59,-0.65 19.33,-1.94 5.74,-1.29 10.57,-3.87 14.47,-7.76 3.91,-3.89 5.86,-9.37 5.86,-16.44 0,-5.27 -2.22,-9.65 -6.68,-13.15 -4.45,-3.5 -9.77,-6.01 -15.96,-7.56 -6.2,-1.54 -11.93,-2.31 -17.2,-2.31 -5.31,0 -11.07,0.77 -17.29,2.31 -6.21,1.55 -11.54,4.06 -15.99,7.56 -4.45,3.5 -6.68,7.88 -6.68,13.15 z m 10.08,0 c 0,-4.06 1.64,-7.45 4.92,-10.16 3.28,-2.72 7.23,-4.74 11.86,-6.07 4.63,-1.33 9,-1.99 13.1,-1.99 4.06,0 8.41,0.66 13.04,1.99 4.62,1.33 8.56,3.35 11.8,6.07 3.25,2.71 4.87,6.1 4.87,10.16 0,6.25 -2.87,10.3 -8.62,12.16 -5.74,1.86 -12.71,2.78 -20.91,2.78 h -14.77 c -2.73,0 -5.27,-0.66 -7.59,-1.99 -2.32,-1.33 -4.19,-3.17 -5.6,-5.53 -1.4,-2.37 -2.1,-4.84 -2.1,-7.42 z m 24.9,45.35 c 10.19,0 15.29,7.27 15.29,21.8 0,6.29 -1.08,11.47 -3.25,15.53 -2.17,4.06 -6.18,6.09 -12.04,6.09 -5.86,0 -9.88,-2.03 -12.04,-6.09 -2.17,-4.06 -3.26,-9.24 -3.26,-15.53 0,-3.98 0.42,-7.58 1.24,-10.81 0.82,-3.22 2.34,-5.86 4.56,-7.91 2.23,-2.05 5.4,-3.08 9.5,-3.08"
         style="fill:#000000;fill-opacity:1;fill-rule:nonzero;stroke:none"
         id="path162" />
      <path
         d="m 3274.07,4937.93 v 6.32 c 4.1,0 7.47,0.33 10.1,0.97 2.64,0.64 3.96,2.24 3.96,4.78 v 94.45 c 0,3.24 -0.49,5.57 -1.47,7 -0.97,1.43 -2.37,2.31 -4.19,2.64 -1.81,0.33 -4.61,0.5 -8.4,0.5 v 6.32 l 26.72,1.94 V 4950 c 0,-2.54 1.31,-4.14 3.95,-4.78 2.64,-0.64 5.97,-0.97 9.99,-0.97 v -6.32 h -40.66"
         style="fill:#000000;fill-opacity:1;fill-rule:nonzero;stroke:none"
         id="path164" />
      <path
         d="m 3363.5,4935.88 c -7.19,0 -13.86,1.83 -20.01,5.5 -6.15,3.67 -11.02,8.59 -14.59,14.74 -3.57,6.15 -5.36,12.86 -5.36,20.13 0,5.5 0.98,10.8 2.93,15.9 1.95,5.1 4.76,9.66 8.44,13.69 3.67,4.02 7.93,7.15 12.8,9.4 4.86,2.25 10.12,3.37 15.79,3.37 7.38,0 14.11,-1.94 20.18,-5.83 6.08,-3.89 10.87,-9.1 14.39,-15.65 3.52,-6.54 5.27,-13.5 5.27,-20.88 0,-7.19 -1.79,-13.88 -5.36,-20.07 -3.57,-6.19 -8.43,-11.13 -14.56,-14.8 -6.13,-3.67 -12.78,-5.5 -19.92,-5.5 z m 0,5.33 c 9.61,0 16.02,3.48 19.25,10.45 3.22,6.98 4.83,15.86 4.83,26.64 0,6.01 -0.32,11 -0.97,14.97 -0.64,3.96 -2.04,7.55 -4.18,10.75 -1.37,1.99 -3.09,3.74 -5.16,5.25 -2.07,1.5 -4.27,2.64 -6.59,3.42 -2.33,0.78 -4.72,1.17 -7.18,1.17 -3.75,0 -7.3,-0.85 -10.67,-2.55 -3.35,-1.69 -6.15,-4.13 -8.37,-7.29 -2.23,-3.4 -3.66,-7.13 -4.28,-11.19 -0.63,-4.06 -0.94,-8.91 -0.94,-14.53 0,-6.76 0.59,-12.82 1.76,-18.17 1.17,-5.35 3.54,-9.84 7.09,-13.47 3.55,-3.64 8.69,-5.45 15.41,-5.45"
         style="fill:#000000;fill-opacity:1;fill-rule:nonzero;stroke:none"
         id="path166" />
      <path
         d="m 3427.25,4937.93 v 106.52 c 0,3.24 -0.49,5.57 -1.46,7 -0.98,1.43 -2.38,2.31 -4.2,2.64 -1.81,0.33 -4.61,0.5 -8.4,0.5 v 6.32 l 26.6,1.94 v -56.37 c 1.99,2.23 4.32,4.18 7,5.86 2.67,1.68 5.54,2.96 8.59,3.84 3.04,0.87 6.15,1.32 9.31,1.32 5.39,0 10.38,-1.09 14.97,-3.25 4.59,-2.17 8.59,-5.16 11.98,-8.97 3.4,-3.81 6.06,-8.19 7.97,-13.15 1.92,-4.97 2.87,-10.08 2.87,-15.36 0,-7.26 -1.77,-14.03 -5.33,-20.3 -3.55,-6.27 -8.38,-11.27 -14.5,-15 -6.11,-3.73 -12.84,-5.59 -20.19,-5.59 -4.57,0 -8.99,1.17 -13.26,3.54 -4.28,2.37 -7.83,5.48 -10.64,9.35 l -6.15,-10.84 z m 13.07,17.69 c 1.99,-4.41 4.86,-8.01 8.61,-10.78 3.75,-2.77 7.91,-4.16 12.48,-4.16 6.21,0 11.24,1.79 15.09,5.36 3.84,3.58 6.53,8.09 8.05,13.54 1.53,5.44 2.29,11.18 2.29,17.19 0,10.16 -1.33,17.87 -3.98,23.15 -1.18,2.34 -2.77,4.51 -4.78,6.5 -2.01,1.99 -4.27,3.56 -6.77,4.69 -2.5,1.13 -5.11,1.7 -7.85,1.7 -4.8,0 -9.26,-1.27 -13.36,-3.81 -4.1,-2.54 -7.36,-5.96 -9.78,-10.25 v -43.13"
         style="fill:#000000;fill-opacity:1;fill-rule:nonzero;stroke:none"
         id="path168" />
      <path
         d="m 3515.71,4955.62 c 0,7.15 2.81,12.96 8.43,17.43 5.63,4.47 12.39,7.64 20.28,9.5 7.89,1.85 15.37,2.78 22.44,2.78 v 7.38 c 0,3.44 -0.76,6.79 -2.29,10.05 -1.52,3.26 -3.71,5.93 -6.59,8 -2.87,2.07 -6.02,3.1 -9.46,3.1 -7.97,0 -14.04,-1.77 -18.22,-5.33 2.3,0 4.2,-0.87 5.68,-2.6 1.48,-1.74 2.23,-3.75 2.23,-6.01 0,-2.42 -0.85,-4.48 -2.55,-6.18 -1.7,-1.7 -3.72,-2.55 -6.07,-2.55 -2.38,0 -4.42,0.85 -6.12,2.55 -1.7,1.7 -2.55,3.76 -2.55,6.18 0,6.33 2.87,11.03 8.62,14.09 5.74,3.07 12.07,4.6 18.98,4.6 4.84,0 9.73,-1.04 14.65,-3.11 4.92,-2.07 8.96,-5.04 12.1,-8.9 3.14,-3.87 4.71,-8.38 4.71,-13.54 v -40.54 c 0,-2.35 0.5,-4.5 1.5,-6.45 0.99,-1.95 2.55,-2.93 4.66,-2.93 1.99,0 3.47,1 4.42,2.99 0.96,1.99 1.44,4.12 1.44,6.39 v 11.54 h 5.27 v -11.54 c 0,-2.7 -0.7,-5.26 -2.11,-7.68 -1.41,-2.42 -3.29,-4.36 -5.65,-5.8 -2.37,-1.45 -4.94,-2.17 -7.71,-2.17 -3.51,0 -6.54,1.37 -9.08,4.1 -2.54,2.74 -3.97,5.98 -4.28,9.73 -2.23,-4.53 -5.51,-8.13 -9.84,-10.81 -4.34,-2.68 -8.97,-4.01 -13.89,-4.01 -4.57,0 -9.06,0.68 -13.48,2.05 -4.41,1.36 -8.1,3.49 -11.07,6.38 -2.97,2.89 -4.45,6.66 -4.45,11.31 z m 14.59,0 c 0,-4.22 1.55,-7.76 4.66,-10.63 3.1,-2.87 6.76,-4.31 10.98,-4.31 3.87,0 7.38,0.97 10.55,2.9 3.16,1.93 5.68,4.57 7.56,7.91 1.87,3.34 2.81,6.85 2.81,10.52 v 18.75 c -5.43,0 -11,-0.9 -16.73,-2.7 -5.72,-1.79 -10.46,-4.6 -14.21,-8.41 -3.75,-3.8 -5.62,-8.48 -5.62,-14.03"
         style="fill:#000000;fill-opacity:1;fill-rule:nonzero;stroke:none"
         id="path170" />
      <path
         d="m 3604.07,4937.93 v 6.32 c 4.1,0 7.47,0.33 10.11,0.97 2.63,0.64 3.95,2.24 3.95,4.78 v 94.45 c 0,3.24 -0.49,5.57 -1.47,7 -0.97,1.43 -2.37,2.31 -4.18,2.64 -1.82,0.33 -4.62,0.5 -8.41,0.5 v 6.32 l 26.72,1.94 V 4950 c 0,-2.54 1.31,-4.14 3.95,-4.78 2.64,-0.64 5.97,-0.97 9.99,-0.97 v -6.32 h -40.66"
         style="fill:#000000;fill-opacity:1;fill-rule:nonzero;stroke:none"
         id="path172" />
      <path
         d="m 3715.71,4955.62 c 0,7.15 2.81,12.96 8.43,17.43 5.63,4.47 12.39,7.64 20.28,9.5 7.89,1.85 15.37,2.78 22.44,2.78 v 7.38 c 0,3.44 -0.76,6.79 -2.29,10.05 -1.52,3.26 -3.71,5.93 -6.59,8 -2.87,2.07 -6.02,3.1 -9.46,3.1 -7.97,0 -14.04,-1.77 -18.22,-5.33 2.3,0 4.2,-0.87 5.68,-2.6 1.48,-1.74 2.23,-3.75 2.23,-6.01 0,-2.42 -0.85,-4.48 -2.55,-6.18 -1.7,-1.7 -3.72,-2.55 -6.07,-2.55 -2.38,0 -4.42,0.85 -6.12,2.55 -1.7,1.7 -2.55,3.76 -2.55,6.18 0,6.33 2.87,11.03 8.62,14.09 5.74,3.07 12.07,4.6 18.98,4.6 4.84,0 9.73,-1.04 14.65,-3.11 4.92,-2.07 8.95,-5.04 12.1,-8.9 3.14,-3.87 4.71,-8.38 4.71,-13.54 v -40.54 c 0,-2.35 0.5,-4.5 1.5,-6.45 1,-1.95 2.55,-2.93 4.66,-2.93 1.99,0 3.46,1 4.42,2.99 0.96,1.99 1.44,4.12 1.44,6.39 v 11.54 h 5.27 v -11.54 c 0,-2.7 -0.7,-5.26 -2.11,-7.68 -1.41,-2.42 -3.29,-4.36 -5.65,-5.8 -2.37,-1.45 -4.94,-2.17 -7.71,-2.17 -3.51,0 -6.54,1.37 -9.08,4.1 -2.54,2.74 -3.97,5.98 -4.28,9.73 -2.23,-4.53 -5.51,-8.13 -9.84,-10.81 -4.34,-2.68 -8.97,-4.01 -13.89,-4.01 -4.57,0 -9.06,0.68 -13.48,2.05 -4.41,1.36 -8.1,3.49 -11.07,6.38 -2.97,2.89 -4.45,6.66 -4.45,11.31 z m 14.59,0 c 0,-4.22 1.55,-7.76 4.66,-10.63 3.1,-2.87 6.76,-4.31 10.98,-4.31 3.87,0 7.38,0.97 10.55,2.9 3.16,1.93 5.68,4.57 7.56,7.91 1.87,3.34 2.81,6.85 2.81,10.52 v 18.75 c -5.43,0 -11,-0.9 -16.73,-2.7 -5.72,-1.79 -10.46,-4.6 -14.21,-8.41 -3.75,-3.8 -5.62,-8.48 -5.62,-14.03"
         style="fill:#000000;fill-opacity:1;fill-rule:nonzero;stroke:none"
         id="path174" />
      <path
         d="m 3843.33,4935.88 c -7.27,0 -13.87,1.89 -19.78,5.68 -5.92,3.79 -10.58,8.84 -13.97,15.15 -3.4,6.3 -5.1,12.99 -5.1,20.06 0,7.11 1.69,13.92 5.07,20.43 3.38,6.5 8.03,11.69 13.97,15.58 5.94,3.89 12.54,5.83 19.81,5.83 7.03,0 13.43,-1.38 19.22,-4.13 5.77,-2.75 8.66,-7.26 8.66,-13.51 0,-2.34 -0.83,-4.38 -2.51,-6.12 -1.68,-1.74 -3.72,-2.61 -6.1,-2.61 -2.42,0 -4.46,0.87 -6.12,2.61 -1.66,1.74 -2.49,3.78 -2.49,6.12 0,2.11 0.67,3.94 2.02,5.48 1.35,1.55 3.02,2.53 5.01,2.96 -4.18,2.62 -10.02,3.93 -17.52,3.93 -5.74,0 -10.37,-1.91 -13.89,-5.72 -3.51,-3.8 -5.97,-8.52 -7.38,-14.15 -1.41,-5.62 -2.11,-11.19 -2.11,-16.7 0,-5.78 0.87,-11.38 2.61,-16.81 1.74,-5.43 4.52,-9.92 8.35,-13.45 3.83,-3.54 8.65,-5.3 14.47,-5.3 5.66,0 10.49,1.74 14.47,5.21 3.99,3.48 6.72,8.03 8.21,13.65 0,0.71 0.47,1.06 1.4,1.06 h 2.17 c 0.35,0 0.68,-0.16 0.97,-0.47 0.29,-0.31 0.44,-0.68 0.44,-1.11 v -0.53 c -1.8,-7.07 -5.39,-12.7 -10.78,-16.88 -5.39,-4.18 -11.76,-6.26 -19.1,-6.26"
         style="fill:#000000;fill-opacity:1;fill-rule:nonzero;stroke:none"
         id="path176" />
      <path
         d="m 3896.9,4959.55 v 49.68 h -14.94 v 4.63 c 7.85,0 13.62,3.66 17.31,10.99 3.69,7.33 5.54,15.26 5.54,23.82 h 5.15 v -33.11 h 25.43 v -6.33 h -25.43 v -49.33 c 0,-4.96 0.84,-9.32 2.52,-13.07 1.68,-3.75 4.69,-5.62 9.03,-5.62 4.1,0 7.06,1.97 8.88,5.92 1.81,3.94 2.72,8.2 2.72,12.77 v 10.66 h 5.16 v -11.01 c 0,-3.75 -0.69,-7.45 -2.06,-11.1 -1.36,-3.66 -3.39,-6.66 -6.09,-9.03 -2.69,-2.37 -5.98,-3.54 -9.84,-3.54 -7.23,0 -12.93,2.15 -17.11,6.47 -4.18,4.31 -6.27,10.05 -6.27,17.2"
         style="fill:#000000;fill-opacity:1;fill-rule:nonzero;stroke:none"
         id="path178" />
      <path
         d="m 3954.07,4937.93 v 6.32 c 4.1,0 7.47,0.33 10.11,0.97 2.63,0.64 3.95,2.24 3.95,4.78 v 49.1 c 0,4.65 -0.9,7.5 -2.7,8.55 -1.79,1.06 -5.33,1.58 -10.6,1.58 v 6.33 l 25.96,1.94 V 4950 c 0,-2.54 1.14,-4.14 3.42,-4.78 2.29,-0.64 5.33,-0.97 9.12,-0.97 v -6.32 z m 7.61,110.5 c 0,2.62 1,4.93 2.99,6.92 1.99,1.99 4.28,2.99 6.86,2.99 1.72,0 3.37,-0.44 4.95,-1.32 1.58,-0.88 2.81,-2.11 3.69,-3.69 0.88,-1.58 1.32,-3.22 1.32,-4.9 0,-2.57 -1,-4.86 -2.99,-6.85 -1.99,-1.99 -4.32,-2.99 -6.97,-2.99 -2.58,0 -4.87,1 -6.86,2.99 -1.99,1.99 -2.99,4.28 -2.99,6.85"
         style="fill:#000000;fill-opacity:1;fill-rule:nonzero;stroke:none"
         id="path180" />
      <path
         d="m 4042.45,4937.93 -26.25,66.09 c -1.14,2.23 -2.86,3.65 -5.16,4.28 -2.3,0.62 -5.33,0.93 -9.08,0.93 v 6.33 h 37.79 v -6.33 c -6.76,0 -10.14,-1.44 -10.14,-4.33 0,-0.47 0.07,-0.82 0.18,-1.06 l 20.21,-50.8 18.23,45.88 c 0.35,0.94 0.52,1.92 0.52,2.93 0,2.27 -0.86,4.06 -2.6,5.39 -1.74,1.33 -3.78,1.99 -6.13,1.99 v 6.33 h 29.89 v -6.33 c -3.68,0 -6.91,-0.84 -9.7,-2.55 -2.79,-1.7 -4.95,-4.22 -6.48,-7.58 l -24.25,-61.17 c -0.47,-1.37 -1.43,-2.05 -2.87,-2.05 h -1.35 c -1.45,0 -2.38,0.68 -2.81,2.05"
         style="fill:#000000;fill-opacity:1;fill-rule:nonzero;stroke:none"
         id="path182" />
      <path
         d="m 4133.32,4935.88 c -7.3,0 -14.02,1.92 -20.15,5.76 -6.13,3.85 -10.94,8.99 -14.42,15.42 -3.47,6.42 -5.21,13.21 -5.21,20.36 0,7.03 1.59,13.71 4.78,20.04 3.18,6.33 7.63,11.43 13.36,15.32 5.72,3.89 12.09,5.83 19.12,5.83 5.51,0 10.3,-0.92 14.36,-2.75 4.06,-1.84 7.41,-4.4 10.05,-7.68 2.64,-3.28 4.63,-7.15 5.98,-11.6 1.35,-4.45 2.02,-9.36 2.02,-14.71 0,-1.56 -0.61,-2.34 -1.82,-2.34 h -52.15 v -1.94 c 0,-9.96 2.01,-18.51 6.04,-25.66 4.02,-7.15 10.56,-10.72 19.63,-10.72 3.71,0 7.13,0.82 10.25,2.46 3.13,1.64 5.85,3.92 8.18,6.85 2.32,2.93 3.89,6.06 4.71,9.38 0.12,0.43 0.34,0.8 0.65,1.11 0.31,0.31 0.68,0.47 1.11,0.47 h 1.58 c 1.21,0 1.82,-0.76 1.82,-2.28 -1.68,-6.8 -5.33,-12.39 -10.96,-16.76 -5.62,-4.38 -11.93,-6.56 -18.93,-6.56 z m -23.9,48.1 h 41.07 c 0,4.53 -0.63,9.11 -1.9,13.74 -1.27,4.63 -3.37,8.48 -6.3,11.55 -2.93,3.06 -6.76,4.59 -11.49,4.59 -6.79,0 -12.06,-3.17 -15.78,-9.52 -3.73,-6.35 -5.6,-13.13 -5.6,-20.36"
         style="fill:#000000;fill-opacity:1;fill-rule:nonzero;stroke:none"
         id="path184" />
      <path
         d="m 4233.19,4937.93 v 6.32 c 12.93,0 19.39,1.92 19.39,5.75 v 98.84 c 0,3.83 -6.46,5.75 -19.39,5.75 v 6.32 h 55.6 v -6.32 c -12.92,0 -19.39,-1.92 -19.39,-5.75 V 4950 c 0,-3.83 6.47,-5.75 19.39,-5.75 v -6.32 h -55.6"
         style="fill:#000000;fill-opacity:1;fill-rule:nonzero;stroke:none"
         id="path186" />
      <path
         d="m 4338.5,4935.88 c -7.18,0 -13.86,1.83 -20.01,5.5 -6.15,3.67 -11.01,8.59 -14.59,14.74 -3.57,6.15 -5.36,12.86 -5.36,20.13 0,5.5 0.98,10.8 2.93,15.9 1.96,5.1 4.77,9.66 8.44,13.69 3.67,4.02 7.94,7.15 12.8,9.4 4.86,2.25 10.13,3.37 15.79,3.37 7.39,0 14.11,-1.94 20.18,-5.83 6.08,-3.89 10.87,-9.1 14.39,-15.65 3.52,-6.54 5.28,-13.5 5.28,-20.88 0,-7.19 -1.79,-13.88 -5.37,-20.07 -3.57,-6.19 -8.43,-11.13 -14.56,-14.8 -6.13,-3.67 -12.77,-5.5 -19.92,-5.5 z m 0,5.33 c 9.61,0 16.02,3.48 19.25,10.45 3.22,6.98 4.83,15.86 4.83,26.64 0,6.01 -0.32,11 -0.96,14.97 -0.65,3.96 -2.05,7.55 -4.19,10.75 -1.37,1.99 -3.09,3.74 -5.16,5.25 -2.07,1.5 -4.27,2.64 -6.59,3.42 -2.32,0.78 -4.72,1.17 -7.18,1.17 -3.75,0 -7.3,-0.85 -10.66,-2.55 -3.36,-1.69 -6.16,-4.13 -8.38,-7.29 -2.23,-3.4 -3.66,-7.13 -4.28,-11.19 -0.63,-4.06 -0.94,-8.91 -0.94,-14.53 0,-6.76 0.59,-12.82 1.76,-18.17 1.17,-5.35 3.54,-9.84 7.09,-13.47 3.55,-3.64 8.69,-5.45 15.41,-5.45"
         style="fill:#000000;fill-opacity:1;fill-rule:nonzero;stroke:none"
         id="path188" />
      <path
         d="m 4413.91,4937.93 v 6.32 c 6.05,0 11.93,0.35 17.61,1.03 5.68,0.68 8.53,2.26 8.53,4.72 v 98.84 c 0,2.58 -0.73,4.18 -2.17,4.81 -1.45,0.62 -3.77,0.94 -6.98,0.94 h -7.55 c -9.92,0 -16.96,-2.17 -21.1,-6.51 -2.18,-2.19 -3.75,-5.66 -4.68,-10.43 -0.94,-4.76 -1.72,-10.76 -2.35,-17.99 H 4390 l 3.46,41.25 h 109.92 l 3.46,-41.25 h -5.27 c -0.71,7.74 -1.48,13.88 -2.35,18.43 -0.86,4.55 -2.4,7.88 -4.62,9.99 -4.22,4.34 -11.26,6.51 -21.1,6.51 h -7.56 c -2.14,0 -3.82,-0.09 -5.04,-0.27 -1.21,-0.17 -2.19,-0.69 -2.95,-1.55 -0.77,-0.86 -1.15,-2.17 -1.15,-3.93 V 4950 c 0,-2.46 2.84,-4.04 8.53,-4.72 5.68,-0.68 11.51,-1.03 17.49,-1.03 v -6.32 h -68.91"
         style="fill:#000000;fill-opacity:1;fill-rule:nonzero;stroke:none"
         id="path190" />
      <path
         d="m 4618.32,4935.88 c -7.26,0 -13.85,1.89 -19.77,5.68 -5.92,3.79 -10.58,8.84 -13.98,15.15 -3.39,6.3 -5.09,12.99 -5.09,20.06 0,7.11 1.69,13.92 5.07,20.43 3.38,6.5 8.03,11.69 13.97,15.58 5.94,3.89 12.54,5.83 19.8,5.83 7.04,0 13.44,-1.38 19.22,-4.13 5.78,-2.75 8.67,-7.26 8.67,-13.51 0,-2.34 -0.83,-4.38 -2.51,-6.12 -1.68,-1.74 -3.72,-2.61 -6.1,-2.61 -2.42,0 -4.46,0.87 -6.12,2.61 -1.66,1.74 -2.49,3.78 -2.49,6.12 0,2.11 0.67,3.94 2.02,5.48 1.35,1.55 3.02,2.53 5.01,2.96 -4.18,2.62 -10.02,3.93 -17.52,3.93 -5.74,0 -10.37,-1.91 -13.89,-5.72 -3.51,-3.8 -5.97,-8.52 -7.38,-14.15 -1.41,-5.62 -2.11,-11.19 -2.11,-16.7 0,-5.78 0.87,-11.38 2.61,-16.81 1.74,-5.43 4.52,-9.92 8.35,-13.45 3.83,-3.54 8.65,-5.3 14.47,-5.3 5.66,0 10.49,1.74 14.48,5.21 3.98,3.48 6.71,8.03 8.2,13.65 0,0.71 0.47,1.06 1.4,1.06 h 2.17 c 0.35,0 0.68,-0.16 0.97,-0.47 0.29,-0.31 0.44,-0.68 0.44,-1.11 v -0.53 c -1.8,-7.07 -5.39,-12.7 -10.78,-16.88 -5.39,-4.18 -11.76,-6.26 -19.11,-6.26"
         style="fill:#000000;fill-opacity:1;fill-rule:nonzero;stroke:none"
         id="path192" />
      <path
         d="m 4698.5,4935.88 c -7.18,0 -13.86,1.83 -20.01,5.5 -6.15,3.67 -11.01,8.59 -14.59,14.74 -3.57,6.15 -5.36,12.86 -5.36,20.13 0,5.5 0.98,10.8 2.93,15.9 1.96,5.1 4.77,9.66 8.44,13.69 3.67,4.02 7.94,7.15 12.8,9.4 4.86,2.25 10.13,3.37 15.79,3.37 7.39,0 14.11,-1.94 20.18,-5.83 6.08,-3.89 10.87,-9.1 14.39,-15.65 3.52,-6.54 5.28,-13.5 5.28,-20.88 0,-7.19 -1.79,-13.88 -5.37,-20.07 -3.57,-6.19 -8.43,-11.13 -14.56,-14.8 -6.13,-3.67 -12.77,-5.5 -19.92,-5.5 z m 0,5.33 c 9.61,0 16.02,3.48 19.25,10.45 3.22,6.98 4.84,15.86 4.84,26.64 0,6.01 -0.33,11 -0.97,14.97 -0.65,3.96 -2.04,7.55 -4.19,10.75 -1.37,1.99 -3.09,3.74 -5.16,5.25 -2.07,1.5 -4.27,2.64 -6.59,3.42 -2.32,0.78 -4.72,1.17 -7.18,1.17 -3.75,0 -7.3,-0.85 -10.66,-2.55 -3.36,-1.69 -6.16,-4.13 -8.38,-7.29 -2.23,-3.4 -3.66,-7.13 -4.28,-11.19 -0.63,-4.06 -0.94,-8.91 -0.94,-14.53 0,-6.76 0.59,-12.82 1.76,-18.17 1.17,-5.35 3.54,-9.84 7.09,-13.47 3.55,-3.64 8.69,-5.45 15.41,-5.45"
         style="fill:#000000;fill-opacity:1;fill-rule:nonzero;stroke:none"
         id="path194" />
      <path
         d="m 4748.89,4937.93 v 6.32 c 4.1,0 7.47,0.33 10.11,0.97 2.64,0.64 3.95,2.24 3.95,4.78 v 49.1 c 0,3.24 -0.49,5.58 -1.46,7 -0.97,1.42 -2.37,2.3 -4.19,2.64 -1.82,0.33 -4.62,0.49 -8.41,0.49 v 6.33 l 26.07,1.94 v -17.58 c 2.43,5.15 5.99,9.37 10.7,12.65 4.71,3.29 9.86,4.93 15.44,4.93 8.32,0 14.57,-2 18.75,-5.98 4.18,-3.98 6.27,-10.08 6.27,-18.28 V 4950 c 0,-2.54 1.32,-4.14 3.95,-4.78 2.64,-0.64 6.01,-0.97 10.11,-0.97 v -6.32 h -41.19 v 6.32 c 4.1,0 7.47,0.33 10.11,0.97 2.63,0.64 3.95,2.24 3.95,4.78 v 42.71 c 0,5.86 -0.85,10.67 -2.55,14.44 -1.7,3.78 -5.18,5.66 -10.45,5.66 -7,0 -12.73,-2.79 -17.2,-8.35 -4.47,-5.57 -6.71,-11.89 -6.71,-18.96 V 4950 c 0,-2.54 1.32,-4.14 3.95,-4.78 2.64,-0.64 5.97,-0.97 10,-0.97 v -6.32 h -41.2"
         style="fill:#000000;fill-opacity:1;fill-rule:nonzero;stroke:none"
         id="path196" />
      <path
         d="m 4848.89,4937.93 v 6.32 c 4.11,0 7.47,0.33 10.11,0.97 2.64,0.64 3.96,2.24 3.96,4.78 v 49.1 c 0,3.24 -0.5,5.58 -1.47,7 -0.97,1.42 -2.37,2.3 -4.19,2.64 -1.82,0.33 -4.62,0.49 -8.41,0.49 v 6.33 l 26.07,1.94 v -17.58 c 2.43,5.15 5.99,9.37 10.7,12.65 4.71,3.29 9.85,4.93 15.44,4.93 8.32,0 14.57,-2 18.75,-5.98 4.18,-3.98 6.27,-10.08 6.27,-18.28 V 4950 c 0,-2.54 1.32,-4.14 3.95,-4.78 2.64,-0.64 6.01,-0.97 10.11,-0.97 v -6.32 h -41.19 v 6.32 c 4.1,0 7.47,0.33 10.11,0.97 2.63,0.64 3.95,2.24 3.95,4.78 v 42.71 c 0,5.86 -0.85,10.67 -2.55,14.44 -1.7,3.78 -5.18,5.66 -10.45,5.66 -7,0 -12.73,-2.79 -17.2,-8.35 -4.47,-5.57 -6.71,-11.89 -6.71,-18.96 V 4950 c 0,-2.54 1.32,-4.14 3.95,-4.78 2.64,-0.64 5.97,-0.97 9.99,-0.97 v -6.32 h -41.19"
         style="fill:#000000;fill-opacity:1;fill-rule:nonzero;stroke:none"
         id="path198" />
      <path
         d="m 4988.32,4935.88 c -7.3,0 -14.02,1.92 -20.15,5.76 -6.13,3.85 -10.94,8.99 -14.41,15.42 -3.48,6.42 -5.22,13.21 -5.22,20.36 0,7.03 1.59,13.71 4.78,20.04 3.18,6.33 7.63,11.43 13.36,15.32 5.72,3.89 12.09,5.83 19.12,5.83 5.52,0 10.3,-0.92 14.36,-2.75 4.07,-1.84 7.41,-4.4 10.05,-7.68 2.64,-3.28 4.63,-7.15 5.98,-11.6 1.35,-4.45 2.02,-9.36 2.02,-14.71 0,-1.56 -0.6,-2.34 -1.82,-2.34 h -52.15 v -1.94 c 0,-9.96 2.01,-18.51 6.04,-25.66 4.02,-7.15 10.56,-10.72 19.63,-10.72 3.71,0 7.13,0.82 10.25,2.46 3.13,1.64 5.85,3.92 8.18,6.85 2.32,2.93 3.89,6.06 4.71,9.38 0.12,0.43 0.34,0.8 0.65,1.11 0.31,0.31 0.68,0.47 1.11,0.47 h 1.58 c 1.22,0 1.82,-0.76 1.82,-2.28 -1.68,-6.8 -5.33,-12.39 -10.96,-16.76 -5.62,-4.38 -11.93,-6.56 -18.93,-6.56 z m -23.9,48.1 h 41.07 c 0,4.53 -0.63,9.11 -1.9,13.74 -1.27,4.63 -3.37,8.48 -6.3,11.55 -2.93,3.06 -6.76,4.59 -11.49,4.59 -6.79,0 -12.05,-3.17 -15.78,-9.52 -3.73,-6.35 -5.6,-13.13 -5.6,-20.36"
         style="fill:#000000;fill-opacity:1;fill-rule:nonzero;stroke:none"
         id="path200" />
      <path
         d="m 5068.33,4935.88 c -7.27,0 -13.86,1.89 -19.78,5.68 -5.92,3.79 -10.57,8.84 -13.97,15.15 -3.4,6.3 -5.1,12.99 -5.1,20.06 0,7.11 1.69,13.92 5.07,20.43 3.38,6.5 8.03,11.69 13.97,15.58 5.94,3.89 12.54,5.83 19.81,5.83 7.03,0 13.44,-1.38 19.22,-4.13 5.78,-2.75 8.66,-7.26 8.66,-13.51 0,-2.34 -0.83,-4.38 -2.51,-6.12 -1.68,-1.74 -3.72,-2.61 -6.1,-2.61 -2.42,0 -4.46,0.87 -6.12,2.61 -1.66,1.74 -2.49,3.78 -2.49,6.12 0,2.11 0.67,3.94 2.03,5.48 1.34,1.55 3.01,2.53 5,2.96 -4.18,2.62 -10.02,3.93 -17.52,3.93 -5.74,0 -10.37,-1.91 -13.89,-5.72 -3.51,-3.8 -5.97,-8.52 -7.38,-14.15 -1.4,-5.62 -2.11,-11.19 -2.11,-16.7 0,-5.78 0.87,-11.38 2.61,-16.81 1.74,-5.43 4.52,-9.92 8.35,-13.45 3.83,-3.54 8.65,-5.3 14.47,-5.3 5.66,0 10.49,1.74 14.48,5.21 3.98,3.48 6.72,8.03 8.2,13.65 0,0.71 0.47,1.06 1.4,1.06 h 2.17 c 0.35,0 0.68,-0.16 0.97,-0.47 0.29,-0.31 0.44,-0.68 0.44,-1.11 v -0.53 c -1.8,-7.07 -5.39,-12.7 -10.78,-16.88 -5.39,-4.18 -11.76,-6.26 -19.1,-6.26"
         style="fill:#000000;fill-opacity:1;fill-rule:nonzero;stroke:none"
         id="path202" />
      <path
         d="m 5121.9,4959.55 v 49.68 h -14.94 v 4.63 c 7.85,0 13.62,3.66 17.31,10.99 3.69,7.33 5.54,15.26 5.54,23.82 h 5.16 v -33.11 h 25.43 v -6.33 h -25.43 v -49.33 c 0,-4.96 0.84,-9.32 2.51,-13.07 1.68,-3.75 4.7,-5.62 9.03,-5.62 4.1,0 7.06,1.97 8.88,5.92 1.81,3.94 2.72,8.2 2.72,12.77 v 10.66 h 5.16 v -11.01 c 0,-3.75 -0.68,-7.45 -2.05,-11.1 -1.37,-3.66 -3.4,-6.66 -6.09,-9.03 -2.7,-2.37 -5.98,-3.54 -9.85,-3.54 -7.23,0 -12.93,2.15 -17.11,6.47 -4.18,4.31 -6.27,10.05 -6.27,17.2"
         style="fill:#000000;fill-opacity:1;fill-rule:nonzero;stroke:none"
         id="path204" />
      <path
         d="m 5179.07,4937.93 v 6.32 c 4.1,0 7.47,0.33 10.11,0.97 2.63,0.64 3.95,2.24 3.95,4.78 v 49.1 c 0,4.65 -0.9,7.5 -2.7,8.55 -1.79,1.06 -5.33,1.58 -10.6,1.58 v 6.33 l 25.96,1.94 V 4950 c 0,-2.54 1.14,-4.14 3.42,-4.78 2.29,-0.64 5.33,-0.97 9.12,-0.97 v -6.32 z m 7.61,110.5 c 0,2.62 1,4.93 3,6.92 1.99,1.99 4.27,2.99 6.85,2.99 1.72,0 3.37,-0.44 4.95,-1.32 1.58,-0.88 2.81,-2.11 3.69,-3.69 0.88,-1.58 1.32,-3.22 1.32,-4.9 0,-2.57 -1,-4.86 -2.99,-6.85 -1.99,-1.99 -4.31,-2.99 -6.97,-2.99 -2.58,0 -4.86,1 -6.85,2.99 -2,1.99 -3,4.28 -3,6.85"
         style="fill:#000000;fill-opacity:1;fill-rule:nonzero;stroke:none"
         id="path206" />
      <path
         d="m 5268.5,4935.88 c -7.18,0 -13.86,1.83 -20.01,5.5 -6.15,3.67 -11.01,8.59 -14.59,14.74 -3.57,6.15 -5.36,12.86 -5.36,20.13 0,5.5 0.98,10.8 2.93,15.9 1.96,5.1 4.77,9.66 8.44,13.69 3.67,4.02 7.94,7.15 12.8,9.4 4.86,2.25 10.13,3.37 15.79,3.37 7.39,0 14.11,-1.94 20.19,-5.83 6.07,-3.89 10.86,-9.1 14.38,-15.65 3.52,-6.54 5.28,-13.5 5.28,-20.88 0,-7.19 -1.79,-13.88 -5.37,-20.07 -3.57,-6.19 -8.42,-11.13 -14.56,-14.8 -6.13,-3.67 -12.77,-5.5 -19.92,-5.5 z m 0,5.33 c 9.61,0 16.03,3.48 19.25,10.45 3.22,6.98 4.84,15.86 4.84,26.64 0,6.01 -0.33,11 -0.97,14.97 -0.65,3.96 -2.04,7.55 -4.19,10.75 -1.37,1.99 -3.09,3.74 -5.16,5.25 -2.07,1.5 -4.27,2.64 -6.59,3.42 -2.32,0.78 -4.72,1.17 -7.18,1.17 -3.75,0 -7.3,-0.85 -10.66,-2.55 -3.36,-1.69 -6.16,-4.13 -8.38,-7.29 -2.23,-3.4 -3.66,-7.13 -4.28,-11.19 -0.63,-4.06 -0.94,-8.91 -0.94,-14.53 0,-6.76 0.59,-12.82 1.76,-18.17 1.18,-5.35 3.54,-9.84 7.09,-13.47 3.56,-3.64 8.69,-5.45 15.41,-5.45"
         style="fill:#000000;fill-opacity:1;fill-rule:nonzero;stroke:none"
         id="path208" />
      <path
         d="m 5318.89,4937.93 v 6.32 c 4.11,0 7.47,0.33 10.11,0.97 2.64,0.64 3.96,2.24 3.96,4.78 v 49.1 c 0,3.24 -0.49,5.58 -1.47,7 -0.97,1.42 -2.37,2.3 -4.19,2.64 -1.82,0.33 -4.62,0.49 -8.41,0.49 v 6.33 l 26.08,1.94 v -17.58 c 2.42,5.15 5.98,9.37 10.69,12.65 4.71,3.29 9.86,4.93 15.44,4.93 8.32,0 14.57,-2 18.75,-5.98 4.18,-3.98 6.27,-10.08 6.27,-18.28 V 4950 c 0,-2.54 1.32,-4.14 3.95,-4.78 2.64,-0.64 6.01,-0.97 10.11,-0.97 v -6.32 h -41.19 v 6.32 c 4.1,0 7.47,0.33 10.11,0.97 2.63,0.64 3.95,2.24 3.95,4.78 v 42.71 c 0,5.86 -0.85,10.67 -2.55,14.44 -1.69,3.78 -5.18,5.66 -10.45,5.66 -7,0 -12.73,-2.79 -17.2,-8.35 -4.47,-5.57 -6.71,-11.89 -6.71,-18.96 V 4950 c 0,-2.54 1.32,-4.14 3.95,-4.78 2.64,-0.64 5.97,-0.97 10,-0.97 v -6.32 h -41.2"
         style="fill:#000000;fill-opacity:1;fill-rule:nonzero;stroke:none"
         id="path210" />
      <path
         d="m 5419.48,4937.4 v 29.35 c 0,0.94 0.53,1.41 1.58,1.41 h 2.23 c 0.7,0 1.17,-0.47 1.41,-1.41 3.32,-17.38 11.4,-26.07 24.25,-26.07 5.67,0 10.43,1.29 14.27,3.87 3.85,2.58 5.77,6.56 5.77,11.95 0,3.87 -1.49,7.16 -4.48,9.87 -2.99,2.72 -6.53,4.58 -10.64,5.6 l -12.07,2.34 c -4.02,0.9 -7.69,2.26 -11.01,4.07 -3.32,1.82 -6.04,4.23 -8.15,7.24 -2.1,3.01 -3.16,6.51 -3.16,10.49 0,5.27 1.4,9.6 4.19,12.98 2.79,3.37 6.42,5.81 10.87,7.29 4.45,1.49 9.26,2.23 14.41,2.23 6.14,0 11.49,-1.64 16.06,-4.92 l 5.21,4.51 c 0,0.27 0.3,0.41 0.88,0.41 h 1.29 c 0.35,0 0.68,-0.16 0.97,-0.47 0.29,-0.31 0.44,-0.64 0.44,-1 v -23.55 c 0,-1.13 -0.47,-1.7 -1.41,-1.7 h -2.17 c -1.05,0 -1.58,0.57 -1.58,1.7 0,6.25 -1.75,11.28 -5.24,15.09 -3.5,3.81 -8.37,5.71 -14.62,5.71 -5.39,0 -10.07,-1 -14.04,-2.99 -3.96,-1.99 -5.94,-5.41 -5.94,-10.25 0,-3.36 1.42,-6.1 4.27,-8.24 2.86,-2.12 6.18,-3.66 9.97,-4.59 l 12.24,-2.29 c 4.1,-0.94 7.92,-2.52 11.45,-4.74 3.54,-2.23 6.35,-5.04 8.44,-8.44 2.09,-3.4 3.14,-7.25 3.14,-11.55 0,-4.33 -0.76,-8.09 -2.26,-11.27 -1.5,-3.19 -3.58,-5.83 -6.24,-7.94 -2.65,-2.11 -5.8,-3.68 -9.43,-4.69 -3.63,-1.02 -7.44,-1.52 -11.43,-1.52 -7.5,0 -13.92,2.53 -19.27,7.61 l -6.57,-7.15 c 0,-0.31 -0.33,-0.46 -0.99,-0.46 h -1.06 c -1.05,0 -1.58,0.5 -1.58,1.52"
         style="fill:#000000;fill-opacity:1;fill-rule:nonzero;stroke:none"
         id="path212" />
      <path
         d="M 975.031,577.5 H 6787.47"
         style="fill:none;stroke:#262626;stroke-width:4.99875;stroke-linecap:butt;stroke-linejoin:round;stroke-miterlimit:10;stroke-dasharray:none;stroke-opacity:1"
         id="path214" />
      <path
         d="M 1964.38,1604.4 H 1469.669 V 577.5 h 494.711 z m 618.35,285.25 H 2088.023 V 577.5 h 494.707 z m 618.35,427.88 H 2706.369 V 577.5 h 494.711 z m 618.35,541.97 H 3324.719 V 577.5 H 3819.43 Z M 4437.78,3430 H 3943.069 V 577.5 h 494.711 z m 618.35,370.82 H 4561.419 V 577.5 h 494.711 z m 618.35,256.73 H 5179.769 V 577.5 h 494.711 z m 618.35,627.55 H 5798.119 V 577.5 h 494.711 z"
         style="fill:#edb120;fill-opacity:1;fill-rule:nonzero;stroke:none"
         id="path216" />
      <path
         d="m 1469.67,577.5 h 494.711 V 1604.4 H 1469.67 Z"
         style="fill:none;stroke:#000000;stroke-width:4.99875;stroke-linecap:butt;stroke-linejoin:miter;stroke-miterlimit:10;stroke-dasharray:none;stroke-opacity:1"
         id="path218" />
      <path
         d="m 2088.02,577.5 h 494.707 V 1889.65 H 2088.02 Z"
         style="fill:none;stroke:#000000;stroke-width:4.99875;stroke-linecap:butt;stroke-linejoin:miter;stroke-miterlimit:10;stroke-dasharray:none;stroke-opacity:1"
         id="path220" />
      <path
         d="m 2706.37,577.5 h 494.711 V 2317.53 H 2706.37 Z"
         style="fill:none;stroke:#000000;stroke-width:4.99875;stroke-linecap:butt;stroke-linejoin:miter;stroke-miterlimit:10;stroke-dasharray:none;stroke-opacity:1"
         id="path222" />
      <path
         d="m 3324.72,577.5 h 494.711 v 2282 H 3324.72 Z"
         style="fill:none;stroke:#000000;stroke-width:4.99875;stroke-linecap:butt;stroke-linejoin:miter;stroke-miterlimit:10;stroke-dasharray:none;stroke-opacity:1"
         id="path224" />
      <path
         d="m 3943.07,577.5 h 494.711 V 3430 H 3943.07 Z"
         style="fill:none;stroke:#000000;stroke-width:4.99875;stroke-linecap:butt;stroke-linejoin:miter;stroke-miterlimit:10;stroke-dasharray:none;stroke-opacity:1"
         id="path226" />
      <path
         d="m 4561.42,577.5 h 494.711 V 3800.82 H 4561.42 Z"
         style="fill:none;stroke:#000000;stroke-width:4.99875;stroke-linecap:butt;stroke-linejoin:miter;stroke-miterlimit:10;stroke-dasharray:none;stroke-opacity:1"
         id="path228" />
      <path
         d="m 5179.77,577.5 h 494.711 V 4057.55 H 5179.77 Z"
         style="fill:none;stroke:#000000;stroke-width:4.99875;stroke-linecap:butt;stroke-linejoin:miter;stroke-miterlimit:10;stroke-dasharray:none;stroke-opacity:1"
         id="path230" />
      <path
         d="m 5798.12,577.5 h 494.711 V 4685.1 H 5798.12 Z"
         style="fill:none;stroke:#000000;stroke-width:4.99875;stroke-linecap:butt;stroke-linejoin:miter;stroke-miterlimit:10;stroke-dasharray:none;stroke-opacity:1"
         id="path232" />
      <path
         d="M 975.031,577.5 H 6787.47"
         style="fill:none;stroke:#262626;stroke-width:4.99875;stroke-linecap:square;stroke-linejoin:round;stroke-miterlimit:10;stroke-dasharray:none;stroke-opacity:1"
         id="path234" />
      <path
         d="M 975.031,4856.25 H 6787.47"
         style="fill:none;stroke:#262626;stroke-width:4.99875;stroke-linecap:square;stroke-linejoin:round;stroke-miterlimit:10;stroke-dasharray:none;stroke-opacity:1"
         id="path236" />
      <path
         d="m 1717.02,577.5 v 58.125"
         style="fill:none;stroke:#262626;stroke-width:4.99875;stroke-linecap:square;stroke-linejoin:round;stroke-miterlimit:10;stroke-dasharray:none;stroke-opacity:1"
         id="path238" />
      <path
         d="m 2335.37,577.5 v 58.125"
         style="fill:none;stroke:#262626;stroke-width:4.99875;stroke-linecap:square;stroke-linejoin:round;stroke-miterlimit:10;stroke-dasharray:none;stroke-opacity:1"
         id="path240" />
      <path
         d="m 2953.73,577.5 v 58.125"
         style="fill:none;stroke:#262626;stroke-width:4.99875;stroke-linecap:square;stroke-linejoin:round;stroke-miterlimit:10;stroke-dasharray:none;stroke-opacity:1"
         id="path242" />
      <path
         d="m 3572.07,577.5 v 58.125"
         style="fill:none;stroke:#262626;stroke-width:4.99875;stroke-linecap:square;stroke-linejoin:round;stroke-miterlimit:10;stroke-dasharray:none;stroke-opacity:1"
         id="path244" />
      <path
         d="m 4190.43,577.5 v 58.125"
         style="fill:none;stroke:#262626;stroke-width:4.99875;stroke-linecap:square;stroke-linejoin:round;stroke-miterlimit:10;stroke-dasharray:none;stroke-opacity:1"
         id="path246" />
      <path
         d="m 4808.77,577.5 v 58.125"
         style="fill:none;stroke:#262626;stroke-width:4.99875;stroke-linecap:square;stroke-linejoin:round;stroke-miterlimit:10;stroke-dasharray:none;stroke-opacity:1"
         id="path248" />
      <path
         d="m 5427.13,577.5 v 58.125"
         style="fill:none;stroke:#262626;stroke-width:4.99875;stroke-linecap:square;stroke-linejoin:round;stroke-miterlimit:10;stroke-dasharray:none;stroke-opacity:1"
         id="path250" />
      <path
         d="m 6045.48,577.5 v 58.125"
         style="fill:none;stroke:#262626;stroke-width:4.99875;stroke-linecap:square;stroke-linejoin:round;stroke-miterlimit:10;stroke-dasharray:none;stroke-opacity:1"
         id="path252" />
      <path
         d="m 1717.02,4856.25 v -58.12"
         style="fill:none;stroke:#262626;stroke-width:4.99875;stroke-linecap:square;stroke-linejoin:round;stroke-miterlimit:10;stroke-dasharray:none;stroke-opacity:1"
         id="path254" />
      <path
         d="m 2335.37,4856.25 v -58.12"
         style="fill:none;stroke:#262626;stroke-width:4.99875;stroke-linecap:square;stroke-linejoin:round;stroke-miterlimit:10;stroke-dasharray:none;stroke-opacity:1"
         id="path256" />
      <path
         d="m 2953.73,4856.25 v -58.12"
         style="fill:none;stroke:#262626;stroke-width:4.99875;stroke-linecap:square;stroke-linejoin:round;stroke-miterlimit:10;stroke-dasharray:none;stroke-opacity:1"
         id="path258" />
      <path
         d="m 3572.07,4856.25 v -58.12"
         style="fill:none;stroke:#262626;stroke-width:4.99875;stroke-linecap:square;stroke-linejoin:round;stroke-miterlimit:10;stroke-dasharray:none;stroke-opacity:1"
         id="path260" />
      <path
         d="m 4190.43,4856.25 v -58.12"
         style="fill:none;stroke:#262626;stroke-width:4.99875;stroke-linecap:square;stroke-linejoin:round;stroke-miterlimit:10;stroke-dasharray:none;stroke-opacity:1"
         id="path262" />
      <path
         d="m 4808.77,4856.25 v -58.12"
         style="fill:none;stroke:#262626;stroke-width:4.99875;stroke-linecap:square;stroke-linejoin:round;stroke-miterlimit:10;stroke-dasharray:none;stroke-opacity:1"
         id="path264" />
      <path
         d="m 5427.13,4856.25 v -58.12"
         style="fill:none;stroke:#262626;stroke-width:4.99875;stroke-linecap:square;stroke-linejoin:round;stroke-miterlimit:10;stroke-dasharray:none;stroke-opacity:1"
         id="path266" />
      <path
         d="m 6045.48,4856.25 v -58.12"
         style="fill:none;stroke:#262626;stroke-width:4.99875;stroke-linecap:square;stroke-linejoin:round;stroke-miterlimit:10;stroke-dasharray:none;stroke-opacity:1"
         id="path268" />
      <g
         id="g270"
         transform="scale(10)">
        <text
           xml:space="preserve"
           transform="matrix(1,0,0,-1,160.452,43.625)"
           style="font-variant:normal;font-weight:normal;font-size:10.0001px;font-family:Helvetica;-inkscape-font-specification:Helvetica;writing-mode:lr-tb;fill:#262626;fill-opacity:1;fill-rule:nonzero;stroke:none"
           id="text274"><tspan
             x="0 5.5600557 11.120111 16.680166 61.835018 67.395073 72.955132 78.515182 123.67004 129.23009 134.79015 140.3502 185.50505 191.06511 196.62517 202.18523 247.34007 252.90013 258.46017 264.02023 309.17508 314.73514 320.2952 325.85526 371.0101 376.57016 382.13022 387.69028 432.84512 438.40518 443.96524 449.5253"
             y="0"
             sodipodi:role="line"
             id="tspan272">20152016201720182019202020212022</tspan></text>
      </g>
      <path
         d="m 3774.01,311.352 v 3.808 c 7.46,0 11.2,1.153 11.2,3.457 v 22.442 l -22.86,37.5 c -1.05,1.445 -2.54,2.351 -4.45,2.726 -1.92,0.367 -4.34,0.555 -7.27,0.555 v 3.808 h 30.65 v -3.808 c -5.08,0 -7.62,-0.84 -7.62,-2.52 0,-0.156 0.08,-0.429 0.23,-0.824 l 19.63,-32.457 17.94,29.469 c 0.46,0.664 0.7,1.39 0.7,2.172 0,1.445 -0.63,2.5 -1.88,3.16 -1.25,0.668 -2.65,1 -4.22,1 v 3.808 h 23.56 v -3.808 c -2.82,0 -5.43,-0.508 -7.85,-1.524 -2.43,-1.019 -4.34,-2.582 -5.75,-4.687 l -21.03,-34.57 v -22.442 c 0,-2.304 3.73,-3.457 11.19,-3.457 v -3.808 h -32.17"
         style="fill:#262626;fill-opacity:1;fill-rule:nonzero;stroke:none"
         id="path276" />
      <path
         d="m 3849.8,310.121 c -4.41,0 -8.46,1.16 -12.15,3.484 -3.69,2.325 -6.6,5.418 -8.7,9.286 -2.11,3.867 -3.16,7.968 -3.16,12.304 0,4.262 0.95,8.293 2.86,12.102 1.92,3.808 4.6,6.894 8.06,9.258 3.46,2.363 7.32,3.547 11.58,3.547 3.32,0 6.2,-0.559 8.66,-1.672 2.47,-1.114 4.5,-2.668 6.1,-4.657 1.6,-1.992 2.8,-4.328 3.6,-7.003 0.8,-2.676 1.21,-5.637 1.21,-8.879 0,-0.938 -0.38,-1.407 -1.12,-1.407 h -31.47 v -1.168 c 0,-6.019 1.22,-11.183 3.64,-15.5 2.42,-4.316 6.39,-6.476 11.89,-6.476 2.23,0 4.29,0.488 6.18,1.469 1.9,0.976 3.54,2.355 4.93,4.132 1.38,1.774 2.33,3.676 2.84,5.711 0.08,0.235 0.21,0.45 0.41,0.645 0.2,0.195 0.41,0.293 0.64,0.293 h 0.94 c 0.74,0 1.12,-0.469 1.12,-1.406 -1.02,-4.106 -3.23,-7.473 -6.63,-10.11 -3.39,-2.636 -7.2,-3.953 -11.43,-3.953 z m -14.41,29.063 h 24.79 c 0,2.734 -0.38,5.496 -1.14,8.289 -0.77,2.793 -2.04,5.117 -3.81,6.972 -1.78,1.856 -4.1,2.782 -6.94,2.782 -4.11,0 -7.28,-1.922 -9.53,-5.77 -2.24,-3.848 -3.37,-7.941 -3.37,-12.273"
         style="fill:#262626;fill-opacity:1;fill-rule:nonzero;stroke:none"
         id="path278" />
      <path
         d="m 3875.96,322.016 c 0,4.336 1.7,7.847 5.1,10.543 3.4,2.695 7.48,4.601 12.24,5.714 4.77,1.114 9.3,1.672 13.6,1.672 v 4.508 c 0,2.07 -0.46,4.094 -1.38,6.067 -0.92,1.972 -2.25,3.582 -3.98,4.832 -1.74,1.25 -3.66,1.875 -5.77,1.875 -4.81,0 -8.46,-1.075 -10.96,-3.219 1.37,0 2.5,-0.531 3.4,-1.586 0.9,-1.055 1.34,-2.266 1.34,-3.633 0,-1.445 -0.5,-2.684 -1.52,-3.719 -1.01,-1.035 -2.23,-1.554 -3.63,-1.554 -1.49,0 -2.74,0.519 -3.75,1.554 -1.02,1.035 -1.52,2.274 -1.52,3.719 0,3.832 1.72,6.672 5.18,8.527 3.46,1.856 7.28,2.786 11.46,2.786 2.96,0 5.93,-0.625 8.9,-1.875 2.97,-1.25 5.4,-3.047 7.29,-5.391 1.9,-2.344 2.85,-5.078 2.85,-8.203 v -24.492 c 0,-1.411 0.3,-2.707 0.9,-3.899 0.61,-1.191 1.54,-1.789 2.79,-1.789 1.21,0 2.11,0.61 2.7,1.82 0.58,1.211 0.87,2.5 0.87,3.868 v 6.968 h 3.17 v -6.968 c 0,-1.602 -0.42,-3.137 -1.26,-4.602 -0.84,-1.465 -1.98,-2.637 -3.43,-3.516 -1.44,-0.878 -2.99,-1.32 -4.63,-1.32 -2.15,0 -3.98,0.82 -5.51,2.461 -1.52,1.645 -2.38,3.598 -2.57,5.863 -1.33,-2.695 -3.3,-4.855 -5.92,-6.476 -2.62,-1.621 -5.43,-2.43 -8.44,-2.43 -2.73,0 -5.44,0.41 -8.12,1.231 -2.67,0.816 -4.91,2.105 -6.7,3.863 -1.8,1.758 -2.7,4.023 -2.7,6.801 z m 8.85,0 c 0,-2.539 0.94,-4.68 2.81,-6.418 1.88,-1.739 4.08,-2.606 6.62,-2.606 2.35,0 4.47,0.586 6.39,1.754 1.91,1.172 3.44,2.766 4.57,4.777 1.13,2.012 1.7,4.129 1.7,6.36 v 11.308 c -3.32,0 -6.7,-0.539 -10.14,-1.613 -3.44,-1.074 -6.29,-2.765 -8.55,-5.07 -2.27,-2.301 -3.4,-5.133 -3.4,-8.492"
         style="fill:#262626;fill-opacity:1;fill-rule:nonzero;stroke:none"
         id="path280" />
      <path
         d="m 3929.44,311.352 v 3.808 c 2.46,0 4.49,0.195 6.09,0.586 1.6,0.387 2.4,1.348 2.4,2.871 v 29.703 c 0,1.957 -0.29,3.364 -0.88,4.219 -0.58,0.859 -1.42,1.387 -2.51,1.582 -1.1,0.195 -2.8,0.293 -5.1,0.293 v 3.813 l 15.58,1.171 v -10.609 c 1.14,3.164 2.78,5.723 4.96,7.676 2.16,1.957 4.79,2.933 7.88,2.933 2.14,0 4.07,-0.636 5.77,-1.906 1.7,-1.269 2.55,-2.957 2.55,-5.07 0,-1.285 -0.47,-2.418 -1.41,-3.395 -0.94,-0.98 -2.09,-1.468 -3.46,-1.468 -1.36,0 -2.53,0.48 -3.49,1.437 -0.95,0.957 -1.43,2.102 -1.43,3.426 0,1.953 0.7,3.34 2.11,4.164 h -0.64 c -2.93,0 -5.33,-1.066 -7.18,-3.195 -1.86,-2.129 -3.18,-4.766 -3.96,-7.911 -0.78,-3.144 -1.17,-6.14 -1.17,-8.996 v -17.867 c 0,-2.304 3.52,-3.457 10.55,-3.457 v -3.808 h -26.66"
         style="fill:#262626;fill-opacity:1;fill-rule:nonzero;stroke:none"
         id="path282" />
      <path
         d="m 3973.34,311.059 v 17.695 c 0,0.586 0.32,0.879 0.94,0.879 h 1.35 c 0.39,0 0.66,-0.293 0.82,-0.879 2.03,-10.508 6.91,-15.762 14.64,-15.762 3.44,0 6.32,0.781 8.65,2.344 2.32,1.562 3.48,3.965 3.48,7.203 0,2.344 -0.9,4.34 -2.72,5.977 -1.82,1.64 -3.96,2.773 -6.42,3.398 l -7.26,1.406 c -2.46,0.547 -4.69,1.371 -6.68,2.465 -2,1.094 -3.62,2.547 -4.89,4.363 -1.27,1.817 -1.91,3.934 -1.91,6.36 0,3.199 0.84,5.816 2.52,7.851 1.68,2.028 3.86,3.493 6.53,4.395 2.68,0.898 5.58,1.348 8.7,1.348 3.71,0 6.96,-1 9.73,-2.993 l 3.17,2.7 c 0,0.195 0.17,0.293 0.52,0.293 h 0.76 c 0.24,0 0.44,-0.098 0.62,-0.293 0.18,-0.196 0.27,-0.391 0.27,-0.586 v -14.239 c 0,-0.703 -0.3,-1.054 -0.89,-1.054 h -1.28 c -0.67,0 -1,0.351 -1,1.054 0,3.786 -1.06,6.825 -3.17,9.114 -2.11,2.285 -5.05,3.425 -8.84,3.425 -3.24,0 -6.05,-0.597 -8.44,-1.789 -2.38,-1.191 -3.57,-3.254 -3.57,-6.179 0,-2.032 0.86,-3.696 2.57,-4.985 1.73,-1.285 3.74,-2.222 6.04,-2.812 l 7.33,-1.344 c 2.5,-0.586 4.82,-1.555 6.97,-2.902 2.14,-1.348 3.84,-3.047 5.09,-5.098 1.25,-2.051 1.88,-4.363 1.88,-6.941 0,-2.618 -0.45,-4.895 -1.35,-6.828 -0.89,-1.934 -2.16,-3.536 -3.78,-4.805 -1.62,-1.27 -3.52,-2.207 -5.71,-2.813 -2.19,-0.605 -4.49,-0.906 -6.92,-0.906 -4.52,0 -8.39,1.524 -11.6,4.57 l -3.98,-4.277 c 0,-0.195 -0.19,-0.293 -0.58,-0.293 h -0.65 c -0.62,0 -0.94,0.313 -0.94,0.938"
         style="fill:#262626;fill-opacity:1;fill-rule:nonzero;stroke:none"
         id="path284" />
      <path
         d="M 975.031,577.5 V 4856.25"
         style="fill:none;stroke:#262626;stroke-width:4.99875;stroke-linecap:square;stroke-linejoin:round;stroke-miterlimit:10;stroke-dasharray:none;stroke-opacity:1"
         id="path286" />
      <path
         d="M 6787.47,577.5 V 4856.25"
         style="fill:none;stroke:#262626;stroke-width:4.99875;stroke-linecap:square;stroke-linejoin:round;stroke-miterlimit:10;stroke-dasharray:none;stroke-opacity:1"
         id="path288" />
      <path
         d="m 975.031,577.5 h 58.119"
         style="fill:none;stroke:#262626;stroke-width:4.99875;stroke-linecap:square;stroke-linejoin:round;stroke-miterlimit:10;stroke-dasharray:none;stroke-opacity:1"
         id="path290" />
      <path
         d="m 975.031,2003.75 h 58.119"
         style="fill:none;stroke:#262626;stroke-width:4.99875;stroke-linecap:square;stroke-linejoin:round;stroke-miterlimit:10;stroke-dasharray:none;stroke-opacity:1"
         id="path292" />
      <path
         d="m 975.031,3430 h 58.119"
         style="fill:none;stroke:#262626;stroke-width:4.99875;stroke-linecap:square;stroke-linejoin:round;stroke-miterlimit:10;stroke-dasharray:none;stroke-opacity:1"
         id="path294" />
      <path
         d="m 975.031,4856.25 h 58.119"
         style="fill:none;stroke:#262626;stroke-width:4.99875;stroke-linecap:square;stroke-linejoin:round;stroke-miterlimit:10;stroke-dasharray:none;stroke-opacity:1"
         id="path296" />
      <path
         d="m 6787.47,577.5 h -58.12"
         style="fill:none;stroke:#262626;stroke-width:4.99875;stroke-linecap:square;stroke-linejoin:round;stroke-miterlimit:10;stroke-dasharray:none;stroke-opacity:1"
         id="path298" />
      <path
         d="m 6787.47,2003.75 h -58.12"
         style="fill:none;stroke:#262626;stroke-width:4.99875;stroke-linecap:square;stroke-linejoin:round;stroke-miterlimit:10;stroke-dasharray:none;stroke-opacity:1"
         id="path300" />
      <path
         d="m 6787.47,3430 h -58.12"
         style="fill:none;stroke:#262626;stroke-width:4.99875;stroke-linecap:square;stroke-linejoin:round;stroke-miterlimit:10;stroke-dasharray:none;stroke-opacity:1"
         id="path302" />
      <path
         d="m 6787.47,4856.25 h -58.12"
         style="fill:none;stroke:#262626;stroke-width:4.99875;stroke-linecap:square;stroke-linejoin:round;stroke-miterlimit:10;stroke-dasharray:none;stroke-opacity:1"
         id="path304" />
      <g
         id="g306"
         transform="scale(10)">
        <text
           xml:space="preserve"
           transform="matrix(1,0,0,-1,87.8773,53.8125)"
           style="font-variant:normal;font-weight:normal;font-size:10.0001px;font-family:Helvetica;-inkscape-font-specification:Helvetica;writing-mode:lr-tb;fill:#262626;fill-opacity:1;fill-rule:nonzero;stroke:none"
           id="text316"><tspan
             x="0"
             y="0"
             id="tspan308">0</tspan><tspan
             x="0"
             y="-142.625"
             id="tspan310">5</tspan><tspan
             x="-5.625 -0.064944401"
             y="-285.25"
             sodipodi:role="line"
             id="tspan312">10</tspan><tspan
             x="-5.625 -0.064944401"
             y="-427.875"
             sodipodi:role="line"
             id="tspan314">15</tspan></text>
      </g>
      <path
         d="m 752.914,2540.75 h -3.809 c 0,7.5 -1.152,11.25 -3.457,11.25 h -59.765 c -2.305,0 -3.457,-3.75 -3.457,-11.25 h -3.809 v 40.02 c 0,3.67 0.723,7.38 2.168,11.13 1.445,3.75 3.574,6.86 6.387,9.31 2.812,2.47 6.133,3.7 9.961,3.7 4.414,0 8.117,-1.82 11.105,-5.45 2.985,-3.63 4.95,-7.87 5.887,-12.71 0,3.16 0.859,6.4 2.578,9.72 1.719,3.32 4.031,6.05 6.942,8.17 2.91,2.13 5.988,3.2 9.23,3.2 3.984,0 7.5,-1.17 10.547,-3.52 3.047,-2.34 5.391,-5.4 7.031,-9.17 1.641,-3.77 2.461,-7.55 2.461,-11.33 z m -7.266,20.68 c 1.563,0 2.528,0.44 2.903,1.32 0.367,0.88 0.554,2.28 0.554,4.19 v 13.83 c 0,2.81 -0.742,5.44 -2.226,7.88 -1.484,2.44 -3.477,4.36 -5.977,5.77 -2.5,1.4 -5.175,2.11 -8.027,2.11 -2.734,0 -5.422,-0.58 -8.055,-1.76 -2.64,-1.17 -4.808,-2.84 -6.507,-5.01 -1.696,-2.16 -2.547,-4.65 -2.547,-7.47 v -20.86 z m -32.753,0 v 16.29 c 0,2.19 -0.403,4.25 -1.2,6.18 -0.804,1.94 -1.957,3.67 -3.457,5.22 -1.508,1.54 -3.207,2.73 -5.101,3.57 -1.895,0.84 -3.895,1.26 -6.004,1.26 -1.914,0 -3.731,-0.31 -5.449,-0.93 -1.719,-0.63 -3.293,-1.55 -4.719,-2.76 -1.422,-1.21 -2.535,-2.63 -3.34,-4.25 -0.801,-1.62 -1.199,-3.37 -1.199,-5.24 v -13.83 c 0,-1.29 0.058,-2.3 0.176,-3.02 0.117,-0.72 0.429,-1.31 0.937,-1.78 0.508,-0.47 1.289,-0.71 2.344,-0.71 h 27.012"
         style="fill:#262626;fill-opacity:1;fill-rule:nonzero;stroke:none"
         id="path318" />
      <path
         d="m 752.914,2618.32 h -3.809 c 0,2.5 -0.195,4.54 -0.585,6.12 -0.391,1.58 -1.348,2.37 -2.872,2.37 h -29.707 c -2.773,0 -4.484,-0.54 -5.128,-1.61 -0.641,-1.07 -0.965,-3.21 -0.965,-6.41 h -3.809 l -1.172,15.69 h 40.781 c 1.524,0 2.481,0.69 2.872,2.06 0.39,1.37 0.585,3.2 0.585,5.51 h 3.809 z m -66.738,4.63 c -1.602,0 -3.008,0.6 -4.219,1.81 -1.211,1.21 -1.816,2.58 -1.816,4.1 0,1.05 0.273,2.06 0.82,3.02 0.547,0.96 1.297,1.7 2.254,2.22 0.961,0.53 1.945,0.79 2.961,0.79 1.562,0 2.941,-0.6 4.133,-1.81 1.187,-1.21 1.785,-2.62 1.785,-4.22 0,-1.52 -0.598,-2.89 -1.785,-4.1 -1.192,-1.21 -2.571,-1.81 -4.133,-1.81"
         style="fill:#262626;fill-opacity:1;fill-rule:nonzero;stroke:none"
         id="path320" />
      <path
         d="m 752.914,2648.87 h -3.809 c 0,2.5 -0.195,4.54 -0.585,6.13 -0.391,1.57 -1.348,2.36 -2.872,2.36 h -57.07 c -1.953,0 -3.371,-0.29 -4.246,-0.87 -0.883,-0.59 -1.418,-1.43 -1.613,-2.52 -0.196,-1.09 -0.293,-2.79 -0.293,-5.1 h -3.809 l -1.172,16.17 h 68.203 c 1.524,0 2.481,0.79 2.872,2.37 0.39,1.59 0.585,3.61 0.585,6.07 h 3.809 v -24.61"
         style="fill:#262626;fill-opacity:1;fill-rule:nonzero;stroke:none"
         id="path322" />
      <path
         d="m 752.914,2679.43 h -3.809 c 0,2.5 -0.195,4.54 -0.585,6.12 -0.391,1.58 -1.348,2.37 -2.872,2.37 h -57.07 c -1.953,0 -3.371,-0.29 -4.246,-0.88 -0.883,-0.58 -1.418,-1.42 -1.613,-2.52 -0.196,-1.09 -0.293,-2.79 -0.293,-5.09 h -3.809 l -1.172,16.17 h 68.203 c 1.524,0 2.481,0.79 2.872,2.37 0.39,1.58 0.585,3.6 0.585,6.07 h 3.809 v -24.61"
         style="fill:#262626;fill-opacity:1;fill-rule:nonzero;stroke:none"
         id="path324" />
      <path
         d="m 752.914,2709.98 h -3.809 c 0,2.5 -0.195,4.54 -0.585,6.13 -0.391,1.58 -1.348,2.37 -2.872,2.37 h -29.707 c -2.773,0 -4.484,-0.54 -5.128,-1.61 -0.641,-1.08 -0.965,-3.22 -0.965,-6.42 h -3.809 l -1.172,15.71 h 40.781 c 1.524,0 2.481,0.68 2.872,2.04 0.39,1.37 0.585,3.21 0.585,5.51 h 3.809 z m -66.738,4.63 c -1.602,0 -3.008,0.6 -4.219,1.82 -1.211,1.21 -1.816,2.57 -1.816,4.1 0,1.05 0.273,2.06 0.82,3.01 0.547,0.96 1.297,1.71 2.254,2.23 0.961,0.53 1.945,0.79 2.961,0.79 1.562,0 2.941,-0.6 4.133,-1.81 1.187,-1.21 1.785,-2.62 1.785,-4.22 0,-1.53 -0.598,-2.89 -1.785,-4.1 -1.192,-1.22 -2.571,-1.82 -4.133,-1.82"
         style="fill:#262626;fill-opacity:1;fill-rule:nonzero;stroke:none"
         id="path326" />
      <path
         d="m 754.145,2764.39 c 0,-4.34 -1.106,-8.37 -3.313,-12.1 -2.207,-3.74 -5.176,-6.68 -8.906,-8.83 -3.731,-2.14 -7.781,-3.22 -12.156,-3.22 -3.321,0 -6.524,0.59 -9.61,1.76 -3.086,1.18 -5.84,2.88 -8.262,5.1 -2.421,2.22 -4.316,4.81 -5.683,7.74 -1.367,2.93 -2.051,6.11 -2.051,9.55 0,4.45 1.18,8.51 3.543,12.18 2.367,3.67 5.52,6.57 9.465,8.7 3.945,2.13 8.144,3.19 12.598,3.19 4.335,0 8.378,-1.08 12.128,-3.25 3.75,-2.16 6.727,-5.09 8.934,-8.78 2.207,-3.7 3.313,-7.71 3.313,-12.04 z m -3.223,0 c 0,5.82 -2.098,9.69 -6.301,11.63 -4.199,1.93 -9.558,2.9 -16.082,2.9 -3.633,0 -6.648,-0.2 -9.051,-0.59 -2.402,-0.39 -4.582,-1.23 -6.535,-2.52 -1.172,-0.82 -2.215,-1.86 -3.133,-3.11 -0.918,-1.25 -1.613,-2.57 -2.082,-3.98 -0.468,-1.41 -0.703,-2.85 -0.703,-4.33 0,-2.27 0.52,-4.42 1.555,-6.45 1.035,-2.03 2.488,-3.73 4.363,-5.1 2.07,-1.33 4.336,-2.18 6.797,-2.55 2.461,-0.37 5.391,-0.56 8.789,-0.56 4.063,0 7.715,0.36 10.957,1.06 3.242,0.71 5.957,2.13 8.145,4.28 2.187,2.15 3.281,5.25 3.281,9.32"
         style="fill:#262626;fill-opacity:1;fill-rule:nonzero;stroke:none"
         id="path328" />
      <path
         d="m 752.914,2795.42 h -3.809 c 0,2.5 -0.195,4.54 -0.585,6.12 -0.391,1.59 -1.348,2.37 -2.872,2.37 h -29.707 c -1.953,0 -3.359,-0.29 -4.218,-0.87 -0.86,-0.59 -1.387,-1.43 -1.582,-2.52 -0.196,-1.09 -0.293,-2.79 -0.293,-5.1 h -3.809 l -1.172,15.76 h 10.606 c -3.125,1.49 -5.672,3.66 -7.649,6.5 -1.972,2.86 -2.957,5.96 -2.957,9.32 0,5 1.199,8.77 3.602,11.31 2.402,2.54 6.086,3.81 11.047,3.81 h 26.132 c 1.524,0 2.481,0.79 2.872,2.37 0.39,1.58 0.585,3.62 0.585,6.12 h 3.809 v -24.9 h -3.809 c 0,2.46 -0.195,4.49 -0.585,6.1 -0.391,1.6 -1.348,2.4 -2.872,2.4 h -25.839 c -3.516,0 -6.414,-0.52 -8.704,-1.55 -2.285,-1.04 -3.425,-3.14 -3.425,-6.3 0,-4.22 1.679,-7.69 5.039,-10.4 3.359,-2.72 7.187,-4.08 11.484,-4.08 h 21.445 c 1.524,0 2.481,0.8 2.872,2.41 0.39,1.6 0.585,3.61 0.585,6.03 h 3.809 v -24.9"
         style="fill:#262626;fill-opacity:1;fill-rule:nonzero;stroke:none"
         id="path330" />
      <path
         d="m 753.207,2856.94 h -17.695 c -0.586,0 -0.879,0.31 -0.879,0.94 v 1.35 c 0,0.39 0.293,0.66 0.879,0.82 10.508,2.03 15.761,6.91 15.761,14.65 0,3.43 -0.781,6.31 -2.343,8.64 -1.563,2.32 -3.965,3.48 -7.207,3.48 -2.344,0 -4.336,-0.91 -5.977,-2.72 -1.641,-1.81 -2.773,-3.96 -3.398,-6.42 l -1.407,-7.26 c -0.546,-2.46 -1.367,-4.69 -2.461,-6.68 -1.093,-1.99 -2.55,-3.63 -4.367,-4.9 -1.812,-1.27 -3.933,-1.9 -6.355,-1.9 -3.203,0 -5.82,0.84 -7.852,2.52 -2.031,1.68 -3.496,3.86 -4.394,6.53 -0.899,2.68 -1.348,5.58 -1.348,8.71 0,3.71 0.996,6.95 2.988,9.72 l -2.695,3.17 c -0.195,0 -0.293,0.17 -0.293,0.52 v 0.77 c 0,0.23 0.098,0.44 0.293,0.61 0.195,0.17 0.391,0.26 0.586,0.26 h 14.238 c 0.703,0 1.055,-0.29 1.055,-0.87 v -1.29 c 0,-0.67 -0.352,-1 -1.055,-1 -3.789,0 -6.824,-1.05 -9.113,-3.16 -2.285,-2.11 -3.426,-5.06 -3.426,-8.85 0,-3.24 0.594,-6.06 1.785,-8.44 1.196,-2.38 3.254,-3.57 6.184,-3.57 2.031,0 3.691,0.86 4.98,2.57 1.289,1.72 2.227,3.74 2.813,6.04 l 1.348,7.32 c 0.586,2.5 1.55,4.83 2.898,6.98 1.348,2.15 3.047,3.84 5.102,5.09 2.046,1.25 4.363,1.88 6.941,1.88 2.617,0 4.891,-0.45 6.828,-1.35 1.934,-0.9 3.531,-2.16 4.805,-3.78 1.269,-1.62 2.207,-3.52 2.812,-5.71 0.602,-2.19 0.907,-4.49 0.907,-6.91 0,-4.54 -1.524,-8.4 -4.571,-11.61 l 4.278,-3.98 c 0.195,0 0.293,-0.2 0.293,-0.59 v -0.64 c 0,-0.63 -0.313,-0.94 -0.938,-0.94"
         style="fill:#262626;fill-opacity:1;fill-rule:nonzero;stroke:none"
         id="path332" />
      <path
         d="M 1053.75,4601.25 H 2310 V 4777.5 H 1053.75 Z"
         style="fill:#ffffff;fill-opacity:1;fill-rule:nonzero;stroke:none"
         id="path334" />
      <path
         d="m 1410.22,4660.57 v 4.22 c 8.64,0 12.95,1.27 12.95,3.82 v 65.91 c 0,2.54 -4.31,3.81 -12.95,3.81 v 4.22 h 37.09 v -4.22 c -8.63,0 -12.95,-1.27 -12.95,-3.81 v -65.91 c 0,-2.55 4.32,-3.82 12.95,-3.82 v -4.22 h -37.09"
         style="fill:#000000;fill-opacity:1;fill-rule:nonzero;stroke:none"
         id="path336" />
      <path
         d="m 1480.45,4659.23 c -4.8,0 -9.26,1.22 -13.36,3.66 -4.1,2.44 -7.34,5.71 -9.73,9.81 -2.38,4.1 -3.57,8.58 -3.57,13.43 0,3.66 0.66,7.2 1.96,10.6 1.31,3.4 3.19,6.43 5.63,9.11 2.44,2.68 5.28,4.77 8.52,6.27 3.24,1.5 6.76,2.26 10.55,2.26 4.92,0 9.41,-1.3 13.45,-3.9 4.04,-2.6 7.23,-6.08 9.58,-10.43 2.34,-4.36 3.52,-9 3.52,-13.91 0,-4.81 -1.2,-9.27 -3.58,-13.4 -2.38,-4.12 -5.62,-7.4 -9.7,-9.84 -4.08,-2.44 -8.5,-3.66 -13.27,-3.66 z m 0,3.51 c 6.41,0 10.68,2.33 12.83,6.98 2.15,4.64 3.22,10.56 3.22,17.75 0,4.02 -0.21,7.35 -0.64,9.99 -0.43,2.64 -1.37,5.03 -2.81,7.18 -0.9,1.32 -2.04,2.49 -3.43,3.49 -1.39,0.99 -2.85,1.75 -4.39,2.28 -1.55,0.53 -3.14,0.79 -4.78,0.79 -2.5,0 -4.87,-0.57 -7.12,-1.7 -2.24,-1.13 -4.11,-2.75 -5.6,-4.86 -1.48,-2.27 -2.43,-4.76 -2.84,-7.47 -0.41,-2.72 -0.61,-5.95 -0.61,-9.7 0,-4.49 0.39,-8.52 1.17,-12.1 0.78,-3.57 2.35,-6.57 4.71,-8.99 2.37,-2.43 5.8,-3.64 10.29,-3.64"
         style="fill:#000000;fill-opacity:1;fill-rule:nonzero;stroke:none"
         id="path338" />
      <path
         d="m 1530.72,4660.57 v 4.22 c 4.03,0 7.93,0.23 11.72,0.68 3.79,0.45 5.69,1.49 5.69,3.14 v 65.91 c 0,1.72 -0.48,2.78 -1.44,3.19 -0.96,0.41 -2.51,0.62 -4.66,0.62 H 1537 c -6.61,0 -11.3,-1.45 -14.07,-4.34 -1.44,-1.44 -2.48,-3.76 -3.1,-6.94 -0.63,-3.18 -1.15,-7.18 -1.58,-11.98 h -3.46 l 2.28,27.48 h 73.3 l 2.29,-27.48 h -3.52 c -0.47,5.15 -0.98,9.25 -1.55,12.27 -0.57,3.03 -1.59,5.25 -3.07,6.65 -2.82,2.89 -7.5,4.34 -14.07,4.34 h -5.04 c -1.44,0 -2.57,-0.06 -3.37,-0.17 -0.8,-0.12 -1.45,-0.46 -1.96,-1.03 -0.51,-0.57 -0.76,-1.43 -0.76,-2.61 v -65.91 c 0,-1.65 1.89,-2.69 5.68,-3.14 3.79,-0.45 7.68,-0.68 11.66,-0.68 v -4.22 h -45.94"
         style="fill:#000000;fill-opacity:1;fill-rule:nonzero;stroke:none"
         id="path340" />
      <path
         d="m 1664.48,4673.41 c 2.73,-3.48 6.15,-6.22 10.25,-8.23 4.11,-2.02 8.36,-3.02 12.78,-3.02 3.71,0 7.15,0.73 10.31,2.2 3.16,1.46 5.93,3.5 8.29,6.12 2.36,2.62 4.18,5.59 5.45,8.91 1.27,3.32 1.9,6.81 1.9,10.49 0,0.62 0.36,0.93 1.06,0.93 h 1.46 c 0.63,0 0.94,-0.39 0.94,-1.17 0,-4.18 -0.8,-8.21 -2.4,-12.1 -1.6,-3.89 -3.87,-7.31 -6.8,-10.25 -2.93,-2.96 -6.29,-5.25 -10.11,-6.89 -3.8,-1.64 -7.78,-2.46 -11.92,-2.46 -5.74,0 -11.18,1.16 -16.31,3.49 -5.15,2.32 -9.62,5.5 -13.42,9.55 -3.82,4.04 -6.78,8.72 -8.91,14.03 -2.13,5.31 -3.19,10.84 -3.19,16.58 0,5.74 1.06,11.27 3.19,16.58 2.13,5.31 5.09,10 8.91,14.06 3.8,4.07 8.27,7.24 13.42,9.53 5.13,2.28 10.57,3.43 16.31,3.43 4.1,0 8.03,-0.89 11.78,-2.67 3.75,-1.78 7.03,-4.29 9.84,-7.53 l 6.98,9.85 c 0.46,0.23 0.74,0.35 0.82,0.35 h 0.87 c 0.24,0 0.45,-0.1 0.65,-0.3 0.19,-0.19 0.29,-0.43 0.29,-0.7 v -32.4 c 0,-0.71 -0.31,-1.06 -0.94,-1.06 h -2.16 c -0.75,0 -1.12,0.35 -1.12,1.06 0,2.3 -0.45,4.88 -1.38,7.73 -0.91,2.85 -2.09,5.56 -3.51,8.12 -1.42,2.56 -3.08,4.81 -4.95,6.77 -4.49,4.37 -9.65,6.56 -15.47,6.56 -4.41,0 -8.64,-1 -12.68,-2.99 -4.05,-1.99 -7.46,-4.75 -10.23,-8.26 -2.93,-3.75 -4.96,-8.02 -6.09,-12.81 -1.14,-4.78 -1.7,-9.89 -1.7,-15.32 0,-5.43 0.56,-10.54 1.7,-15.35 1.13,-4.81 3.16,-9.08 6.09,-12.83"
         style="fill:#000000;fill-opacity:1;fill-rule:nonzero;stroke:none"
         id="path342" />
      <path
         d="m 1753.79,4659.23 c -4.81,0 -9.26,1.22 -13.36,3.66 -4.11,2.44 -7.35,5.71 -9.73,9.81 -2.39,4.1 -3.57,8.58 -3.57,13.43 0,3.66 0.65,7.2 1.96,10.6 1.3,3.4 3.18,6.43 5.62,9.11 2.44,2.68 5.29,4.77 8.53,6.27 3.24,1.5 6.76,2.26 10.55,2.26 4.92,0 9.4,-1.3 13.44,-3.9 4.04,-2.6 7.24,-6.08 9.58,-10.43 2.35,-4.36 3.52,-9 3.52,-13.91 0,-4.81 -1.19,-9.27 -3.58,-13.4 -2.38,-4.12 -5.61,-7.4 -9.69,-9.84 -4.09,-2.44 -8.51,-3.66 -13.27,-3.66 z m 0,3.51 c 6.4,0 10.68,2.33 12.82,6.98 2.16,4.64 3.23,10.56 3.23,17.75 0,4.02 -0.21,7.35 -0.64,9.99 -0.43,2.64 -1.37,5.03 -2.82,7.18 -0.9,1.32 -2.04,2.49 -3.43,3.49 -1.38,0.99 -2.85,1.75 -4.39,2.28 -1.54,0.53 -3.13,0.79 -4.77,0.79 -2.5,0 -4.88,-0.57 -7.13,-1.7 -2.24,-1.13 -4.11,-2.75 -5.59,-4.86 -1.48,-2.27 -2.43,-4.76 -2.84,-7.47 -0.41,-2.72 -0.62,-5.95 -0.62,-9.7 0,-4.49 0.39,-8.52 1.18,-12.1 0.78,-3.57 2.35,-6.57 4.71,-8.99 2.36,-2.43 5.79,-3.64 10.29,-3.64"
         style="fill:#000000;fill-opacity:1;fill-rule:nonzero;stroke:none"
         id="path344" />
      <path
         d="m 1787.36,4660.57 v 4.22 c 2.73,0 4.98,0.22 6.74,0.65 1.76,0.43 2.63,1.49 2.63,3.17 v 32.75 c 0,2.14 -0.32,3.69 -0.96,4.66 -0.65,0.95 -1.57,1.54 -2.79,1.75 -1.21,0.22 -3.08,0.32 -5.62,0.32 v 4.22 l 17.4,1.3 v -11.72 c 1.6,3.43 3.97,6.25 7.12,8.43 3.15,2.19 6.57,3.29 10.28,3.29 5.55,0 9.72,-1.34 12.51,-3.99 2.79,-2.66 4.19,-6.72 4.19,-12.19 v -28.82 c 0,-1.68 0.88,-2.74 2.64,-3.17 1.75,-0.43 4,-0.65 6.74,-0.65 v -4.22 h -27.48 v 4.22 c 2.73,0 4.98,0.22 6.74,0.65 1.75,0.43 2.63,1.49 2.63,3.17 v 28.47 c 0,3.9 -0.56,7.12 -1.7,9.64 -1.13,2.52 -3.45,3.78 -6.97,3.78 -4.65,0 -8.47,-1.86 -11.46,-5.57 -2.98,-3.71 -4.48,-7.93 -4.48,-12.66 v -23.66 c 0,-1.68 0.88,-2.74 2.64,-3.17 1.76,-0.43 3.98,-0.65 6.68,-0.65 v -4.22 h -27.48"
         style="fill:#000000;fill-opacity:1;fill-rule:nonzero;stroke:none"
         id="path346" />
      <path
         d="m 1854.03,4660.57 v 4.22 c 2.73,0 4.97,0.22 6.73,0.65 1.76,0.43 2.64,1.49 2.64,3.17 v 32.75 c 0,2.14 -0.32,3.69 -0.97,4.66 -0.64,0.95 -1.57,1.54 -2.78,1.75 -1.21,0.22 -3.09,0.32 -5.62,0.32 v 4.22 l 17.4,1.3 v -11.72 c 1.6,3.43 3.97,6.25 7.12,8.43 3.14,2.19 6.57,3.29 10.28,3.29 5.55,0 9.72,-1.34 12.51,-3.99 2.79,-2.66 4.19,-6.72 4.19,-12.19 v -28.82 c 0,-1.68 0.88,-2.74 2.63,-3.17 1.76,-0.43 4.01,-0.65 6.75,-0.65 v -4.22 h -27.48 v 4.22 c 2.73,0 4.98,0.22 6.73,0.65 1.76,0.43 2.64,1.49 2.64,3.17 v 28.47 c 0,3.9 -0.57,7.12 -1.7,9.64 -1.13,2.52 -3.46,3.78 -6.97,3.78 -4.65,0 -8.47,-1.86 -11.46,-5.57 -2.99,-3.71 -4.48,-7.93 -4.48,-12.66 v -23.66 c 0,-1.68 0.88,-2.74 2.63,-3.17 1.77,-0.43 3.99,-0.65 6.69,-0.65 v -4.22 h -27.48"
         style="fill:#000000;fill-opacity:1;fill-rule:nonzero;stroke:none"
         id="path348" />
      <path
         d="m 1947,4659.23 c -4.88,0 -9.36,1.28 -13.45,3.84 -4.08,2.56 -7.28,5.97 -9.6,10.25 -2.33,4.28 -3.49,8.8 -3.49,13.57 0,4.68 1.06,9.13 3.19,13.35 2.13,4.22 5.1,7.63 8.9,10.23 3.82,2.6 8.06,3.9 12.75,3.9 3.67,0 6.87,-0.62 9.58,-1.85 2.72,-1.23 4.96,-2.94 6.71,-5.13 1.76,-2.19 3.09,-4.76 3.98,-7.73 0.9,-2.97 1.36,-6.23 1.36,-9.78 0,-1.06 -0.42,-1.59 -1.24,-1.59 h -34.74 V 4687 c 0,-6.64 1.34,-12.34 4.01,-17.11 2.67,-4.76 7.04,-7.15 13.09,-7.15 2.47,0 4.74,0.55 6.83,1.65 2.09,1.09 3.91,2.61 5.45,4.56 1.55,1.96 2.59,4.05 3.14,6.27 0.07,0.28 0.22,0.52 0.44,0.74 0.21,0.21 0.45,0.32 0.73,0.32 h 1.05 c 0.82,0 1.24,-0.51 1.24,-1.53 -1.14,-4.53 -3.58,-8.25 -7.33,-11.16 -3.75,-2.91 -7.95,-4.36 -12.6,-4.36 z m -15.94,32.05 h 27.37 c 0,3.01 -0.42,6.06 -1.26,9.14 -0.84,3.08 -2.24,5.65 -4.19,7.71 -1.95,2.05 -4.51,3.07 -7.68,3.07 -4.53,0 -8.04,-2.12 -10.52,-6.36 -2.48,-4.23 -3.72,-8.76 -3.72,-13.56"
         style="fill:#000000;fill-opacity:1;fill-rule:nonzero;stroke:none"
         id="path350" />
      <path
         d="m 2000.33,4659.23 c -4.84,0 -9.23,1.26 -13.18,3.78 -3.95,2.52 -7.05,5.88 -9.32,10.08 -2.26,4.2 -3.39,8.66 -3.39,13.38 0,4.73 1.12,9.26 3.36,13.6 2.25,4.33 5.36,7.8 9.32,10.4 3.97,2.6 8.37,3.9 13.21,3.9 4.69,0 8.96,-0.92 12.81,-2.76 3.84,-1.84 5.77,-4.84 5.77,-9.02 0,-1.57 -0.56,-2.92 -1.67,-4.07 -1.11,-1.16 -2.47,-1.73 -4.08,-1.73 -1.6,0 -2.95,0.57 -4.07,1.73 -1.11,1.15 -1.66,2.5 -1.66,4.07 0,1.4 0.45,2.62 1.34,3.66 0.9,1.04 2.02,1.69 3.34,1.96 -2.77,1.76 -6.66,2.64 -11.66,2.64 -3.83,0 -6.91,-1.27 -9.25,-3.81 -2.35,-2.54 -3.99,-5.68 -4.93,-9.43 -0.94,-3.75 -1.41,-7.47 -1.41,-11.14 0,-3.86 0.58,-7.6 1.73,-11.22 1.16,-3.61 3.01,-6.6 5.57,-8.96 2.56,-2.36 5.77,-3.55 9.64,-3.55 3.79,0 7.01,1.17 9.67,3.49 2.65,2.32 4.47,5.36 5.44,9.11 0,0.47 0.32,0.7 0.94,0.7 h 1.47 c 0.23,0 0.45,-0.1 0.64,-0.32 0.2,-0.21 0.3,-0.46 0.3,-0.73 v -0.35 c -1.22,-4.73 -3.62,-8.48 -7.21,-11.25 -3.6,-2.77 -7.84,-4.16 -12.72,-4.16"
         style="fill:#000000;fill-opacity:1;fill-rule:nonzero;stroke:none"
         id="path352" />
      <path
         d="m 2036.03,4674.99 v 33.1 h -9.96 v 3.11 c 5.23,0 9.08,2.44 11.54,7.32 2.46,4.89 3.69,10.18 3.69,15.89 h 3.46 v -22.1 h 16.94 v -4.22 h -16.94 v -32.87 c 0,-3.32 0.56,-6.23 1.67,-8.73 1.11,-2.5 3.12,-3.75 6.01,-3.75 2.73,0 4.7,1.32 5.91,3.96 1.22,2.64 1.82,5.48 1.82,8.52 v 7.09 h 3.46 v -7.32 c 0,-2.5 -0.46,-4.97 -1.38,-7.41 -0.92,-2.44 -2.27,-4.44 -4.07,-6.01 -1.8,-1.56 -3.98,-2.34 -6.56,-2.34 -4.81,0 -8.61,1.43 -11.4,4.31 -2.79,2.87 -4.19,6.69 -4.19,11.45"
         style="fill:#000000;fill-opacity:1;fill-rule:nonzero;stroke:none"
         id="path354" />
      <path
         d="m 2074.14,4660.57 v 4.22 c 2.74,0 4.98,0.22 6.74,0.65 1.76,0.43 2.64,1.49 2.64,3.17 v 32.75 c 0,3.08 -0.6,4.98 -1.79,5.68 -1.19,0.7 -3.55,1.05 -7.06,1.05 v 4.22 l 17.29,1.3 v -45 c 0,-1.68 0.76,-2.74 2.28,-3.17 1.52,-0.43 3.55,-0.65 6.1,-0.65 v -4.22 z m 5.1,73.66 c 0,1.76 0.67,3.3 1.99,4.63 1.33,1.32 2.85,1.99 4.57,1.99 1.14,0 2.23,-0.3 3.29,-0.88 1.05,-0.58 1.87,-1.4 2.45,-2.46 0.59,-1.05 0.89,-2.15 0.89,-3.28 0,-1.72 -0.67,-3.25 -2,-4.57 -1.33,-1.33 -2.87,-1.99 -4.63,-1.99 -1.72,0 -3.24,0.66 -4.57,1.99 -1.32,1.32 -1.99,2.85 -1.99,4.57"
         style="fill:#000000;fill-opacity:1;fill-rule:nonzero;stroke:none"
         id="path356" />
      <path
         d="m 2133.79,4659.23 c -4.81,0 -9.26,1.22 -13.36,3.66 -4.11,2.44 -7.35,5.71 -9.73,9.81 -2.38,4.1 -3.57,8.58 -3.57,13.43 0,3.66 0.65,7.2 1.96,10.6 1.31,3.4 3.18,6.43 5.62,9.11 2.45,2.68 5.29,4.77 8.53,6.27 3.24,1.5 6.76,2.26 10.55,2.26 4.92,0 9.4,-1.3 13.44,-3.9 4.04,-2.6 7.24,-6.08 9.58,-10.43 2.35,-4.36 3.52,-9 3.52,-13.91 0,-4.81 -1.19,-9.27 -3.58,-13.4 -2.38,-4.12 -5.61,-7.4 -9.7,-9.84 -4.08,-2.44 -8.5,-3.66 -13.26,-3.66 z m 0,3.51 c 6.4,0 10.68,2.33 12.83,6.98 2.15,4.64 3.22,10.56 3.22,17.75 0,4.02 -0.21,7.35 -0.65,9.99 -0.42,2.64 -1.36,5.03 -2.81,7.18 -0.9,1.32 -2.04,2.49 -3.43,3.49 -1.38,0.99 -2.84,1.75 -4.39,2.28 -1.54,0.53 -3.13,0.79 -4.77,0.79 -2.5,0 -4.88,-0.57 -7.12,-1.7 -2.25,-1.13 -4.12,-2.75 -5.6,-4.86 -1.48,-2.27 -2.43,-4.76 -2.84,-7.47 -0.41,-2.72 -0.62,-5.95 -0.62,-9.7 0,-4.49 0.39,-8.52 1.18,-12.1 0.78,-3.57 2.35,-6.57 4.71,-8.99 2.36,-2.43 5.79,-3.64 10.29,-3.64"
         style="fill:#000000;fill-opacity:1;fill-rule:nonzero;stroke:none"
         id="path358" />
      <path
         d="m 2167.36,4660.57 v 4.22 c 2.73,0 4.98,0.22 6.74,0.65 1.76,0.43 2.63,1.49 2.63,3.17 v 32.75 c 0,2.14 -0.32,3.69 -0.96,4.66 -0.64,0.95 -1.57,1.54 -2.79,1.75 -1.21,0.22 -3.08,0.32 -5.62,0.32 v 4.22 l 17.4,1.3 v -11.72 c 1.6,3.43 3.98,6.25 7.12,8.43 3.14,2.19 6.57,3.29 10.28,3.29 5.55,0 9.72,-1.34 12.51,-3.99 2.8,-2.66 4.19,-6.72 4.19,-12.19 v -28.82 c 0,-1.68 0.88,-2.74 2.64,-3.17 1.76,-0.43 4,-0.65 6.74,-0.65 v -4.22 h -27.48 v 4.22 c 2.73,0 4.98,0.22 6.74,0.65 1.75,0.43 2.63,1.49 2.63,3.17 v 28.47 c 0,3.9 -0.56,7.12 -1.7,9.64 -1.13,2.52 -3.45,3.78 -6.97,3.78 -4.65,0 -8.46,-1.86 -11.46,-5.57 -2.98,-3.71 -4.48,-7.93 -4.48,-12.66 v -23.66 c 0,-1.68 0.88,-2.74 2.64,-3.17 1.76,-0.43 3.98,-0.65 6.68,-0.65 v -4.22 h -27.48"
         style="fill:#000000;fill-opacity:1;fill-rule:nonzero;stroke:none"
         id="path360" />
      <path
         d="m 2234.43,4660.22 v 19.57 c 0,0.63 0.36,0.94 1.06,0.94 h 1.46 c 0.48,0 0.79,-0.31 0.94,-0.94 2.23,-11.6 7.62,-17.4 16.18,-17.4 3.78,0 6.96,0.86 9.52,2.58 2.55,1.72 3.83,4.37 3.83,7.97 0,2.58 -0.99,4.77 -2.99,6.59 -1.98,1.82 -4.35,3.06 -7.08,3.72 l -8.03,1.59 c -2.69,0.58 -5.15,1.48 -7.36,2.69 -2.2,1.21 -4.01,2.82 -5.41,4.83 -1.41,2.02 -2.12,4.35 -2.12,7.01 0,3.51 0.93,6.39 2.79,8.64 1.85,2.24 4.27,3.87 7.23,4.86 2.98,1 6.18,1.5 9.62,1.5 4.09,0 7.67,-1.1 10.72,-3.28 l 3.46,2.98 c 0,0.2 0.19,0.3 0.58,0.3 h 0.88 c 0.23,0 0.45,-0.11 0.65,-0.33 0.19,-0.21 0.29,-0.44 0.29,-0.67 v -15.7 c 0,-0.74 -0.31,-1.12 -0.94,-1.12 h -1.46 c -0.71,0 -1.06,0.38 -1.06,1.12 0,4.18 -1.16,7.54 -3.49,10.07 -2.32,2.54 -5.57,3.81 -9.75,3.81 -3.59,0 -6.71,-0.66 -9.35,-1.99 -2.64,-1.33 -3.95,-3.61 -3.95,-6.86 0,-2.22 0.95,-4.05 2.84,-5.47 1.89,-1.43 4.11,-2.46 6.65,-3.08 l 8.15,-1.52 c 2.73,-0.63 5.28,-1.68 7.64,-3.17 2.36,-1.48 4.24,-3.36 5.62,-5.62 1.39,-2.27 2.09,-4.83 2.09,-7.68 0,-2.89 -0.5,-5.4 -1.5,-7.53 -1,-2.13 -2.38,-3.9 -4.16,-5.3 -1.78,-1.41 -3.87,-2.44 -6.3,-3.11 -2.42,-0.66 -4.96,-0.99 -7.61,-0.99 -5,0 -9.28,1.68 -12.84,5.04 l -4.39,-4.75 c 0,-0.19 -0.21,-0.29 -0.65,-0.29 h -0.7 c -0.7,0 -1.06,0.33 -1.06,0.99"
         style="fill:#000000;fill-opacity:1;fill-rule:nonzero;stroke:none"
         id="path362" />
      <path
         d="m 1083.82,4634.68 h 300.734 v 109.395 H 1083.82 Z"
         style="fill:#edb120;fill-opacity:1;fill-rule:nonzero;stroke:none"
         id="path364" />
      <path
         d="m 1083.82,4634.68 h 300.734 v 109.395 H 1083.82 Z"
         style="fill:none;stroke:#000000;stroke-width:4.99875;stroke-linecap:butt;stroke-linejoin:miter;stroke-miterlimit:10;stroke-dasharray:none;stroke-opacity:1"
         id="path366" />
      <path
         d="M 1053.75,4601.25 H 2310 V 4777.5 H 1053.75 Z"
         style="fill:none;stroke:#262626;stroke-width:4.99875;stroke-linecap:butt;stroke-linejoin:miter;stroke-miterlimit:10;stroke-dasharray:none;stroke-opacity:1"
         id="path368" />
    </g>
  </g>
</svg>
