<svg xmlns="http://www.w3.org/2000/svg" xmlns:xlink="http://www.w3.org/1999/xlink" version="1.1" width="466.339pt" height="283.885pt" viewBox="0 0 466.339 283.885">
<defs>
<clipPath id="clip_0">
<path transform="matrix(1,0,0,-1,0,283.885)" d="M0 283.885H466.339V0H0Z"/>
</clipPath>
<clipPath id="clip_1">
<path transform="matrix(1,0,0,-1,0,283.885)" d="M0 283.885H466.339V0H0Z"/>
</clipPath>
<clipPath id="clip_2">
<path transform="matrix(1,0,0,-1,0,283.885)" d="M0 283.885H466.339V0H0Z"/>
</clipPath>
<clipPath id="clip_3">
<path transform="matrix(1,0,0,-1,0,283.885)" d="M0 283.885H466.339V0H0Z"/>
</clipPath>
<clipPath id="clip_4">
<path transform="matrix(1,0,0,-1,0,283.885)" d="M31.1698 140.072H39.9882V155.792H31.1698Z"/>
</clipPath>
<clipPath id="clip_5">
<path transform="matrix(1,0,0,-1,0,283.885)" d="M148.736 138.804H157.555V154.523H148.736Z"/>
</clipPath>
<clipPath id="clip_6">
<path transform="matrix(1,0,0,-1,0,283.885)" d="M148.474 63.6562H157.292V79.376H148.474Z"/>
</clipPath>
<clipPath id="clip_7">
<path transform="matrix(1,0,0,-1,0,283.885)" d="M30.1932 63.6562H39.0116V79.376H30.1932Z"/>
</clipPath>
<clipPath id="clip_8">
<path transform="matrix(1,0,0,-1,0,283.885)" d="M311.482 144.382H320.301V160.102H311.482Z"/>
</clipPath>
<clipPath id="clip_9">
<path transform="matrix(1,0,0,-1,0,283.885)" d="M429.049 143.114H437.867V158.834H429.049Z"/>
</clipPath>
<clipPath id="clip_10">
<path transform="matrix(1,0,0,-1,0,283.885)" d="M428.787 67.9668H437.605V83.6865H428.787Z"/>
</clipPath>
<clipPath id="clip_11">
<path transform="matrix(1,0,0,-1,0,283.885)" d="M310.506 67.9663H319.324V83.686H310.506Z"/>
</clipPath>
</defs>
<g>
<path transform="matrix(1,0,0,-1,296.7402,271.359)" stroke-width="2" stroke-linecap="round" stroke-linejoin="round" fill="none" stroke="#231f20" d="M0 0H30.372"/>
<text fill="#231f20" xml:space="preserve" transform="matrix(1 0 -0 1 0 283.885)" font-size="15" font-family="HelveticaNeue"><tspan y="-8.6816" x="332.5688 342.0188 350.0738 357.0188 364.2338 367.0088 374.7938 382.5788 385.3538 389.5238 392.2988 395.0738 403.12879 410.62879">Physical links</tspan><tspan y="-8.9366" x="91.248798 101.80879 110.148799 118.2038 122.6438 127.0988 135.4388">Control</tspan></text>
<path transform="matrix(1,0,0,-1,81.2289,270.9263)" stroke-width="2" stroke-linecap="round" stroke-dasharray="7,7" stroke-miterlimit="10" stroke-linejoin="miter" fill="none" stroke="#ed1d24" d="M0 0H-25.389"/>
<path transform="matrix(1,0,0,-1,78.5327,267.3713)" d="M0 0 1.51-3.555 0-7.11 8.427-3.555Z" fill="#ed1d24"/>
<path transform="matrix(1,0,0,-1,58.5366,267.3713)" d="M0 0-1.51-3.555 0-7.11-8.427-3.555Z" fill="#ed1d24"/>
<path transform="matrix(1,0,0,-1,212.9297,270.9263)" stroke-width="2" stroke-linecap="round" stroke-miterlimit="10" stroke-linejoin="miter" fill="none" stroke="#00a14b" d="M0 0H-25.389"/>
<path transform="matrix(1,0,0,-1,210.2335,267.3713)" d="M0 0 1.51-3.555 0-7.11 8.427-3.555Z" fill="#00a14b"/>
<path transform="matrix(1,0,0,-1,190.2375,267.3713)" d="M0 0-1.51-3.555 0-7.11-8.427-3.555Z" fill="#00a14b"/>
<text fill="#231f20" xml:space="preserve" transform="matrix(1 0 -0 1 0 283.885)" font-size="15" font-family="HelveticaNeue"><tspan y="-8.938" x="221.3447 231.61969 239.4047 243.8447">Data</tspan></text>
<g clip-path="url(#clip_0)">
<path transform="matrix(1,0,0,-1,415.4549,283.385)" stroke-width="1" stroke-linecap="round" stroke-linejoin="round" fill="none" stroke="#231f20" d="M0 0H-363.571C-366.629 0-369.109 2.479-369.109 5.538V21.045C-369.109 24.104-366.629 26.583-363.571 26.583H0C3.059 26.583 5.538 24.104 5.538 21.045V5.538C5.538 2.479 3.059 0 0 0Z"/>
<path transform="matrix(1,0,0,-1,182.9828,202.7207)" stroke-width="2" stroke-linecap="round" stroke-linejoin="round" fill="none" stroke="#231f20" d="M0 0C2.919 5.884 20.129 42.043 5.591 84.484-10.493 131.436-52.049 147.002-57.236 148.84"/>
<path transform="matrix(1,0,0,-1,131.9911,50.94391)" stroke-width="2" stroke-linecap="round" stroke-dasharray="7,7" stroke-miterlimit="10" stroke-linejoin="miter" fill="none" stroke="#ed1d24" d="M0 0C14.149-5.07 50.466-21.886 65.285-64.757 78.803-103.864 65.323-138.293 58.871-151.414"/>
<path transform="matrix(1,0,0,-1,133.39,55.25441)" d="M0 0-.301 3.851 2.262 6.74-6.858 6.052Z" fill="#ed1d24"/>
<path transform="matrix(1,0,0,-1,188.8694,198.2973)" d="M0 0 2.471-2.969 6.323-3.251-.691-9.12Z" fill="#ed1d24"/>
<path transform="matrix(1,0,0,-1,21.9889,204.72551)" stroke-width="2" stroke-linecap="round" stroke-linejoin="round" fill="none" stroke="#231f20" d="M0 0C-3.139 5.977-21.655 42.709-6.215 85.727 10.867 133.317 55.29 148.994 60.837 150.845"/>
<path transform="matrix(1,0,0,-1,41.4188,125.705509)" stroke-width="2" stroke-linecap="round" stroke-linejoin="round" fill="none" stroke="#231f20" d="M0 0 49.496 53.718"/>
<path transform="matrix(1,0,0,-1,160.6558,125.705509)" stroke-width="2" stroke-linecap="round" stroke-linejoin="round" fill="none" stroke="#231f20" d="M0 0-41.426 53.719"/>
<path transform="matrix(1,0,0,-1,325.2535,133.98142)" stroke-width="2" stroke-linecap="round" stroke-linejoin="round" fill="none" stroke="#231f20" d="M0 0V73.724"/>
<path transform="matrix(1,0,0,-1,41.4188,125.705509)" stroke-width="2" stroke-linecap="round" stroke-linejoin="round" fill="none" stroke="#231f20" d="M0 0H119.237"/>
<path transform="matrix(1,0,0,-1,41.4188,199.4295)" stroke-width="2" stroke-linecap="round" stroke-linejoin="round" fill="none" stroke="#231f20" d="M0 0V73.724"/>
<path transform="matrix(1,0,0,-1,41.4188,199.4295)" stroke-width="2" stroke-linecap="round" stroke-linejoin="round" fill="none" stroke="#231f20" d="M0 0H119.237"/>
<path transform="matrix(1,0,0,-1,160.6558,125.705509)" stroke-width="2" stroke-linecap="round" stroke-linejoin="round" fill="none" stroke="#231f20" d="M0 0V-73.724"/>
<path transform="matrix(1,0,0,-1,74.1745,50.306718)" stroke-width="2" stroke-linecap="round" stroke-dasharray="7,7" stroke-miterlimit="10" stroke-linejoin="miter" fill="none" stroke="#ed1d24" d="M0 0C-14.243-5.193-51.071-22.307-66.723-64.662-80.923-103.088-68.16-136.491-61.89-149.354"/>
<path transform="matrix(1,0,0,-1,70.4959,47.897615)" d="M0 0 2.582-2.873 2.307-6.725 9.125-.629Z" fill="#ed1d24"/>
<path transform="matrix(1,0,0,-1,7.9605,198.8424)" d="M0 0 3.853 .275 6.33 3.238 7.003-5.883Z" fill="#ed1d24"/>
<path transform="matrix(1,0,0,-1,130.7615,78.03421)" stroke-width="2" stroke-linecap="round" stroke-dasharray="7,7" stroke-miterlimit="10" stroke-linejoin="miter" fill="none" stroke="#ed1d24" d="M0 0 22.453-28.402"/>
<path transform="matrix(1,0,0,-1,129.6448,82.35411)" d="M0 0 1.852 3.389 5.578 4.409-2.437 8.816Z" fill="#ed1d24"/>
<path transform="matrix(1,0,0,-1,148.7535,106.52611)" d="M0 0 3.725 1.02 5.578 4.409 8.015-4.406Z" fill="#ed1d24"/>
<path transform="matrix(1,0,0,-1,75.6449,77.568119)" stroke-width="2" stroke-linecap="round" stroke-dasharray="7,7" stroke-miterlimit="10" stroke-linejoin="miter" fill="none" stroke="#ed1d24" d="M0 0-26.537-28.572"/>
<path transform="matrix(1,0,0,-1,71.2052,77.124408)" d="M0 0 3.633-1.313 5.21-4.839 8.34 3.755Z" fill="#ed1d24"/>
<path transform="matrix(1,0,0,-1,48.3382,101.74521)" d="M0 0 1.577-3.526 5.21-4.839-3.13-8.594Z" fill="#ed1d24"/>
<path transform="matrix(1,0,0,-1,124.5142,71.98711)" d="M0 0H-39.894C-40.885 0-41.689 .804-41.689 1.795V69.191C-41.689 70.183-40.885 70.986-39.894 70.986H0C.991 70.986 1.795 70.183 1.795 69.191V1.795C1.795 .804 .991 0 0 0" fill="#00addc"/>
<path transform="matrix(1,0,0,-1,124.5142,71.98711)" stroke-width="2" stroke-linecap="round" stroke-miterlimit="10" stroke-linejoin="miter" fill="none" stroke="#100540" d="M0 0H-39.894C-40.885 0-41.689 .804-41.689 1.795V69.191C-41.689 70.183-40.885 70.986-39.894 70.986H0C.991 70.986 1.795 70.183 1.795 69.191V1.795C1.795 .804 .991 0 0 0Z"/>
<path transform="matrix(1,0,0,-1,0,283.885)" d="M115.27 269.223H94.562999V275.17799H115.27Z" fill="#ffffff"/>
<path transform="matrix(1,0,0,-1,0,283.885)" stroke-width=".75" stroke-linecap="round" stroke-linejoin="round" fill="none" stroke="#0d003c" d="M115.27 269.223H94.562999V275.17799H115.27Z"/>
<path transform="matrix(1,0,0,-1,98.9584,55.083009)" d="M0 0C0-2.858 2.317-5.175 5.175-5.175 8.033-5.175 10.349-2.858 10.349 0 10.349 2.858 8.033 5.175 5.175 5.175 2.317 5.175 0 2.858 0 0" fill="#ffffff"/>
<path transform="matrix(1,0,0,-1,98.9584,55.083009)" stroke-width=".75" stroke-linecap="round" stroke-linejoin="round" fill="none" stroke="#0d003c" d="M0 0C0-2.858 2.317-5.175 5.175-5.175 8.033-5.175 10.349-2.858 10.349 0 10.349 2.858 8.033 5.175 5.175 5.175 2.317 5.175 0 2.858 0 0Z"/>
<path transform="matrix(1,0,0,-1,0,283.885)" d="M115.27 260H94.562999V265.955H115.27Z" fill="#ffffff"/>
<path transform="matrix(1,0,0,-1,0,283.885)" stroke-width=".75" stroke-linecap="round" stroke-linejoin="round" fill="none" stroke="#0d003c" d="M115.27 260H94.562999V265.955H115.27Z"/>
<path transform="matrix(1,0,0,-1,0,283.885)" d="M115.27 251.26H94.562999V257.215H115.27Z" fill="#ffffff"/>
<path transform="matrix(1,0,0,-1,0,283.885)" stroke-width=".75" stroke-linecap="round" stroke-linejoin="round" fill="none" stroke="#0d003c" d="M115.27 251.26H94.562999V257.215H115.27Z"/>
</g>
<text fill="#231f20" xml:space="preserve" transform="matrix(1 0 -0 1 0 283.885)" font-size="18" font-family="HelveticaNeue"><tspan y="-251.2603" x="137.2812 150.2772 160.6092 170.6172 176.2872 181.9572 192.2892 196.2852 200.2812 209.9472">Controller</tspan></text>
<g clip-path="url(#clip_1)">
<path transform="matrix(1,0,0,-1,324.692,121.11441)" stroke-width="2" stroke-linecap="round" stroke-linejoin="round" fill="none" stroke="#231f20" d="M0 0H119.237"/>
<path transform="matrix(1,0,0,-1,324.692,194.8385)" stroke-width="2" stroke-linecap="round" stroke-linejoin="round" fill="none" stroke="#231f20" d="M0 0V73.724"/>
<path transform="matrix(1,0,0,-1,324.692,194.8385)" stroke-width="2" stroke-linecap="round" stroke-linejoin="round" fill="none" stroke="#231f20" d="M0 0H119.237"/>
<path transform="matrix(1,0,0,-1,443.929,121.11441)" stroke-width="2" stroke-linecap="round" stroke-linejoin="round" fill="none" stroke="#231f20" d="M0 0V-73.724"/>
<path transform="matrix(1,0,0,-1,315.925,145.5579)" stroke-width="2" stroke-linecap="round" stroke-dasharray="7,7" stroke-miterlimit="10" stroke-linejoin="miter" fill="none" stroke="#ed1d24" d="M0 0V-34.019"/>
<path transform="matrix(1,0,0,-1,312.37,148.2541)" d="M0 0 3.555 1.51 7.11 0 3.555 8.427Z" fill="#ed1d24"/>
<path transform="matrix(1,0,0,-1,312.37,176.8808)" d="M0 0 3.555-1.51 7.11 0 3.555-8.427Z" fill="#ed1d24"/>
<path transform="matrix(1,0,0,-1,344.8516,71.98671)" d="M0 0H-39.894C-40.885 0-41.689 .804-41.689 1.795V69.191C-41.689 70.183-40.885 70.986-39.894 70.986H0C.991 70.986 1.795 70.183 1.795 69.191V1.795C1.795 .804 .991 0 0 0" fill="#00addc"/>
<path transform="matrix(1,0,0,-1,344.8516,71.98671)" stroke-width="2" stroke-linecap="round" stroke-miterlimit="10" stroke-linejoin="miter" fill="none" stroke="#100540" d="M0 0H-39.894C-40.885 0-41.689 .804-41.689 1.795V69.191C-41.689 70.183-40.885 70.986-39.894 70.986H0C.991 70.986 1.795 70.183 1.795 69.191V1.795C1.795 .804 .991 0 0 0Z"/>
<path transform="matrix(1,0,0,-1,0,283.885)" d="M335.607 269.223H314.9V275.17799H335.607Z" fill="#ffffff"/>
<path transform="matrix(1,0,0,-1,0,283.885)" stroke-width=".75" stroke-linecap="round" stroke-linejoin="round" fill="none" stroke="#0d003c" d="M335.607 269.223H314.9V275.17799H335.607Z"/>
<path transform="matrix(1,0,0,-1,319.2958,55.08261)" d="M0 0C0-2.858 2.317-5.175 5.175-5.175 8.033-5.175 10.349-2.858 10.349 0 10.349 2.858 8.033 5.175 5.175 5.175 2.317 5.175 0 2.858 0 0" fill="#ffffff"/>
<path transform="matrix(1,0,0,-1,319.2958,55.08261)" stroke-width=".75" stroke-linecap="round" stroke-linejoin="round" fill="none" stroke="#0d003c" d="M0 0C0-2.858 2.317-5.175 5.175-5.175 8.033-5.175 10.349-2.858 10.349 0 10.349 2.858 8.033 5.175 5.175 5.175 2.317 5.175 0 2.858 0 0Z"/>
<path transform="matrix(1,0,0,-1,0,283.885)" d="M335.607 260H314.9V265.955H335.607Z" fill="#ffffff"/>
<path transform="matrix(1,0,0,-1,0,283.885)" stroke-width=".75" stroke-linecap="round" stroke-linejoin="round" fill="none" stroke="#0d003c" d="M335.607 260H314.9V265.955H335.607Z"/>
<path transform="matrix(1,0,0,-1,0,283.885)" d="M335.607 251.26H314.9V257.215H335.607Z" fill="#ffffff"/>
<path transform="matrix(1,0,0,-1,0,283.885)" stroke-width=".75" stroke-linecap="round" stroke-linejoin="round" fill="none" stroke="#0d003c" d="M335.607 251.26H314.9V257.215H335.607Z"/>
</g>
<text fill="#231f20" xml:space="preserve" transform="matrix(1 0 -0 1 0 283.885)" font-size="18" font-family="HelveticaNeue"><tspan y="-254.2373" x="357.2764 370.2724 380.6044 390.6124 396.2824 401.9524 412.2844 416.2804 420.2764 429.94239">Controller</tspan></text>
<g clip-path="url(#clip_2)">
<path transform="matrix(1,0,0,-1,418.3708,113.82161)" stroke-width="2" stroke-linecap="round" stroke-dasharray="7,7" stroke-miterlimit="10" stroke-linejoin="miter" fill="none" stroke="#ed1d24" d="M0 0H-62.501"/>
<path transform="matrix(1,0,0,-1,415.6745,110.26662)" d="M0 0 1.51-3.555 0-7.11 8.427-3.555Z" fill="#ed1d24"/>
<path transform="matrix(1,0,0,-1,358.5665,110.26662)" d="M0 0-1.51-3.555 0-7.11-8.427-3.555Z" fill="#ed1d24"/>
<path transform="matrix(1,0,0,-1,404.4068,201.85501)" stroke-width="2" stroke-linecap="round" stroke-dasharray="7,7" stroke-miterlimit="10" stroke-linejoin="miter" fill="none" stroke="#ed1d24" d="M0 0H-50.012"/>
<path transform="matrix(1,0,0,-1,401.7105,198.30002)" d="M0 0 1.51-3.555 0-7.11 8.427-3.555Z" fill="#ed1d24"/>
<path transform="matrix(1,0,0,-1,357.0907,198.30002)" d="M0 0-1.51-3.555 0-7.11-8.427-3.555Z" fill="#ed1d24"/>
<path transform="matrix(1,0,0,-1,406.4237,128.98561)" stroke-width="2" stroke-linecap="round" stroke-miterlimit="10" stroke-linejoin="miter" fill="none" stroke="#00a14b" d="M0 0H-54.046"/>
<path transform="matrix(1,0,0,-1,403.7275,125.4306)" d="M0 0 1.51-3.555 0-7.11 8.427-3.555Z" fill="#00a14b"/>
<path transform="matrix(1,0,0,-1,355.0738,125.4306)" d="M0 0-1.51-3.555 0-7.11-8.427-3.555Z" fill="#00a14b"/>
<path transform="matrix(1,0,0,-1,414.0756,188.9581)" stroke-width="2" stroke-linecap="round" stroke-miterlimit="10" stroke-linejoin="miter" fill="none" stroke="#00a14b" d="M0 0H-53.91"/>
<path transform="matrix(1,0,0,-1,411.3794,185.4031)" d="M0 0 1.51-3.555 0-7.11 8.427-3.555Z" fill="#00a14b"/>
<path transform="matrix(1,0,0,-1,362.8616,185.4031)" d="M0 0-1.51-3.555 0-7.11-8.427-3.555Z" fill="#00a14b"/>
<path transform="matrix(1,0,0,-1,332.6071,177.84091)" stroke-width="2" stroke-linecap="round" stroke-miterlimit="10" stroke-linejoin="miter" fill="none" stroke="#00a14b" d="M0 0V30.547"/>
<path transform="matrix(1,0,0,-1,336.1621,175.1446)" d="M0 0-3.555-1.51-7.11 0-3.555-8.427Z" fill="#00a14b"/>
<path transform="matrix(1,0,0,-1,336.1621,149.99031)" d="M0 0-3.555 1.51-7.11 0-3.555 8.427Z" fill="#00a14b"/>
<path transform="matrix(1,0,0,-1,436.5178,179.2277)" stroke-width="2" stroke-linecap="round" stroke-miterlimit="10" stroke-linejoin="miter" fill="none" stroke="#00a14b" d="M0 0V30.547"/>
<path transform="matrix(1,0,0,-1,440.0728,176.5314)" d="M0 0-3.555-1.51-7.11 0-3.555-8.427Z" fill="#00a14b"/>
<path transform="matrix(1,0,0,-1,440.0728,151.3771)" d="M0 0-3.555 1.51-7.11 0-3.555 8.427Z" fill="#00a14b"/>
<path transform="matrix(1,0,0,-1,315.925,81.496417)" stroke-width="2" stroke-linecap="round" stroke-dasharray="7,7" stroke-miterlimit="10" stroke-linejoin="miter" fill="none" stroke="#ed1d24" d="M0 0V-20.715"/>
<path transform="matrix(1,0,0,-1,312.37,84.1927)" d="M0 0 3.555 1.51 7.11 0 3.555 8.427Z" fill="#ed1d24"/>
<path transform="matrix(1,0,0,-1,312.37,99.5155)" d="M0 0 3.555-1.51 7.11 0 3.555-8.427Z" fill="#ed1d24"/>
</g>
<text fill="#231f20" xml:space="preserve" transform="matrix(1 0 -0 1 0 283.885)" font-size="15" font-family="CMUSerif"><tspan y="-40.5815" x="48.6758 56.1758 61.9958 66.9908 78.6458 86.970798 92.790798 97.7858 105.2858 109.860797 114.8558 123.18079 130.68079 139.00579">a) Out-of-band</tspan><tspan y="-40.641504" x="345.12083 353.44584 359.26585 364.26084 369.67585 378.00086 382.99586 391.32087 398.82087 407.14588">b) In-band</tspan></text>
<g clip-path="url(#clip_3)">
<path transform="matrix(1,0,0,-1,126.3278,209.16632)" stroke-width="2" stroke-linecap="round" stroke-miterlimit="10" stroke-linejoin="miter" fill="none" stroke="#00a14b" d="M0 0-50.007-.452"/>
<path transform="matrix(1,0,0,-1,123.5995,205.63591)" d="M0 0 1.542-3.541 .064-7.11 8.459-3.479Z" fill="#00a14b"/>
<path transform="matrix(1,0,0,-1,78.9847,206.03961)" d="M0 0-1.478-3.569 .064-7.11-8.395-3.631Z" fill="#00a14b"/>
<path transform="matrix(1,0,0,-1,126.9035,119.76311)" stroke-width="2" stroke-linecap="round" stroke-miterlimit="10" stroke-linejoin="miter" fill="none" stroke="#00a14b" d="M0 0H-51.159"/>
<path transform="matrix(1,0,0,-1,124.2073,116.208209)" d="M0 0 1.51-3.555 0-7.11 8.427-3.555Z" fill="#00a14b"/>
<path transform="matrix(1,0,0,-1,78.4413,116.208209)" d="M0 0-1.51-3.555 0-7.11-8.427-3.555Z" fill="#00a14b"/>
<path transform="matrix(1,0,0,-1,32.7435,180.90522)" stroke-width="2" stroke-linecap="round" stroke-miterlimit="10" stroke-linejoin="miter" fill="none" stroke="#00a14b" d="M0 0V30.547"/>
<path transform="matrix(1,0,0,-1,36.2985,178.20891)" d="M0 0-3.555-1.51-7.11 0-3.555-8.427Z" fill="#00a14b"/>
<path transform="matrix(1,0,0,-1,36.2985,153.05461)" d="M0 0-3.555 1.51-7.11 0-3.555 8.427Z" fill="#00a14b"/>
<path transform="matrix(1,0,0,-1,169.4487,181.96222)" stroke-width="2" stroke-linecap="round" stroke-miterlimit="10" stroke-linejoin="miter" fill="none" stroke="#00a14b" d="M0 0V30.547"/>
<path transform="matrix(1,0,0,-1,173.0037,179.266)" d="M0 0-3.555-1.51-7.11 0-3.555-8.427Z" fill="#00a14b"/>
<path transform="matrix(1,0,0,-1,173.0037,154.11171)" d="M0 0-3.555 1.51-7.11 0-3.555 8.427Z" fill="#00a14b"/>
<path transform="matrix(1,0,0,-1,67.5761,115.76451)" d="M0 0C-.029 .034-.055 .071-.077 .11-.295-.069-.393-.149-.489-.229-1.307-1.039-2.122-1.852-2.942-2.659-5.166-4.848-7.386-7.041-9.618-9.22-10.65-10.228-11.707-11.208-12.753-12.201-12.991-12.261-13.227-12.368-13.466-12.373-14.332-12.394-15.2-12.382-16.067-12.382H-50.752-51.747C-51.665-12.302-51.601-12.24-51.545-12.185-51.614-12.243-51.694-12.29-51.787-12.322-51.81-12.368-51.834-12.413-51.865-12.454-51.868-12.619-51.914-12.781-51.998-12.92-52.001-12.931-52.006-12.942-52.01-12.954-52.023-13.011-52.041-13.068-52.065-13.121-52.054-13.103-52.044-13.085-52.035-13.066-51.748-13.051-51.461-13.021-51.175-13.021-38.698-13.019-26.221-13.018-13.745-13.031-13.444-13.031-13.059-12.818-12.827-13.221-12.817-15.486-12.801-17.751-12.799-20.016-12.798-21.679-12.817-23.342-12.827-25.004-12.864-25.047-12.902-25.089-12.939-25.132-12.823-25.069-12.684-25.031-12.521-25.031-12.373-25.031-12.245-25.061-12.137-25.114V-24.48C-12.133-20.613-12.13-16.746-12.126-12.878-12.071-12.8-12.016-12.722-11.96-12.644-11.808-12.473-11.663-12.294-11.501-12.132-7.762-8.395-4.022-4.659-.28-.924-.106-.75 .084-.589 .363-.333 .2-.263 .081-.143 0 0" fill="#f6f8f9"/>
<path transform="matrix(1,0,0,-1,54.6369,140.89652)" d="M0 0C.038 .043 .075 .085 .113 .128 .122 1.79 .141 3.453 .14 5.116 .138 7.381 .122 9.646 .112 11.911-12.691 11.911-25.494 11.909-38.297 11.916-38.563 11.916-38.83 12.014-39.096 12.066-39.105 12.047-39.115 12.029-39.126 12.011-39.146 11.964-39.171 11.92-39.199 11.878-39.226 11.826-39.248 11.774-39.248 11.721-39.256 7.921-39.256 4.121-39.248 .32-39.248 .203-39.152 .087-39.1-.03-39.043-.037-38.986-.045-38.928-.052-38.698-.062-38.468-.08-38.238-.08-25.737-.082-13.237-.082-.736-.08-.52-.08-.303-.064-.086-.054-.059-.034-.03-.016 0 0" fill="#939598"/>
<path transform="matrix(1,0,0,-1,49.2575,124.53911)" d="M0 0C1.83 .578 3.477 1.099 5.268 1.665 4.235 2.083 3.364 2.436 2.492 2.789 2.166 2.379 1.865 2 1.582 1.644 1.287 1.644 1.057 1.644 .826 1.644-2.061 1.644-4.947 1.641-7.834 1.647-8.304 1.647-8.757 1.647-9.067 1.078H.739C.484 .706 .299 .436 0 0M-3.835 6.087H6.027C5.694 5.721 5.442 5.445 5.05 5.015 6.986 5.5 8.708 5.932 10.602 6.406 9.573 6.921 8.708 7.355 7.819 7.8 7.641 7.635 7.444 7.501 7.313 7.32 6.895 6.747 6.345 6.633 5.659 6.642 2.916 6.679 .172 6.653-2.572 6.662-3.052 6.663-3.48 6.603-3.835 6.087M-12.553 5.062C-12.782 5.053-13.021 5.082-13.24 5.028-14.65 4.679-16.056 4.312-17.658 3.9-16.79 3.55-16.073 3.284-15.378 2.971-15.017 2.808-14.732 2.79-14.439 3.085-14.002 3.524-13.458 3.596-12.852 3.59-10.104 3.565-7.356 3.599-4.608 3.566-3.894 3.558-3.531 3.905-3.171 4.515-3.553 4.515-3.841 4.515-4.128 4.516-6.876 4.524-9.623 4.533-12.371 4.542-12.276 5.039-12.276 5.039-12.521 5.307-12.532 5.221-12.542 5.142-12.553 5.062M-21.657-1.311C-18.498-1.317-15.338-1.327-12.179-1.321-12.014-1.321-11.85-1.191-11.686-1.121-11.511-.96-11.336-.798-11.161-.636-11.147-.614-11.132-.592-11.117-.57-11.128-.596-11.138-.622-11.149-.648-11.465-.631-11.78-.6-12.095-.6-14.718-.596-17.34-.598-19.963-.598H-20.893C-20.614-.239-20.403 .034-20.191 .307L-20.28 .439C-21.953-.058-23.626-.556-25.489-1.109-24.426-1.538-23.539-1.896-22.686-2.24-22.295-1.886-21.976-1.598-21.657-1.311M-33.042-3.23C-31.488-1.952-29.942-.666-28.38 .602-25.073 3.286-21.758 5.962-18.443 8.638-18.337 8.724-18.207 8.783-18.088 8.854-17.788 8.808-17.489 8.722-17.189 8.722-5.879 8.715 5.431 8.718 16.741 8.709 17.104 8.709 17.466 8.603 17.829 8.546 17.012 7.736 16.197 6.923 15.376 6.115 13.153 3.926 10.933 1.734 8.7-.446 7.669-1.453 6.611-2.434 5.565-3.426 5.219-3.42 4.872-3.409 4.526-3.409-7.635-3.408-19.795-3.41-31.956-3.401-32.318-3.401-32.68-3.289-33.042-3.23" fill="#939598"/>
<path transform="matrix(1,0,0,-1,67.9531,116.799518)" d="M0 0V.697C-.005 .698-.009 .7-.014 .702-.293 .446-.483 .285-.657 .111-4.399-3.624-8.139-7.36-11.878-11.097-12.04-11.259-12.185-11.438-12.337-11.609-12.393-11.687-12.448-11.765-12.503-11.843-12.507-15.711-12.51-19.578-12.514-23.445-12.304-23.454-12.094-23.462-11.885-23.471-11.661-23.246-11.429-23.03-11.216-22.796-9.39-20.79-7.564-18.783-5.745-16.77-3.984-14.822-2.242-12.856-.465-10.922-.125-10.552 .012-10.189 .009-9.696-.009-6.464 0-3.232 0 0" fill="#6d6e71"/>
<path transform="matrix(1,0,0,-1,53.7834,127.94821)" d="M0 0C-12.161 .001-24.321-.001-36.482 .008-36.844 .008-37.206 .12-37.568 .179-37.598 .149-37.63 .118-37.663 .086-37.69 .055-37.72 .026-37.752-.001-37.809-.056-37.873-.119-37.954-.198H-36.959-2.274C-1.407-.198-.54-.211 .327-.19 .566-.184 .802-.077 1.039-.017 .693-.011 .346 0 0 0" fill="#939598"/>
<path transform="matrix(1,0,0,-1,54.7491,128.98502)" d="M0 0C-12.803-.001-25.606-.002-38.409 .005-38.675 .005-38.942 .102-39.208 .154-38.921 .17-38.634 .199-38.347 .199-25.871 .201-13.394 .203-.918 .189-.617 .189-.232 .403 0 0" fill="#939598"/>
<path transform="matrix(1,0,0,-1,67.4911,115.64241)" d="M0 0H-.826C-12.399 0-23.972 0-35.545-.002-35.804-.002-36.062-.029-36.321-.043-36.022-.089-35.722-.174-35.423-.175-24.113-.181-12.803-.179-1.493-.188-1.13-.188-.767-.294-.404-.351-.308-.271-.21-.191 .008-.012 .005-.008 .002-.004 0 0" fill="#939598"/>
<path transform="matrix(1,0,0,-1,55.544,140.9396)" d="M0 0C.229 .292 .377 .482 .524 .669 .315 .678 .105 .686-.105 .695V.061C-.067 .043-.033 .023 0 0" fill="#6d6e71"/>
<path transform="matrix(1,0,0,-1,55.6156,128.40811)" d="M0 0C-.055-.078-.11-.156-.166-.235-.11-.156-.055-.078 0 0" fill="#0f6b96"/>
<path transform="matrix(1,0,0,-1,15.5367,140.92652)" d="M0 0C.057-.007 .115-.015 .172-.022 .115-.015 .057-.007 0 0" fill="#0d6b96"/>
<path transform="matrix(1,0,0,-1,36.8867,119.99721)" d="M0 0C2.748-.009 5.495-.018 8.243-.026 8.53-.027 8.818-.026 9.199-.026 8.84-.637 8.477-.984 7.763-.976 5.015-.943 2.267-.977-.481-.952-1.088-.946-1.631-1.018-2.068-1.457-2.361-1.752-2.647-1.733-3.007-1.571-3.702-1.257-4.42-.992-5.287-.642-3.685-.23-2.279 .137-.869 .486-.651 .54-.412 .511-.182 .52-.281 .364-.381 .208-.513 0Z" fill="#eaeef1"/>
<path transform="matrix(1,0,0,-1,45.4223,118.45201)" d="M0 0C.355 .516 .784 .576 1.263 .575 4.007 .565 6.751 .592 9.494 .555 10.18 .546 10.731 .66 11.148 1.233 11.279 1.414 11.477 1.547 11.655 1.713 12.543 1.268 13.408 .834 14.437 .319 12.544-.155 10.822-.587 8.885-1.072 9.277-.642 9.529-.366 9.863 0Z" fill="#f1f5f7"/>
<path transform="matrix(1,0,0,-1,38.096,125.17511)" d="M0 0C-.175-.162-.35-.324-.525-.485-.841-.493-1.158-.509-1.475-.509-4.184-.511-6.894-.505-9.603-.517-9.901-.518-10.198-.62-10.496-.675-10.815-.962-11.133-1.25-11.525-1.604-12.377-1.26-13.264-.902-14.327-.473-12.465 .08-10.792 .578-9.118 1.075L-9.03 .943C-9.241 .67-9.453 .397-9.731 .038H-8.801C-6.179 .038-3.556 .04-.934 .036-.618 .036-.303 .005 .012-.012Z" fill="#f0f4f6"/>
<path transform="matrix(1,0,0,-1,49.2575,124.53911)" d="M0 0C.299 .436 .484 .706 .739 1.078H-9.067C-8.757 1.647-8.304 1.647-7.834 1.647-4.947 1.641-2.061 1.644 .826 1.644 1.057 1.644 1.287 1.644 1.582 1.644 1.865 2 2.166 2.379 2.492 2.789 3.364 2.436 4.235 2.083 5.268 1.665 3.477 1.099 1.83 .578 0 0" fill="#f5f8f9"/>
<path transform="matrix(1,0,0,-1,27.6,125.84961)" d="M0 0C.298 .055 .595 .156 .893 .157 3.602 .17 6.312 .164 9.021 .166 9.338 .166 9.655 .181 9.971 .189 9.807 .12 9.643-.01 9.479-.01 6.319-.016 3.16-.006 0 0" fill="#939598"/>
<path transform="matrix(1,0,0,-1,36.8867,119.99721)" d="M0 0H-.513C-.381 .208-.281 .364-.182 .52-.172 .6-.161 .679-.15 .765 .095 .497 .095 .497 0 0" fill="#939598"/>
<path transform="matrix(1,0,0,-1,38.1083,125.18671)" d="M0 0C.011 .026 .022 .052 .032 .078 .018 .056 .003 .034-.012 .012Z" fill="#f0f4f6"/>
<g opacity=".789993">
<g clip-path="url(#clip_4)">
<text fill="#414042" xml:space="preserve" transform="matrix(1 0 -0 1 0 283.885)" font-size="14" font-family="Rockwell" font-weight="bold"><tspan y="-143.6396" x="31.1699">1</tspan></text>
</g>
</g>
<path transform="matrix(1,0,0,-1,185.6405,117.395709)" d="M0 0C-.029 .034-.055 .071-.077 .11-.295-.069-.393-.149-.489-.229-1.307-1.039-2.122-1.852-2.942-2.659-5.166-4.848-7.386-7.041-9.618-9.22-10.65-10.228-11.707-11.208-12.753-12.201-12.991-12.261-13.227-12.368-13.466-12.373-14.332-12.394-15.2-12.382-16.067-12.382H-50.752-51.747C-51.665-12.302-51.601-12.24-51.545-12.185-51.614-12.243-51.694-12.29-51.787-12.322-51.81-12.368-51.834-12.413-51.865-12.454-51.868-12.619-51.914-12.781-51.998-12.92-52.001-12.931-52.006-12.942-52.01-12.954-52.023-13.011-52.041-13.068-52.065-13.121-52.054-13.103-52.044-13.085-52.035-13.066-51.748-13.051-51.461-13.021-51.175-13.021-38.698-13.019-26.221-13.017-13.745-13.031-13.444-13.031-13.059-12.818-12.827-13.221-12.817-15.486-12.801-17.751-12.799-20.016-12.798-21.679-12.817-23.342-12.827-25.004-12.864-25.047-12.902-25.089-12.939-25.132-12.823-25.069-12.684-25.031-12.521-25.031-12.373-25.031-12.245-25.061-12.137-25.114V-24.48C-12.133-20.613-12.13-16.746-12.126-12.878-12.071-12.8-12.016-12.722-11.96-12.644-11.808-12.473-11.663-12.294-11.501-12.132-7.762-8.395-4.022-4.659-.28-.924-.106-.75 .084-.589 .363-.333 .2-.263 .081-.143 0 0" fill="#f6f8f9"/>
<path transform="matrix(1,0,0,-1,172.7013,142.52771)" d="M0 0C.038 .043 .075 .085 .113 .128 .122 1.79 .141 3.453 .14 5.116 .138 7.381 .122 9.646 .112 11.911-12.691 11.911-25.494 11.909-38.297 11.916-38.563 11.916-38.83 12.014-39.096 12.066-39.105 12.047-39.115 12.029-39.126 12.011-39.146 11.964-39.171 11.92-39.199 11.878-39.226 11.826-39.248 11.774-39.248 11.721-39.256 7.921-39.256 4.121-39.248 .32-39.248 .204-39.152 .087-39.1-.03-39.043-.037-38.986-.045-38.928-.052-38.698-.062-38.468-.08-38.238-.08-25.737-.082-13.237-.082-.736-.08-.52-.08-.303-.064-.086-.054-.059-.034-.03-.016 0 0" fill="#939598"/>
<path transform="matrix(1,0,0,-1,167.3219,126.17041)" d="M0 0C1.83 .578 3.477 1.099 5.268 1.665 4.235 2.083 3.364 2.436 2.492 2.789 2.166 2.379 1.865 2 1.582 1.644H.826C-2.061 1.644-4.947 1.641-7.834 1.647-8.304 1.647-8.757 1.647-9.067 1.078H.739C.484 .706 .299 .436 0 0M-3.835 6.087H6.027C5.694 5.721 5.442 5.445 5.05 5.015 6.986 5.5 8.708 5.932 10.602 6.406 9.573 6.921 8.708 7.355 7.819 7.8 7.641 7.635 7.444 7.501 7.313 7.32 6.895 6.747 6.345 6.633 5.659 6.642 2.916 6.679 .172 6.653-2.572 6.662-3.052 6.664-3.48 6.603-3.835 6.087M-12.553 5.062C-12.782 5.053-13.021 5.082-13.24 5.028-14.65 4.679-16.056 4.312-17.658 3.9-16.79 3.55-16.073 3.285-15.378 2.971-15.017 2.809-14.732 2.79-14.439 3.085-14.002 3.524-13.458 3.596-12.852 3.59-10.104 3.565-7.356 3.599-4.608 3.566-3.894 3.558-3.531 3.905-3.171 4.515-3.553 4.515-3.841 4.515-4.128 4.516-6.876 4.524-9.623 4.533-12.371 4.542-12.276 5.039-12.276 5.039-12.521 5.307-12.532 5.221-12.542 5.142-12.553 5.062M-21.658-1.311C-18.498-1.317-15.338-1.327-12.179-1.321-12.014-1.321-11.85-1.191-11.686-1.121-11.511-.96-11.336-.798-11.161-.636-11.147-.614-11.132-.592-11.117-.57-11.128-.596-11.138-.622-11.149-.648-11.465-.631-11.78-.6-12.095-.6-14.718-.596-17.34-.598-19.963-.598H-20.893C-20.614-.239-20.403 .034-20.191 .307L-20.28 .439C-21.953-.058-23.626-.556-25.489-1.109-24.426-1.538-23.539-1.896-22.686-2.24-22.295-1.886-21.976-1.598-21.658-1.311M-33.042-3.23C-31.488-1.952-29.942-.666-28.38 .602-25.073 3.286-21.758 5.962-18.443 8.638-18.337 8.724-18.207 8.783-18.088 8.854-17.788 8.808-17.489 8.722-17.189 8.722-5.879 8.715 5.431 8.718 16.741 8.709 17.104 8.709 17.466 8.603 17.829 8.546 17.012 7.736 16.197 6.923 15.376 6.115 13.153 3.926 10.933 1.734 8.7-.446 7.669-1.453 6.611-2.434 5.565-3.426 5.219-3.42 4.872-3.409 4.526-3.409-7.635-3.408-19.795-3.41-31.956-3.401-32.318-3.401-32.68-3.289-33.042-3.23" fill="#939598"/>
<path transform="matrix(1,0,0,-1,186.0175,118.43071)" d="M0 0V.697C-.005 .698-.009 .7-.014 .702-.293 .446-.483 .285-.657 .111-4.399-3.624-8.139-7.36-11.878-11.097-12.04-11.259-12.185-11.438-12.337-11.609-12.393-11.687-12.448-11.765-12.503-11.843-12.507-15.711-12.51-19.578-12.514-23.445L-11.885-23.471C-11.661-23.246-11.429-23.03-11.216-22.796-9.39-20.79-7.564-18.783-5.745-16.77-3.984-14.822-2.242-12.856-.465-10.922-.125-10.552 .012-10.189 .009-9.696-.009-6.464 0-3.232 0 0" fill="#6d6e71"/>
<path transform="matrix(1,0,0,-1,171.8478,129.57952)" d="M0 0C-12.161 .001-24.321-.001-36.482 .008-36.844 .008-37.206 .12-37.568 .179-37.598 .149-37.63 .118-37.663 .086-37.69 .055-37.72 .026-37.752-.001-37.809-.056-37.873-.119-37.954-.198H-36.959-2.274C-1.407-.198-.54-.211 .327-.19 .566-.184 .802-.077 1.039-.017 .693-.011 .346 0 0 0" fill="#939598"/>
<path transform="matrix(1,0,0,-1,172.8134,130.6163)" d="M0 0C-12.803-.001-25.606-.002-38.409 .005-38.675 .005-38.942 .102-39.208 .154-38.921 .17-38.634 .199-38.347 .199-25.871 .201-13.394 .203-.918 .189-.617 .189-.232 .403 0 0" fill="#939598"/>
<path transform="matrix(1,0,0,-1,185.5554,117.273609)" d="M0 0H-.826C-12.399 0-23.972 0-35.545-.002-35.804-.002-36.062-.029-36.321-.043-36.022-.089-35.722-.174-35.423-.175-24.113-.181-12.803-.179-1.493-.188-1.13-.188-.767-.294-.404-.351-.308-.271-.21-.191 .008-.012 .005-.008 .002-.004 0 0" fill="#939598"/>
<path transform="matrix(1,0,0,-1,173.6084,142.57082)" d="M0 0C.229 .292 .377 .482 .524 .669L-.105 .695V.061C-.067 .043-.033 .023 0 0" fill="#6d6e71"/>
<path transform="matrix(1,0,0,-1,173.68,130.03942)" d="M0 0-.166-.235Z" fill="#0f6b96"/>
<path transform="matrix(1,0,0,-1,133.6011,142.55771)" d="M0 0C.057-.007 .115-.015 .172-.022 .115-.015 .057-.007 0 0" fill="#0d6b96"/>
<path transform="matrix(1,0,0,-1,154.9511,121.6284)" d="M0 0C2.747-.009 5.495-.018 8.243-.026 8.53-.027 8.818-.027 9.199-.027 8.84-.637 8.477-.984 7.763-.976 5.015-.943 2.267-.977-.481-.952-1.088-.946-1.631-1.018-2.068-1.457-2.361-1.752-2.647-1.733-3.007-1.571-3.702-1.257-4.42-.992-5.287-.642-3.685-.23-2.279 .137-.869 .486-.651 .54-.412 .511-.182 .52-.281 .364-.381 .208-.513 0Z" fill="#eaeef1"/>
<path transform="matrix(1,0,0,-1,163.4866,120.08331)" d="M0 0C.355 .516 .784 .576 1.263 .575 4.007 .566 6.751 .592 9.494 .555 10.18 .546 10.731 .66 11.148 1.233 11.279 1.414 11.477 1.547 11.655 1.713 12.543 1.268 13.408 .834 14.437 .319 12.544-.155 10.822-.587 8.885-1.072 9.277-.642 9.529-.366 9.863 0Z" fill="#f1f5f7"/>
<path transform="matrix(1,0,0,-1,156.1604,126.806308)" d="M0 0C-.175-.162-.35-.324-.525-.485-.841-.493-1.158-.509-1.475-.509-4.184-.511-6.894-.505-9.603-.517-9.901-.518-10.198-.62-10.496-.675-10.815-.962-11.133-1.25-11.525-1.604-12.377-1.26-13.264-.902-14.327-.473-12.465 .08-10.792 .578-9.118 1.075L-9.03 .942C-9.241 .67-9.453 .397-9.731 .038H-8.801C-6.179 .038-3.556 .04-.934 .036-.618 .036-.303 .005 .012-.012Z" fill="#f0f4f6"/>
<path transform="matrix(1,0,0,-1,167.3219,126.17041)" d="M0 0C.299 .436 .484 .706 .739 1.078H-9.067C-8.757 1.647-8.304 1.647-7.834 1.647-4.947 1.641-2.061 1.644 .826 1.644H1.582C1.865 2 2.166 2.379 2.492 2.789 3.364 2.436 4.235 2.083 5.268 1.665 3.477 1.099 1.83 .578 0 0" fill="#f5f8f9"/>
<path transform="matrix(1,0,0,-1,145.6644,127.48091)" d="M0 0C.298 .055 .595 .156 .893 .157 3.602 .17 6.312 .164 9.021 .166 9.338 .166 9.655 .181 9.971 .189 9.807 .12 9.643-.01 9.479-.011 6.319-.016 3.16-.006 0 0" fill="#939598"/>
<path transform="matrix(1,0,0,-1,154.9511,121.6284)" d="M0 0H-.513C-.381 .208-.281 .364-.182 .52-.172 .6-.161 .679-.15 .765 .095 .497 .095 .497 0 0" fill="#939598"/>
<path transform="matrix(1,0,0,-1,156.1726,126.81801)" d="M0 0C.011 .026 .022 .052 .032 .078 .018 .056 .003 .034-.012 .012Z" fill="#f0f4f6"/>
<g opacity=".789993">
<g clip-path="url(#clip_5)">
<text fill="#414042" xml:space="preserve" transform="matrix(1 0 -0 1 0 283.885)" font-size="14" font-family="Rockwell" font-weight="bold"><tspan y="-142.3721" x="148.7363">2</tspan></text>
</g>
</g>
<path transform="matrix(1,0,0,-1,185.6405,192.18042)" d="M0 0C-.029 .034-.055 .071-.077 .11-.295-.069-.393-.149-.489-.229-1.307-1.039-2.122-1.852-2.942-2.659-5.166-4.848-7.386-7.041-9.618-9.22-10.65-10.228-11.707-11.208-12.753-12.201-12.991-12.261-13.227-12.368-13.466-12.373-14.332-12.394-15.2-12.382-16.067-12.382H-50.752-51.747C-51.665-12.302-51.601-12.24-51.545-12.185-51.614-12.243-51.694-12.29-51.787-12.322-51.81-12.368-51.834-12.413-51.865-12.454-51.868-12.619-51.914-12.781-51.998-12.92-52.001-12.931-52.006-12.942-52.01-12.954-52.023-13.011-52.041-13.068-52.065-13.121-52.054-13.103-52.044-13.085-52.035-13.066-51.748-13.051-51.461-13.021-51.175-13.021-38.698-13.019-26.221-13.017-13.745-13.031-13.444-13.031-13.059-12.818-12.827-13.221-12.817-15.486-12.801-17.751-12.799-20.016-12.798-21.679-12.817-23.342-12.827-25.004-12.864-25.047-12.902-25.089-12.939-25.132-12.823-25.069-12.684-25.031-12.521-25.031-12.373-25.031-12.245-25.061-12.137-25.114V-24.48C-12.133-20.613-12.13-16.746-12.126-12.878-12.071-12.8-12.016-12.722-11.96-12.644-11.808-12.473-11.663-12.294-11.501-12.132-7.762-8.395-4.022-4.659-.28-.924-.106-.75 .084-.589 .363-.333 .2-.263 .081-.143 0 0" fill="#f6f8f9"/>
<path transform="matrix(1,0,0,-1,172.7013,217.31241)" d="M0 0C.038 .043 .075 .085 .113 .128 .122 1.79 .141 3.453 .14 5.116 .138 7.381 .122 9.646 .112 11.911-12.691 11.911-25.494 11.909-38.297 11.916-38.563 11.916-38.83 12.014-39.096 12.066-39.105 12.047-39.115 12.029-39.126 12.011-39.146 11.964-39.171 11.92-39.199 11.878-39.226 11.826-39.248 11.774-39.248 11.721-39.256 7.921-39.256 4.121-39.248 .32-39.248 .204-39.152 .087-39.1-.03-39.043-.037-38.986-.045-38.928-.052-38.698-.062-38.468-.08-38.238-.08-25.737-.082-13.237-.082-.736-.08-.52-.08-.303-.064-.086-.054-.059-.034-.03-.016 0 0" fill="#939598"/>
<path transform="matrix(1,0,0,-1,167.3219,200.95511)" d="M0 0C1.83 .578 3.477 1.099 5.268 1.665 4.235 2.083 3.364 2.436 2.492 2.789 2.166 2.379 1.865 2 1.582 1.644H.826C-2.061 1.644-4.947 1.641-7.834 1.647-8.304 1.647-8.757 1.647-9.067 1.078H.739C.484 .706 .299 .436 0 0M-3.835 6.087H6.027C5.694 5.721 5.442 5.445 5.05 5.015 6.986 5.5 8.708 5.932 10.602 6.406 9.573 6.921 8.708 7.355 7.819 7.8 7.641 7.635 7.444 7.501 7.313 7.32 6.895 6.747 6.345 6.633 5.659 6.642 2.916 6.679 .172 6.653-2.572 6.662-3.052 6.664-3.48 6.603-3.835 6.087M-12.553 5.062C-12.782 5.053-13.021 5.082-13.24 5.028-14.65 4.679-16.056 4.312-17.658 3.9-16.79 3.55-16.073 3.285-15.378 2.971-15.017 2.809-14.732 2.79-14.439 3.085-14.002 3.524-13.458 3.596-12.852 3.59-10.104 3.565-7.356 3.599-4.608 3.566-3.894 3.558-3.531 3.905-3.171 4.515-3.553 4.515-3.841 4.515-4.128 4.516-6.876 4.524-9.623 4.533-12.371 4.542-12.276 5.039-12.276 5.039-12.521 5.307-12.532 5.221-12.542 5.142-12.553 5.062M-21.658-1.311C-18.498-1.317-15.338-1.327-12.179-1.321-12.014-1.321-11.85-1.191-11.686-1.121-11.511-.96-11.336-.798-11.161-.636-11.147-.614-11.132-.592-11.117-.57-11.128-.596-11.138-.622-11.149-.648-11.465-.631-11.78-.6-12.095-.6-14.718-.596-17.34-.598-19.963-.598H-20.893C-20.614-.239-20.403 .034-20.191 .307-20.221 .351-20.25 .395-20.28 .439-21.953-.058-23.626-.556-25.489-1.109-24.426-1.538-23.539-1.896-22.686-2.24-22.295-1.886-21.976-1.598-21.658-1.311M-33.042-3.23C-31.488-1.952-29.942-.666-28.38 .602-25.073 3.286-21.758 5.962-18.443 8.638-18.337 8.724-18.207 8.783-18.088 8.854-17.788 8.808-17.489 8.722-17.189 8.722-5.879 8.715 5.431 8.718 16.741 8.709 17.104 8.709 17.466 8.603 17.829 8.546 17.012 7.736 16.197 6.923 15.376 6.115 13.153 3.926 10.933 1.734 8.7-.446 7.669-1.453 6.611-2.434 5.565-3.426 5.219-3.42 4.872-3.409 4.526-3.409-7.635-3.408-19.795-3.41-31.956-3.401-32.318-3.401-32.68-3.289-33.042-3.23" fill="#939598"/>
<path transform="matrix(1,0,0,-1,186.0175,193.21541)" d="M0 0V.697C-.005 .698-.009 .7-.014 .702-.293 .446-.483 .285-.657 .111-4.399-3.624-8.139-7.36-11.878-11.097-12.04-11.259-12.185-11.438-12.337-11.609-12.393-11.687-12.448-11.765-12.503-11.843-12.507-15.711-12.51-19.578-12.514-23.445-12.304-23.454-12.094-23.462-11.885-23.471-11.661-23.246-11.429-23.03-11.216-22.796-9.39-20.79-7.564-18.783-5.745-16.77-3.984-14.822-2.242-12.856-.465-10.922-.125-10.552 .012-10.189 .009-9.696-.009-6.464 0-3.232 0 0" fill="#6d6e71"/>
<path transform="matrix(1,0,0,-1,171.8478,204.3641)" d="M0 0C-12.161 .001-24.321-.001-36.482 .008-36.844 .008-37.206 .12-37.568 .179-37.598 .149-37.63 .118-37.663 .086-37.69 .055-37.72 .026-37.752-.001-37.809-.056-37.873-.119-37.954-.198H-36.959-2.274C-1.407-.198-.54-.211 .327-.19 .566-.184 .802-.077 1.039-.017 .693-.011 .346 0 0 0" fill="#939598"/>
<path transform="matrix(1,0,0,-1,172.8134,205.40091)" d="M0 0C-12.803-.001-25.606-.002-38.409 .005-38.675 .005-38.942 .102-39.208 .154-38.921 .17-38.634 .199-38.347 .199-25.871 .201-13.394 .203-.918 .189-.617 .189-.232 .403 0 0" fill="#939598"/>
<path transform="matrix(1,0,0,-1,185.5554,192.05832)" d="M0 0H-.826C-12.399 0-23.972 0-35.545-.002-35.804-.002-36.062-.029-36.321-.043-36.022-.089-35.722-.174-35.423-.175-24.113-.181-12.803-.179-1.493-.188-1.13-.188-.767-.294-.404-.351-.308-.271-.21-.191 .008-.012 .005-.008 .002-.004 0 0" fill="#939598"/>
<path transform="matrix(1,0,0,-1,173.6084,217.3555)" d="M0 0C.229 .292 .377 .482 .524 .669 .315 .678 .105 .686-.105 .695V.061C-.067 .043-.033 .023 0 0" fill="#6d6e71"/>
<path transform="matrix(1,0,0,-1,173.68,204.82411)" d="M0 0C-.055-.078-.11-.156-.166-.235-.11-.156-.055-.078 0 0" fill="#0f6b96"/>
<path transform="matrix(1,0,0,-1,133.6011,217.3424)" d="M0 0C.057-.007 .115-.015 .172-.022 .115-.015 .057-.007 0 0" fill="#0d6b96"/>
<path transform="matrix(1,0,0,-1,154.9511,196.41312)" d="M0 0C2.747-.009 5.495-.018 8.243-.026 8.53-.027 8.818-.027 9.199-.027 8.84-.637 8.477-.984 7.763-.976 5.015-.943 2.267-.977-.481-.952-1.088-.946-1.631-1.018-2.068-1.457-2.361-1.752-2.647-1.733-3.007-1.571-3.702-1.257-4.42-.992-5.287-.642-3.685-.23-2.279 .137-.869 .486-.651 .54-.412 .511-.182 .52-.281 .364-.381 .208-.513 0Z" fill="#eaeef1"/>
<path transform="matrix(1,0,0,-1,163.4866,194.86801)" d="M0 0C.355 .516 .784 .576 1.263 .575 4.007 .566 6.751 .592 9.494 .555 10.18 .546 10.731 .66 11.148 1.233 11.279 1.414 11.477 1.547 11.655 1.713 12.543 1.268 13.408 .834 14.437 .319 12.544-.155 10.822-.587 8.885-1.072 9.277-.642 9.529-.366 9.863 0Z" fill="#f1f5f7"/>
<path transform="matrix(1,0,0,-1,156.1604,201.591)" d="M0 0C-.175-.162-.35-.324-.525-.485-.841-.493-1.158-.509-1.475-.509-4.184-.511-6.894-.505-9.603-.517-9.901-.518-10.198-.62-10.496-.675-10.815-.962-11.133-1.25-11.525-1.604-12.377-1.26-13.264-.902-14.327-.473-12.465 .08-10.792 .578-9.118 1.075-9.089 1.031-9.059 .987-9.03 .942-9.241 .67-9.453 .397-9.731 .038H-8.801C-6.179 .038-3.556 .04-.934 .036-.618 .036-.303 .005 .012-.012Z" fill="#f0f4f6"/>
<path transform="matrix(1,0,0,-1,167.3219,200.95511)" d="M0 0C.299 .436 .484 .706 .739 1.078H-9.067C-8.757 1.647-8.304 1.647-7.834 1.647-4.947 1.641-2.061 1.644 .826 1.644H1.582C1.865 2 2.166 2.379 2.492 2.789 3.364 2.436 4.235 2.083 5.268 1.665 3.477 1.099 1.83 .578 0 0" fill="#f5f8f9"/>
<path transform="matrix(1,0,0,-1,145.6644,202.26561)" d="M0 0C.298 .055 .595 .156 .893 .157 3.602 .17 6.312 .164 9.021 .166 9.338 .166 9.655 .181 9.971 .189 9.807 .12 9.643-.01 9.479-.011 6.319-.016 3.16-.006 0 0" fill="#939598"/>
<path transform="matrix(1,0,0,-1,154.9511,196.41312)" d="M0 0H-.513C-.381 .208-.281 .364-.182 .52-.172 .6-.161 .679-.15 .765 .095 .497 .095 .497 0 0" fill="#939598"/>
<path transform="matrix(1,0,0,-1,156.1726,201.6027)" d="M0 0C.011 .026 .022 .052 .032 .078 .018 .056 .003 .034-.012 .012Z" fill="#f0f4f6"/>
<g opacity=".789993">
<g clip-path="url(#clip_6)">
<text fill="#414042" xml:space="preserve" transform="matrix(1 0 -0 1 0 283.885)" font-size="14" font-family="Rockwell" font-weight="bold"><tspan y="-67.2246" x="148.4741">4</tspan></text>
</g>
</g>
<path transform="matrix(1,0,0,-1,67.5761,192.1799)" d="M0 0C-.029 .034-.055 .071-.077 .11-.295-.069-.393-.149-.489-.229-1.307-1.039-2.122-1.852-2.942-2.659-5.166-4.848-7.386-7.041-9.618-9.22-10.65-10.228-11.707-11.208-12.753-12.201-12.991-12.261-13.227-12.368-13.466-12.373-14.332-12.394-15.2-12.382-16.067-12.382H-50.752-51.747C-51.665-12.302-51.601-12.24-51.545-12.185-51.614-12.243-51.694-12.29-51.787-12.322-51.81-12.368-51.834-12.413-51.865-12.454-51.868-12.619-51.914-12.781-51.998-12.92-52.001-12.931-52.006-12.942-52.01-12.954-52.023-13.011-52.041-13.068-52.065-13.121-52.054-13.103-52.044-13.085-52.035-13.066-51.748-13.051-51.461-13.021-51.175-13.021-38.698-13.019-26.221-13.017-13.745-13.031-13.444-13.031-13.059-12.818-12.827-13.221-12.817-15.486-12.801-17.751-12.799-20.016-12.798-21.679-12.817-23.342-12.827-25.004-12.864-25.047-12.902-25.089-12.939-25.132-12.823-25.069-12.684-25.031-12.521-25.031-12.373-25.031-12.245-25.061-12.137-25.114V-24.48C-12.133-20.613-12.13-16.746-12.126-12.878-12.071-12.8-12.016-12.722-11.96-12.644-11.808-12.473-11.663-12.294-11.501-12.132-7.762-8.395-4.022-4.659-.28-.924-.106-.75 .084-.589 .363-.333 .2-.263 .081-.143 0 0" fill="#f6f8f9"/>
<path transform="matrix(1,0,0,-1,54.6369,217.31192)" d="M0 0C.038 .043 .075 .085 .113 .128 .122 1.79 .141 3.453 .14 5.116 .138 7.381 .122 9.646 .112 11.911-12.691 11.911-25.494 11.909-38.297 11.916-38.563 11.916-38.83 12.014-39.096 12.066-39.105 12.047-39.115 12.029-39.126 12.011-39.146 11.964-39.171 11.92-39.199 11.878-39.226 11.826-39.248 11.774-39.248 11.721-39.256 7.921-39.256 4.121-39.248 .32-39.248 .204-39.152 .087-39.1-.03-39.043-.037-38.986-.045-38.928-.052-38.698-.062-38.468-.08-38.238-.08-25.737-.082-13.237-.082-.736-.08-.52-.08-.303-.064-.086-.054-.059-.034-.03-.016 0 0" fill="#939598"/>
<path transform="matrix(1,0,0,-1,49.2575,200.95462)" d="M0 0C1.83 .579 3.477 1.099 5.268 1.665 4.235 2.083 3.364 2.436 2.492 2.789 2.166 2.379 1.865 2 1.582 1.644H.826C-2.061 1.644-4.947 1.641-7.834 1.647-8.304 1.647-8.757 1.647-9.067 1.078H.739C.484 .706 .299 .436 0 0M-3.835 6.087H6.027C5.694 5.721 5.442 5.445 5.05 5.015 6.986 5.5 8.708 5.932 10.602 6.406 9.573 6.921 8.708 7.355 7.819 7.8 7.641 7.635 7.444 7.501 7.313 7.32 6.895 6.747 6.345 6.633 5.659 6.642 2.916 6.679 .172 6.653-2.572 6.662-3.052 6.664-3.48 6.603-3.835 6.087M-12.553 5.062C-12.782 5.053-13.021 5.082-13.24 5.028-14.65 4.679-16.056 4.312-17.658 3.9-16.79 3.55-16.073 3.285-15.378 2.971-15.017 2.809-14.732 2.79-14.439 3.085-14.002 3.524-13.458 3.596-12.852 3.59-10.104 3.565-7.356 3.599-4.608 3.566-3.894 3.558-3.531 3.905-3.171 4.515-3.553 4.515-3.841 4.515-4.128 4.516-6.876 4.524-9.623 4.533-12.371 4.542-12.276 5.039-12.276 5.039-12.521 5.307-12.532 5.221-12.542 5.142-12.553 5.062M-21.657-1.311C-18.498-1.317-15.338-1.327-12.179-1.321-12.014-1.321-11.85-1.191-11.686-1.121-11.511-.96-11.336-.798-11.161-.636-11.147-.614-11.132-.592-11.117-.57-11.128-.596-11.138-.622-11.149-.648-11.465-.631-11.78-.6-12.095-.6-14.718-.596-17.34-.598-19.963-.598-20.239-.598-20.514-.598-20.893-.598-20.614-.239-20.403 .034-20.191 .307L-20.28 .439C-21.953-.058-23.626-.556-25.489-1.109-24.426-1.538-23.539-1.896-22.686-2.24-22.295-1.886-21.976-1.598-21.657-1.311M-33.042-3.23C-31.488-1.952-29.942-.666-28.38 .602-25.073 3.286-21.758 5.962-18.443 8.638-18.337 8.724-18.207 8.783-18.088 8.854-17.788 8.808-17.489 8.722-17.189 8.722-5.879 8.715 5.431 8.718 16.741 8.709 17.104 8.709 17.466 8.603 17.829 8.546 17.012 7.736 16.197 6.923 15.376 6.115 13.153 3.926 10.933 1.734 8.7-.446 7.669-1.453 6.611-2.434 5.565-3.426 5.219-3.42 4.872-3.409 4.526-3.409-7.635-3.408-19.795-3.41-31.956-3.401-32.318-3.401-32.68-3.289-33.042-3.23" fill="#939598"/>
<path transform="matrix(1,0,0,-1,67.9531,193.2149)" d="M0 0V.697C-.005 .698-.009 .7-.014 .702-.293 .446-.483 .285-.657 .111-4.399-3.624-8.139-7.36-11.878-11.097-12.04-11.259-12.185-11.438-12.337-11.609-12.393-11.687-12.448-11.765-12.503-11.843-12.507-15.711-12.51-19.578-12.514-23.445-12.304-23.454-12.094-23.462-11.885-23.471-11.661-23.246-11.429-23.03-11.216-22.796-9.39-20.79-7.564-18.783-5.745-16.77-3.984-14.822-2.242-12.856-.465-10.922-.125-10.552 .012-10.189 .009-9.696-.009-6.464 0-3.232 0 0" fill="#6d6e71"/>
<path transform="matrix(1,0,0,-1,53.7834,204.36371)" d="M0 0C-12.161 .001-24.321-.001-36.482 .008-36.844 .009-37.206 .12-37.568 .179-37.598 .149-37.63 .118-37.663 .086-37.69 .055-37.72 .026-37.752-.001-37.809-.056-37.873-.119-37.954-.198H-36.959-2.274C-1.407-.198-.54-.211 .327-.19 .566-.184 .802-.077 1.039-.017 .693-.011 .346 0 0 0" fill="#939598"/>
<path transform="matrix(1,0,0,-1,54.7491,205.40052)" d="M0 0C-12.803-.001-25.606-.002-38.409 .005-38.675 .005-38.942 .102-39.208 .154-38.921 .17-38.634 .199-38.347 .199-25.871 .201-13.394 .203-.918 .189-.617 .189-.232 .403 0 0" fill="#939598"/>
<path transform="matrix(1,0,0,-1,67.4911,192.0578)" d="M0 0H-.826C-12.399 0-23.972 0-35.545-.002-35.804-.002-36.062-.029-36.321-.043-36.022-.089-35.722-.174-35.423-.175-24.113-.181-12.803-.179-1.493-.188-1.13-.188-.767-.294-.404-.351-.308-.271-.21-.191 .008-.012 .005-.008 .002-.004 0 0" fill="#939598"/>
<path transform="matrix(1,0,0,-1,55.544,217.35501)" d="M0 0C.229 .292 .377 .482 .524 .669 .315 .678 .105 .686-.105 .695V.061C-.067 .043-.033 .023 0 0" fill="#6d6e71"/>
<path transform="matrix(1,0,0,-1,55.6156,204.82361)" d="M0 0C-.055-.078-.11-.156-.166-.235-.11-.156-.055-.078 0 0" fill="#0f6b96"/>
<path transform="matrix(1,0,0,-1,15.5367,217.34192)" d="M0 0C.057-.007 .115-.015 .172-.022 .115-.015 .057-.007 0 0" fill="#0d6b96"/>
<path transform="matrix(1,0,0,-1,36.8867,196.41262)" d="M0 0C2.748-.009 5.495-.018 8.243-.026 8.53-.027 8.818-.027 9.199-.027 8.84-.637 8.477-.984 7.763-.976 5.015-.943 2.267-.977-.481-.952-1.088-.946-1.631-1.018-2.068-1.457-2.361-1.752-2.647-1.733-3.007-1.571-3.702-1.257-4.42-.992-5.287-.642-3.685-.23-2.279 .137-.869 .486-.651 .54-.412 .511-.182 .52-.281 .364-.381 .208-.513 0Z" fill="#eaeef1"/>
<path transform="matrix(1,0,0,-1,45.4223,194.86751)" d="M0 0C.355 .516 .784 .576 1.263 .575 4.007 .566 6.751 .592 9.494 .555 10.18 .546 10.731 .66 11.148 1.233 11.279 1.414 11.477 1.547 11.655 1.713 12.543 1.268 13.408 .834 14.437 .319 12.544-.155 10.822-.587 8.885-1.072 9.277-.642 9.529-.366 9.863 0Z" fill="#f1f5f7"/>
<path transform="matrix(1,0,0,-1,38.096,201.59052)" d="M0 0C-.175-.162-.35-.324-.525-.485-.841-.493-1.158-.509-1.475-.509-4.184-.511-6.894-.505-9.603-.517-9.901-.518-10.198-.62-10.496-.675-10.815-.962-11.133-1.25-11.525-1.604-12.377-1.26-13.264-.902-14.327-.473-12.465 .08-10.792 .578-9.118 1.075L-9.03 .942C-9.241 .67-9.453 .397-9.731 .038-9.353 .038-9.077 .038-8.801 .038-6.179 .038-3.556 .04-.934 .036-.618 .036-.303 .005 .012-.012Z" fill="#f0f4f6"/>
<path transform="matrix(1,0,0,-1,49.2575,200.95462)" d="M0 0C.299 .436 .484 .706 .739 1.078H-9.067C-8.757 1.647-8.304 1.647-7.834 1.647-4.947 1.641-2.061 1.644 .826 1.644H1.582C1.865 2 2.166 2.379 2.492 2.789 3.364 2.436 4.235 2.083 5.268 1.665 3.477 1.099 1.83 .579 0 0" fill="#f5f8f9"/>
<path transform="matrix(1,0,0,-1,27.6,202.2651)" d="M0 0C.298 .055 .595 .156 .893 .157 3.602 .17 6.312 .164 9.021 .166 9.338 .166 9.655 .181 9.971 .189 9.807 .12 9.643-.01 9.479-.01 6.319-.016 3.16-.006 0 0" fill="#939598"/>
<path transform="matrix(1,0,0,-1,36.8867,196.41262)" d="M0 0H-.513C-.381 .208-.281 .364-.182 .52-.172 .6-.161 .679-.15 .765 .095 .497 .095 .497 0 0" fill="#939598"/>
<path transform="matrix(1,0,0,-1,38.1083,201.6022)" d="M0 0C.011 .026 .022 .052 .032 .078 .018 .056 .003 .034-.012 .012Z" fill="#f0f4f6"/>
<g opacity=".789993">
<g clip-path="url(#clip_7)">
<text fill="#414042" xml:space="preserve" transform="matrix(1 0 -0 1 0 283.885)" font-size="14" font-family="Rockwell" font-weight="bold"><tspan y="-67.2246" x="30.1934">3</tspan></text>
</g>
</g>
<path transform="matrix(1,0,0,-1,347.8888,111.45412)" d="M0 0C-.029 .034-.055 .071-.077 .11-.295-.069-.393-.149-.489-.229-1.307-1.039-2.122-1.852-2.942-2.659-5.166-4.848-7.386-7.041-9.618-9.22-10.65-10.228-11.707-11.208-12.753-12.201-12.991-12.261-13.227-12.368-13.466-12.373-14.332-12.394-15.2-12.382-16.067-12.382H-50.752-51.747C-51.665-12.302-51.601-12.24-51.545-12.185-51.614-12.243-51.694-12.29-51.787-12.322-51.81-12.368-51.834-12.413-51.865-12.454-51.868-12.619-51.914-12.781-51.998-12.92-52.001-12.931-52.006-12.942-52.01-12.954-52.023-13.011-52.041-13.068-52.065-13.121-52.054-13.103-52.044-13.085-52.035-13.066-51.748-13.051-51.461-13.021-51.174-13.021-38.698-13.019-26.221-13.017-13.745-13.031-13.444-13.031-13.059-12.818-12.827-13.221-12.817-15.486-12.801-17.751-12.799-20.016-12.798-21.679-12.817-23.342-12.827-25.004L-12.939-25.132C-12.823-25.069-12.684-25.031-12.521-25.031-12.373-25.031-12.245-25.061-12.137-25.114V-24.48C-12.133-20.613-12.13-16.746-12.126-12.878-12.071-12.8-12.016-12.722-11.96-12.644-11.808-12.473-11.663-12.294-11.501-12.132-7.762-8.395-4.022-4.659-.28-.924-.106-.75 .084-.589 .363-.333 .2-.263 .081-.143 0 0" fill="#f6f8f9"/>
<path transform="matrix(1,0,0,-1,334.9496,136.5861)" d="M0 0 .113 .128C.122 1.79 .141 3.453 .14 5.116 .138 7.381 .122 9.646 .112 11.911-12.691 11.911-25.494 11.909-38.297 11.916-38.563 11.916-38.83 12.014-39.096 12.066-39.105 12.047-39.115 12.029-39.126 12.011-39.146 11.964-39.171 11.92-39.199 11.878-39.226 11.826-39.248 11.774-39.248 11.721-39.256 7.921-39.256 4.121-39.248 .32-39.248 .203-39.152 .087-39.1-.03-39.043-.037-38.986-.045-38.928-.052-38.698-.062-38.468-.08-38.238-.08-25.737-.082-13.237-.082-.736-.08-.52-.08-.303-.064-.086-.054-.059-.034-.03-.016 0 0" fill="#939598"/>
<path transform="matrix(1,0,0,-1,329.5702,120.228809)" d="M0 0C1.83 .578 3.477 1.099 5.268 1.665 4.235 2.083 3.364 2.436 2.492 2.789 2.166 2.379 1.865 2 1.582 1.644H.826C-2.061 1.644-4.947 1.641-7.834 1.647-8.304 1.647-8.757 1.647-9.067 1.078H.739C.484 .706 .299 .436 0 0M-3.835 6.087H6.027C5.694 5.721 5.442 5.445 5.05 5.015 6.986 5.5 8.708 5.932 10.602 6.406 9.573 6.921 8.708 7.355 7.819 7.8 7.641 7.635 7.444 7.501 7.313 7.32 6.895 6.747 6.345 6.633 5.659 6.642 2.916 6.679 .172 6.653-2.572 6.662-3.052 6.664-3.48 6.603-3.835 6.087M-12.553 5.062C-12.782 5.053-13.021 5.082-13.24 5.028-14.65 4.679-16.056 4.312-17.658 3.9-16.79 3.55-16.073 3.284-15.378 2.971-15.017 2.809-14.732 2.79-14.439 3.085-14.002 3.524-13.458 3.596-12.852 3.59-10.104 3.565-7.356 3.599-4.608 3.566-3.894 3.558-3.531 3.905-3.171 4.515-3.553 4.515-3.841 4.515-4.128 4.516-6.876 4.524-9.623 4.533-12.371 4.542-12.276 5.039-12.276 5.039-12.521 5.307-12.532 5.221-12.542 5.142-12.553 5.062M-21.658-1.311C-18.498-1.317-15.338-1.327-12.179-1.321-12.014-1.321-11.85-1.191-11.686-1.121-11.511-.96-11.336-.798-11.161-.636-11.147-.614-11.132-.592-11.117-.57-11.128-.596-11.138-.622-11.149-.648-11.465-.631-11.78-.6-12.095-.6-14.718-.596-17.34-.598-19.963-.598H-20.893C-20.614-.239-20.403 .034-20.191 .307-20.221 .351-20.25 .395-20.28 .439-21.953-.058-23.626-.556-25.489-1.109-24.426-1.538-23.539-1.896-22.686-2.24-22.295-1.886-21.976-1.598-21.658-1.311M-33.042-3.23C-31.488-1.952-29.942-.666-28.38 .602-25.073 3.286-21.758 5.962-18.443 8.638-18.337 8.724-18.207 8.783-18.088 8.854-17.788 8.808-17.489 8.722-17.189 8.722-5.879 8.715 5.431 8.718 16.741 8.709 17.104 8.709 17.466 8.603 17.829 8.546 17.012 7.736 16.197 6.923 15.376 6.115 13.153 3.926 10.933 1.734 8.7-.446 7.669-1.453 6.611-2.434 5.565-3.426 5.219-3.42 4.872-3.409 4.526-3.409-7.635-3.408-19.796-3.41-31.956-3.401-32.318-3.401-32.68-3.289-33.042-3.23" fill="#939598"/>
<path transform="matrix(1,0,0,-1,348.2658,112.48921)" d="M0 0V.697C-.005 .698-.009 .7-.014 .702-.293 .446-.483 .285-.657 .111-4.399-3.624-8.139-7.36-11.878-11.097-12.04-11.259-12.185-11.438-12.338-11.609-12.393-11.687-12.448-11.765-12.503-11.843-12.507-15.711-12.51-19.578-12.514-23.445L-11.885-23.471C-11.661-23.246-11.429-23.03-11.216-22.796-9.39-20.79-7.564-18.783-5.745-16.77-3.984-14.822-2.242-12.856-.465-10.922-.125-10.552 .012-10.189 .009-9.696-.009-6.464 0-3.232 0 0" fill="#6d6e71"/>
<path transform="matrix(1,0,0,-1,334.0961,123.63791)" d="M0 0C-12.161 .001-24.321-.001-36.482 .008-36.844 .008-37.206 .12-37.568 .179-37.598 .149-37.63 .118-37.663 .086-37.69 .055-37.72 .026-37.752-.001-37.809-.056-37.873-.119-37.954-.198H-36.959-2.274C-1.407-.198-.54-.211 .327-.19 .566-.184 .802-.077 1.039-.017 .693-.011 .346 0 0 0" fill="#939598"/>
<path transform="matrix(1,0,0,-1,335.0617,124.67471)" d="M0 0C-12.803-.001-25.606-.002-38.409 .005-38.675 .005-38.942 .102-39.208 .154-38.921 .17-38.634 .199-38.347 .199-25.871 .201-13.394 .203-.918 .189-.617 .189-.232 .403 0 0" fill="#939598"/>
<path transform="matrix(1,0,0,-1,347.8037,111.332019)" d="M0 0H-.826C-12.399 0-23.972 0-35.545-.002-35.804-.002-36.062-.029-36.321-.043-36.022-.089-35.722-.174-35.423-.175-24.113-.181-12.803-.179-1.493-.188-1.13-.188-.767-.294-.404-.351-.308-.271-.21-.191 .008-.012 .005-.008 .002-.004 0 0" fill="#939598"/>
<path transform="matrix(1,0,0,-1,335.8567,136.62921)" d="M0 0C.229 .292 .377 .482 .524 .669L-.105 .695V.061C-.067 .043-.033 .023 0 0" fill="#6d6e71"/>
<path transform="matrix(1,0,0,-1,335.9283,124.09781)" d="M0 0C-.055-.078-.11-.156-.166-.235-.11-.156-.055-.078 0 0" fill="#0f6b96"/>
<path transform="matrix(1,0,0,-1,295.8494,136.6161)" d="M0 0C.057-.007 .115-.015 .172-.022 .115-.015 .057-.007 0 0" fill="#0d6b96"/>
<path transform="matrix(1,0,0,-1,317.1994,115.68681)" d="M0 0C2.747-.009 5.495-.018 8.243-.026 8.53-.027 8.818-.027 9.199-.027 8.84-.637 8.477-.984 7.763-.976 5.015-.943 2.267-.977-.481-.952-1.088-.946-1.631-1.018-2.068-1.457-2.361-1.752-2.647-1.733-3.007-1.571-3.703-1.257-4.42-.992-5.287-.642-3.685-.23-2.279 .137-.869 .486-.651 .54-.412 .511-.182 .52-.281 .364-.381 .208-.513 0Z" fill="#eaeef1"/>
<path transform="matrix(1,0,0,-1,325.735,114.14171)" d="M0 0C.355 .516 .784 .576 1.263 .575 4.007 .565 6.751 .592 9.494 .555 10.18 .546 10.731 .66 11.148 1.233 11.279 1.414 11.477 1.547 11.655 1.713 12.543 1.268 13.408 .834 14.437 .319 12.544-.155 10.822-.587 8.885-1.072 9.277-.642 9.529-.366 9.863 0Z" fill="#f1f5f7"/>
<path transform="matrix(1,0,0,-1,318.4087,120.86481)" d="M0 0C-.175-.162-.35-.324-.525-.485-.841-.493-1.158-.509-1.475-.509-4.184-.511-6.894-.505-9.603-.517-9.901-.518-10.198-.62-10.496-.675-10.815-.962-11.133-1.25-11.525-1.604-12.377-1.26-13.264-.902-14.327-.473-12.465 .08-10.792 .578-9.118 1.075-9.089 1.031-9.059 .987-9.03 .942-9.241 .67-9.453 .397-9.731 .038H-8.801C-6.179 .038-3.556 .04-.934 .036-.618 .036-.303 .005 .012-.012Z" fill="#f0f4f6"/>
<path transform="matrix(1,0,0,-1,329.5702,120.228809)" d="M0 0C.299 .436 .484 .706 .739 1.078H-9.067C-8.757 1.647-8.304 1.647-7.834 1.647-4.947 1.641-2.061 1.644 .826 1.644H1.582C1.865 2 2.166 2.379 2.492 2.789 3.364 2.436 4.235 2.083 5.268 1.665 3.477 1.099 1.83 .578 0 0" fill="#f5f8f9"/>
<path transform="matrix(1,0,0,-1,307.9127,121.53931)" d="M0 0C.298 .055 .595 .156 .893 .157 3.602 .17 6.312 .164 9.021 .166 9.338 .166 9.655 .181 9.971 .189 9.807 .12 9.643-.01 9.479-.011 6.319-.016 3.16-.006 0 0" fill="#939598"/>
<path transform="matrix(1,0,0,-1,317.1994,115.68681)" d="M0 0H-.513C-.381 .208-.281 .364-.182 .52-.172 .6-.161 .679-.15 .765 .095 .497 .095 .497 0 0" fill="#939598"/>
<path transform="matrix(1,0,0,-1,318.4209,120.8764)" d="M0 0C.011 .026 .022 .052 .032 .078 .018 .056 .003 .034-.012 .012Z" fill="#f0f4f6"/>
<g opacity=".789993">
<g clip-path="url(#clip_8)">
<text fill="#414042" xml:space="preserve" transform="matrix(1 0 -0 1 0 283.885)" font-size="14" font-family="Rockwell" font-weight="bold"><tspan y="-147.9502" x="311.4824">1</tspan></text>
</g>
</g>
<path transform="matrix(1,0,0,-1,465.9532,113.0854)" d="M0 0C-.029 .034-.055 .071-.077 .11-.295-.069-.393-.149-.489-.229-1.307-1.039-2.122-1.852-2.942-2.659-5.166-4.848-7.386-7.041-9.618-9.22-10.65-10.228-11.707-11.208-12.753-12.201-12.991-12.261-13.227-12.368-13.466-12.373-14.332-12.394-15.2-12.382-16.067-12.382H-50.752-51.747C-51.665-12.302-51.601-12.24-51.545-12.185-51.614-12.243-51.694-12.29-51.787-12.322-51.81-12.368-51.834-12.413-51.865-12.454-51.868-12.619-51.914-12.781-51.998-12.92-52.001-12.931-52.006-12.942-52.01-12.954-52.023-13.011-52.041-13.068-52.065-13.121-52.055-13.103-52.044-13.085-52.035-13.066-51.748-13.051-51.461-13.021-51.175-13.021-38.698-13.019-26.221-13.017-13.745-13.031-13.444-13.031-13.059-12.818-12.827-13.221-12.817-15.486-12.801-17.751-12.799-20.016-12.798-21.679-12.817-23.342-12.827-25.004-12.864-25.047-12.902-25.089-12.939-25.132-12.823-25.069-12.684-25.031-12.521-25.031-12.373-25.031-12.245-25.061-12.137-25.114V-24.48C-12.133-20.613-12.13-16.746-12.126-12.878-12.071-12.8-12.016-12.722-11.96-12.644-11.808-12.473-11.663-12.294-11.501-12.132-7.762-8.395-4.022-4.659-.28-.924-.106-.75 .084-.589 .363-.333 .2-.263 .081-.143 0 0" fill="#f6f8f9"/>
<path transform="matrix(1,0,0,-1,453.014,138.2174)" d="M0 0C.038 .043 .075 .085 .113 .128 .122 1.79 .141 3.453 .14 5.116 .138 7.381 .122 9.646 .112 11.911-12.691 11.911-25.494 11.909-38.297 11.916-38.563 11.916-38.83 12.014-39.096 12.066-39.105 12.047-39.115 12.029-39.126 12.011-39.146 11.964-39.171 11.92-39.199 11.878-39.226 11.826-39.248 11.774-39.248 11.721-39.256 7.921-39.256 4.121-39.248 .32-39.248 .204-39.152 .087-39.1-.03-39.043-.037-38.986-.045-38.928-.052-38.698-.062-38.468-.08-38.238-.08-25.737-.082-13.237-.082-.736-.08-.52-.08-.303-.064-.086-.054-.059-.034-.03-.016 0 0" fill="#939598"/>
<path transform="matrix(1,0,0,-1,447.6346,121.860019)" d="M0 0C1.83 .578 3.477 1.099 5.268 1.665 4.235 2.083 3.364 2.436 2.492 2.789 2.166 2.379 1.865 2 1.582 1.644H.826C-2.061 1.644-4.947 1.641-7.834 1.647-8.304 1.647-8.757 1.647-9.067 1.078H.739C.484 .706 .299 .436 0 0M-3.835 6.087H6.027C5.694 5.721 5.442 5.445 5.05 5.015 6.986 5.5 8.708 5.932 10.602 6.406 9.573 6.921 8.708 7.355 7.819 7.8 7.641 7.635 7.444 7.501 7.313 7.32 6.895 6.747 6.345 6.633 5.659 6.642 2.916 6.679 .172 6.653-2.572 6.662-3.052 6.664-3.48 6.603-3.835 6.087M-12.553 5.062C-12.782 5.053-13.021 5.082-13.24 5.028-14.65 4.679-16.056 4.312-17.658 3.9-16.79 3.55-16.073 3.285-15.378 2.971-15.017 2.809-14.732 2.79-14.439 3.085-14.002 3.524-13.458 3.596-12.852 3.59-10.104 3.565-7.356 3.599-4.608 3.566-3.894 3.558-3.531 3.905-3.171 4.515-3.553 4.515-3.841 4.515-4.128 4.516-6.876 4.524-9.623 4.533-12.371 4.542-12.276 5.039-12.276 5.039-12.521 5.307-12.532 5.221-12.543 5.142-12.553 5.062M-21.658-1.311C-18.498-1.317-15.338-1.327-12.179-1.321-12.014-1.321-11.85-1.191-11.686-1.121-11.511-.96-11.336-.798-11.161-.636-11.147-.614-11.132-.592-11.117-.57-11.128-.596-11.138-.622-11.149-.648-11.465-.631-11.78-.6-12.095-.6-14.718-.596-17.34-.598-19.963-.598H-20.893C-20.614-.239-20.403 .034-20.191 .307-20.221 .351-20.25 .395-20.28 .439-21.953-.058-23.626-.556-25.489-1.109-24.426-1.538-23.539-1.896-22.686-2.24-22.295-1.886-21.976-1.598-21.658-1.311M-33.042-3.23C-31.488-1.952-29.942-.666-28.38 .602-25.073 3.286-21.758 5.962-18.443 8.638-18.337 8.724-18.207 8.783-18.088 8.854-17.788 8.808-17.489 8.722-17.189 8.722-5.879 8.715 5.431 8.718 16.741 8.709 17.104 8.709 17.466 8.603 17.829 8.546 17.012 7.736 16.197 6.923 15.376 6.115 13.153 3.926 10.933 1.734 8.7-.446 7.669-1.453 6.611-2.434 5.565-3.426 5.219-3.42 4.872-3.409 4.526-3.409-7.635-3.408-19.796-3.41-31.956-3.401-32.318-3.401-32.68-3.289-33.042-3.23" fill="#939598"/>
<path transform="matrix(1,0,0,-1,466.3302,114.12041)" d="M0 0V.697C-.005 .698-.009 .7-.014 .702-.293 .446-.483 .285-.657 .111-4.399-3.624-8.139-7.36-11.878-11.097-12.04-11.259-12.185-11.438-12.337-11.609-12.393-11.687-12.448-11.765-12.503-11.843-12.507-15.711-12.51-19.578-12.514-23.445-12.304-23.454-12.094-23.462-11.885-23.471-11.661-23.246-11.429-23.03-11.216-22.796-9.39-20.79-7.564-18.783-5.745-16.77-3.984-14.822-2.242-12.856-.465-10.922-.125-10.552 .012-10.189 .009-9.696-.009-6.464 0-3.232 0 0" fill="#6d6e71"/>
<path transform="matrix(1,0,0,-1,452.1605,125.269107)" d="M0 0C-12.161 .001-24.321-.001-36.482 .008-36.844 .008-37.206 .12-37.568 .179-37.598 .149-37.63 .118-37.663 .086-37.69 .055-37.72 .026-37.752-.001-37.809-.056-37.873-.119-37.954-.198H-36.959-2.274C-1.407-.198-.54-.211 .327-.19 .566-.184 .802-.077 1.039-.017 .693-.011 .346 0 0 0" fill="#939598"/>
<path transform="matrix(1,0,0,-1,453.1261,126.30591)" d="M0 0C-12.803-.001-25.606-.002-38.409 .005-38.675 .005-38.942 .102-39.208 .154-38.921 .17-38.634 .199-38.347 .199-25.871 .201-13.394 .203-.918 .189-.617 .189-.232 .403 0 0" fill="#939598"/>
<path transform="matrix(1,0,0,-1,465.8681,112.9633)" d="M0 0H-.826C-12.399 0-23.972 0-35.545-.002-35.803-.002-36.062-.029-36.321-.043-36.022-.089-35.722-.174-35.423-.175-24.113-.181-12.803-.179-1.493-.188-1.13-.188-.767-.294-.404-.351-.308-.271-.21-.191 .008-.012 .005-.008 .002-.004 0 0" fill="#939598"/>
<path transform="matrix(1,0,0,-1,453.9211,138.26052)" d="M0 0C.229 .292 .377 .482 .524 .669 .315 .678 .105 .686-.105 .695V.061C-.067 .043-.033 .023 0 0" fill="#6d6e71"/>
<path transform="matrix(1,0,0,-1,453.9927,125.729007)" d="M0 0C-.055-.078-.11-.156-.166-.235-.11-.156-.055-.078 0 0" fill="#0f6b96"/>
<path transform="matrix(1,0,0,-1,413.9138,138.2474)" d="M0 0C.057-.007 .115-.015 .172-.022 .115-.015 .057-.007 0 0" fill="#0d6b96"/>
<path transform="matrix(1,0,0,-1,435.2638,117.318119)" d="M0 0C2.748-.009 5.495-.018 8.243-.026 8.53-.027 8.818-.027 9.199-.027 8.84-.637 8.477-.984 7.763-.976 5.015-.943 2.267-.977-.481-.952-1.088-.946-1.631-1.018-2.068-1.457-2.361-1.752-2.647-1.733-3.007-1.571-3.702-1.257-4.42-.992-5.287-.642-3.685-.23-2.279 .137-.869 .486-.651 .54-.411 .511-.182 .52-.281 .364-.381 .208-.513 0Z" fill="#eaeef1"/>
<path transform="matrix(1,0,0,-1,443.7993,115.77301)" d="M0 0C.355 .516 .784 .576 1.263 .575 4.007 .566 6.751 .592 9.494 .555 10.18 .546 10.731 .66 11.148 1.233 11.279 1.414 11.477 1.547 11.655 1.713 12.543 1.268 13.408 .834 14.437 .319 12.544-.155 10.822-.587 8.885-1.072 9.277-.642 9.529-.366 9.863 0Z" fill="#f1f5f7"/>
<path transform="matrix(1,0,0,-1,436.4731,122.496)" d="M0 0C-.175-.162-.35-.324-.525-.485-.841-.493-1.158-.509-1.475-.509-4.184-.511-6.894-.505-9.603-.517-9.901-.518-10.198-.62-10.496-.675-10.815-.962-11.133-1.25-11.525-1.604-12.377-1.26-13.264-.902-14.327-.473-12.465 .08-10.792 .578-9.118 1.075-9.089 1.031-9.059 .987-9.03 .942-9.241 .67-9.453 .397-9.731 .038H-8.801C-6.179 .038-3.556 .04-.934 .036-.618 .036-.303 .005 .012-.012Z" fill="#f0f4f6"/>
<path transform="matrix(1,0,0,-1,447.6346,121.860019)" d="M0 0C.299 .436 .484 .706 .739 1.078H-9.067C-8.757 1.647-8.304 1.647-7.834 1.647-4.947 1.641-2.061 1.644 .826 1.644H1.582C1.865 2 2.166 2.379 2.492 2.789 3.364 2.436 4.235 2.083 5.268 1.665 3.477 1.099 1.83 .578 0 0" fill="#f5f8f9"/>
<path transform="matrix(1,0,0,-1,425.9771,123.17052)" d="M0 0C.298 .055 .595 .156 .893 .157 3.602 .17 6.312 .164 9.021 .166 9.338 .166 9.655 .181 9.971 .189 9.807 .12 9.643-.01 9.479-.01 6.319-.016 3.16-.006 0 0" fill="#939598"/>
<path transform="matrix(1,0,0,-1,435.2638,117.318119)" d="M0 0H-.513C-.381 .208-.281 .364-.182 .52-.172 .6-.161 .679-.15 .765 .095 .497 .095 .497 0 0" fill="#939598"/>
<path transform="matrix(1,0,0,-1,436.4853,122.507709)" d="M0 0C.011 .026 .022 .052 .032 .078 .018 .056 .003 .034-.012 .012Z" fill="#f0f4f6"/>
<g opacity=".789993">
<g clip-path="url(#clip_9)">
<text fill="#414042" xml:space="preserve" transform="matrix(1 0 -0 1 0 283.885)" font-size="14" font-family="Rockwell" font-weight="bold"><tspan y="-146.6826" x="429.0493">2</tspan></text>
</g>
</g>
<path transform="matrix(1,0,0,-1,465.9532,187.87012)" d="M0 0C-.029 .034-.055 .071-.077 .11-.295-.069-.393-.149-.489-.229-1.307-1.039-2.122-1.852-2.942-2.659-5.166-4.848-7.386-7.041-9.618-9.22-10.65-10.228-11.707-11.208-12.753-12.201-12.991-12.261-13.227-12.368-13.466-12.373-14.332-12.394-15.2-12.382-16.067-12.382H-50.752-51.747C-51.665-12.302-51.601-12.24-51.545-12.185-51.614-12.243-51.694-12.29-51.787-12.322-51.81-12.368-51.834-12.413-51.865-12.454-51.868-12.619-51.914-12.781-51.998-12.92-52.001-12.931-52.006-12.942-52.01-12.954-52.023-13.011-52.041-13.068-52.065-13.121-52.055-13.103-52.044-13.085-52.035-13.066-51.748-13.051-51.461-13.021-51.175-13.021-38.698-13.019-26.221-13.017-13.745-13.031-13.444-13.031-13.059-12.818-12.827-13.221-12.817-15.486-12.801-17.751-12.799-20.016-12.798-21.679-12.817-23.342-12.827-25.004-12.864-25.047-12.902-25.089-12.939-25.132-12.823-25.069-12.684-25.031-12.521-25.031-12.373-25.031-12.245-25.061-12.137-25.114V-24.48C-12.133-20.613-12.13-16.746-12.126-12.878-12.071-12.8-12.016-12.722-11.96-12.644-11.808-12.473-11.663-12.294-11.501-12.132-7.762-8.395-4.022-4.659-.28-.924-.106-.75 .084-.589 .363-.333 .2-.263 .081-.143 0 0" fill="#f6f8f9"/>
<path transform="matrix(1,0,0,-1,453.014,213.0021)" d="M0 0C.038 .043 .075 .085 .113 .128 .122 1.79 .141 3.453 .14 5.116 .138 7.381 .122 9.646 .112 11.911-12.691 11.911-25.494 11.909-38.297 11.916-38.563 11.916-38.83 12.014-39.096 12.066-39.105 12.047-39.115 12.029-39.126 12.011-39.146 11.964-39.171 11.92-39.199 11.878-39.226 11.826-39.248 11.774-39.248 11.721-39.256 7.921-39.256 4.121-39.248 .32-39.248 .204-39.152 .087-39.1-.03-39.043-.037-38.986-.045-38.928-.052-38.698-.062-38.468-.08-38.238-.08-25.737-.082-13.237-.082-.736-.08-.52-.08-.303-.064-.086-.054-.059-.034-.03-.016 0 0" fill="#939598"/>
<path transform="matrix(1,0,0,-1,447.6346,196.64472)" d="M0 0C1.83 .578 3.477 1.099 5.268 1.665 4.235 2.083 3.364 2.436 2.492 2.789 2.166 2.379 1.865 2 1.582 1.644 1.287 1.644 1.057 1.644 .826 1.644-2.061 1.644-4.947 1.641-7.834 1.647-8.304 1.647-8.757 1.647-9.067 1.078H.739C.484 .706 .299 .436 0 0M-3.835 6.087H6.027C5.694 5.721 5.442 5.445 5.05 5.015 6.986 5.5 8.708 5.932 10.602 6.406 9.573 6.921 8.708 7.355 7.819 7.8 7.641 7.635 7.444 7.501 7.313 7.32 6.895 6.747 6.345 6.633 5.659 6.642 2.916 6.679 .172 6.653-2.572 6.662-3.052 6.664-3.48 6.603-3.835 6.087M-12.553 5.062C-12.782 5.053-13.021 5.082-13.24 5.028-14.65 4.679-16.056 4.312-17.658 3.9-16.79 3.55-16.073 3.285-15.378 2.971-15.017 2.809-14.732 2.79-14.439 3.085-14.002 3.524-13.458 3.596-12.852 3.59-10.104 3.565-7.356 3.599-4.608 3.566-3.894 3.558-3.531 3.905-3.171 4.515-3.553 4.515-3.841 4.515-4.128 4.516-6.876 4.524-9.623 4.533-12.371 4.542-12.276 5.039-12.276 5.039-12.521 5.307-12.532 5.221-12.543 5.142-12.553 5.062M-21.658-1.311C-18.498-1.317-15.338-1.327-12.179-1.321-12.014-1.321-11.85-1.191-11.686-1.121-11.511-.96-11.336-.798-11.161-.636-11.147-.614-11.132-.592-11.117-.57-11.128-.596-11.138-.622-11.149-.648-11.465-.631-11.78-.6-12.095-.6-14.718-.596-17.34-.598-19.963-.598H-20.893C-20.614-.239-20.403 .034-20.191 .307-20.221 .351-20.25 .395-20.28 .439-21.953-.058-23.626-.556-25.489-1.109-24.426-1.538-23.539-1.896-22.686-2.24-22.295-1.886-21.976-1.598-21.658-1.311M-33.042-3.23C-31.488-1.952-29.942-.666-28.38 .602-25.073 3.286-21.758 5.962-18.443 8.638-18.337 8.724-18.207 8.783-18.088 8.854-17.788 8.808-17.489 8.722-17.189 8.722-5.879 8.715 5.431 8.718 16.741 8.709 17.104 8.709 17.466 8.603 17.829 8.546 17.012 7.736 16.197 6.923 15.376 6.115 13.153 3.926 10.933 1.734 8.7-.446 7.669-1.453 6.611-2.434 5.565-3.426 5.219-3.42 4.872-3.409 4.526-3.409-7.635-3.408-19.796-3.41-31.956-3.401-32.318-3.401-32.68-3.289-33.042-3.23" fill="#939598"/>
<path transform="matrix(1,0,0,-1,466.3302,188.90512)" d="M0 0V.697C-.005 .698-.009 .7-.014 .702-.293 .446-.483 .285-.657 .111-4.399-3.624-8.139-7.36-11.878-11.097-12.04-11.259-12.185-11.438-12.337-11.609-12.393-11.687-12.448-11.765-12.503-11.843-12.507-15.711-12.51-19.578-12.514-23.445-12.304-23.454-12.094-23.462-11.885-23.471-11.661-23.246-11.429-23.03-11.216-22.796-9.39-20.79-7.564-18.783-5.745-16.77-3.984-14.822-2.242-12.856-.465-10.922-.125-10.552 .012-10.189 .009-9.696-.009-6.464 0-3.232 0 0" fill="#6d6e71"/>
<path transform="matrix(1,0,0,-1,452.1605,200.0538)" d="M0 0C-12.161 .001-24.321-.001-36.482 .008-36.844 .008-37.206 .12-37.568 .179-37.598 .149-37.63 .118-37.663 .086-37.69 .055-37.72 .026-37.752-.001-37.809-.056-37.873-.119-37.954-.198H-36.959-2.274C-1.407-.198-.54-.211 .327-.19 .566-.184 .802-.077 1.039-.017 .693-.011 .346 0 0 0" fill="#939598"/>
<path transform="matrix(1,0,0,-1,453.1261,201.0906)" d="M0 0C-12.803-.001-25.606-.002-38.409 .005-38.675 .005-38.942 .102-39.208 .154-38.921 .17-38.634 .199-38.347 .199-25.871 .201-13.394 .203-.918 .189-.617 .189-.232 .403 0 0" fill="#939598"/>
<path transform="matrix(1,0,0,-1,465.8681,187.74791)" d="M0 0H-.826C-12.399 0-23.972 0-35.545-.002-35.803-.002-36.062-.029-36.321-.043-36.022-.089-35.722-.174-35.423-.175-24.113-.181-12.803-.179-1.493-.188-1.13-.188-.767-.294-.404-.351-.308-.271-.21-.191 .008-.012 .005-.008 .002-.004 0 0" fill="#939598"/>
<path transform="matrix(1,0,0,-1,453.9211,213.04521)" d="M0 0C.229 .292 .377 .482 .524 .669 .315 .678 .105 .686-.105 .695V.061C-.067 .043-.033 .023 0 0" fill="#6d6e71"/>
<path transform="matrix(1,0,0,-1,453.9927,200.5137)" d="M0 0C-.055-.078-.11-.156-.166-.235-.11-.156-.055-.078 0 0" fill="#0f6b96"/>
<path transform="matrix(1,0,0,-1,413.9138,213.03202)" d="M0 0C.057-.007 .115-.015 .172-.022 .115-.015 .057-.007 0 0" fill="#0d6b96"/>
<path transform="matrix(1,0,0,-1,435.2638,192.10282)" d="M0 0C2.748-.009 5.495-.018 8.243-.026 8.53-.027 8.818-.027 9.199-.027 8.84-.637 8.477-.984 7.763-.976 5.015-.943 2.267-.977-.481-.952-1.088-.946-1.631-1.018-2.068-1.457-2.361-1.752-2.647-1.733-3.007-1.571-3.702-1.257-4.42-.992-5.287-.642-3.685-.23-2.279 .137-.869 .486-.651 .54-.411 .511-.182 .52-.281 .364-.381 .208-.513 0Z" fill="#eaeef1"/>
<path transform="matrix(1,0,0,-1,443.7993,190.55762)" d="M0 0C.355 .516 .784 .576 1.263 .575 4.007 .566 6.751 .592 9.494 .555 10.18 .546 10.731 .66 11.148 1.233 11.279 1.414 11.477 1.547 11.655 1.713 12.543 1.268 13.408 .834 14.437 .319 12.544-.155 10.822-.587 8.885-1.072 9.277-.642 9.529-.366 9.863 0Z" fill="#f1f5f7"/>
<path transform="matrix(1,0,0,-1,436.4731,197.2807)" d="M0 0C-.175-.162-.35-.324-.525-.485-.841-.493-1.158-.509-1.475-.509-4.184-.511-6.894-.505-9.603-.517-9.901-.518-10.198-.62-10.496-.675-10.815-.962-11.133-1.25-11.525-1.604-12.377-1.26-13.264-.902-14.327-.473-12.465 .08-10.792 .578-9.118 1.075-9.089 1.031-9.059 .987-9.03 .942-9.241 .67-9.453 .397-9.731 .038H-8.801C-6.179 .038-3.556 .04-.934 .036-.618 .036-.303 .005 .012-.012Z" fill="#f0f4f6"/>
<path transform="matrix(1,0,0,-1,447.6346,196.64472)" d="M0 0C.299 .436 .484 .706 .739 1.078H-9.067C-8.757 1.647-8.304 1.647-7.834 1.647-4.947 1.641-2.061 1.644 .826 1.644 1.057 1.644 1.287 1.644 1.582 1.644 1.865 2 2.166 2.379 2.492 2.789 3.364 2.436 4.235 2.083 5.268 1.665 3.477 1.099 1.83 .578 0 0" fill="#f5f8f9"/>
<path transform="matrix(1,0,0,-1,425.9771,197.9552)" d="M0 0C.298 .055 .595 .156 .893 .157 3.602 .17 6.312 .164 9.021 .166 9.338 .166 9.655 .181 9.971 .189 9.807 .12 9.643-.01 9.479-.01 6.319-.016 3.16-.006 0 0" fill="#939598"/>
<path transform="matrix(1,0,0,-1,435.2638,192.10282)" d="M0 0H-.513C-.381 .208-.281 .364-.182 .52-.172 .6-.161 .679-.15 .765 .095 .497 .095 .497 0 0" fill="#939598"/>
<path transform="matrix(1,0,0,-1,436.4853,197.29232)" d="M0 0C.011 .026 .022 .052 .032 .078 .018 .056 .003 .034-.012 .012Z" fill="#f0f4f6"/>
<g opacity=".789993">
<g clip-path="url(#clip_10)">
<text fill="#414042" xml:space="preserve" transform="matrix(1 0 -0 1 0 283.885)" font-size="14" font-family="Rockwell" font-weight="bold"><tspan y="-71.5352" x="428.7866">4</tspan></text>
</g>
</g>
<path transform="matrix(1,0,0,-1,347.8888,187.8696)" d="M0 0C-.029 .034-.055 .071-.077 .11-.295-.069-.393-.149-.489-.229-1.307-1.039-2.122-1.852-2.942-2.659-5.166-4.848-7.386-7.041-9.618-9.22-10.65-10.228-11.707-11.208-12.753-12.201-12.991-12.261-13.227-12.368-13.466-12.373-14.332-12.394-15.2-12.382-16.067-12.382H-50.752-51.747C-51.665-12.302-51.601-12.24-51.545-12.185-51.614-12.243-51.694-12.29-51.787-12.322-51.81-12.368-51.834-12.413-51.865-12.454-51.868-12.619-51.914-12.781-51.998-12.92-52.001-12.931-52.006-12.942-52.01-12.954-52.023-13.011-52.041-13.068-52.065-13.121-52.054-13.103-52.044-13.085-52.035-13.066-51.748-13.051-51.461-13.021-51.174-13.021-38.698-13.019-26.221-13.018-13.745-13.031-13.444-13.031-13.059-12.818-12.827-13.221-12.817-15.486-12.801-17.751-12.799-20.016-12.798-21.679-12.817-23.342-12.827-25.004-12.864-25.047-12.902-25.089-12.939-25.132-12.823-25.069-12.684-25.031-12.521-25.031-12.373-25.031-12.245-25.061-12.137-25.114V-24.48C-12.133-20.613-12.13-16.746-12.126-12.878-12.071-12.8-12.016-12.722-11.96-12.644-11.808-12.473-11.663-12.294-11.501-12.132-7.762-8.395-4.022-4.659-.28-.924-.106-.75 .084-.589 .363-.333 .2-.263 .081-.143 0 0" fill="#f6f8f9"/>
<path transform="matrix(1,0,0,-1,334.9496,213.00162)" d="M0 0C.038 .043 .075 .085 .113 .128 .122 1.79 .141 3.453 .14 5.116 .138 7.381 .122 9.646 .112 11.911-12.691 11.911-25.494 11.909-38.297 11.916-38.563 11.916-38.83 12.014-39.096 12.066-39.105 12.047-39.115 12.029-39.126 12.011-39.146 11.964-39.171 11.92-39.199 11.878-39.226 11.826-39.248 11.774-39.248 11.721-39.256 7.921-39.256 4.121-39.248 .32-39.248 .204-39.152 .087-39.1-.03-39.043-.037-38.986-.045-38.928-.052-38.698-.062-38.468-.08-38.238-.08-25.737-.082-13.237-.082-.736-.08-.52-.08-.303-.064-.086-.054-.059-.034-.03-.016 0 0" fill="#939598"/>
<path transform="matrix(1,0,0,-1,329.5702,196.64421)" d="M0 0C1.83 .578 3.477 1.099 5.268 1.665 4.235 2.083 3.364 2.436 2.492 2.789 2.166 2.379 1.865 2 1.582 1.644H.826C-2.061 1.644-4.947 1.641-7.834 1.647-8.304 1.647-8.757 1.647-9.067 1.078H.739C.484 .706 .299 .436 0 0M-3.835 6.087H6.027C5.694 5.721 5.442 5.445 5.05 5.015 6.986 5.5 8.708 5.932 10.602 6.406 9.573 6.921 8.708 7.355 7.819 7.8 7.641 7.635 7.444 7.501 7.313 7.32 6.895 6.747 6.345 6.633 5.659 6.642 2.916 6.679 .172 6.653-2.572 6.662-3.052 6.663-3.48 6.603-3.835 6.087M-12.553 5.062C-12.782 5.053-13.021 5.082-13.24 5.028-14.65 4.679-16.056 4.312-17.658 3.9-16.79 3.55-16.073 3.284-15.378 2.971-15.017 2.808-14.732 2.79-14.439 3.085-14.002 3.524-13.458 3.596-12.852 3.59-10.104 3.565-7.356 3.599-4.608 3.566-3.894 3.558-3.531 3.905-3.171 4.515-3.553 4.515-3.841 4.515-4.128 4.516-6.876 4.524-9.623 4.533-12.371 4.542-12.276 5.039-12.276 5.039-12.521 5.307-12.532 5.221-12.542 5.142-12.553 5.062M-21.658-1.311C-18.498-1.317-15.338-1.327-12.179-1.321-12.014-1.321-11.85-1.191-11.686-1.121-11.511-.96-11.336-.798-11.161-.636-11.147-.614-11.132-.592-11.117-.57-11.128-.596-11.138-.622-11.149-.648-11.465-.631-11.78-.6-12.095-.6-14.718-.596-17.34-.598-19.963-.598H-20.893C-20.614-.239-20.403 .034-20.191 .307-20.221 .351-20.25 .395-20.28 .439-21.953-.058-23.626-.556-25.489-1.109-24.426-1.538-23.539-1.896-22.686-2.24-22.295-1.886-21.976-1.598-21.658-1.311M-33.042-3.23C-31.488-1.952-29.942-.666-28.38 .602-25.073 3.286-21.758 5.962-18.443 8.638-18.337 8.724-18.207 8.783-18.088 8.854-17.788 8.808-17.489 8.722-17.189 8.722-5.879 8.715 5.431 8.718 16.741 8.709 17.104 8.709 17.466 8.603 17.829 8.546 17.012 7.736 16.197 6.923 15.376 6.115 13.153 3.926 10.933 1.734 8.7-.446 7.669-1.453 6.611-2.434 5.565-3.426 5.219-3.42 4.872-3.409 4.526-3.409-7.635-3.408-19.796-3.41-31.956-3.401-32.318-3.401-32.68-3.29-33.042-3.23" fill="#939598"/>
<path transform="matrix(1,0,0,-1,348.2658,188.9046)" d="M0 0V.697C-.005 .698-.009 .7-.014 .702-.293 .446-.483 .285-.657 .111-4.399-3.624-8.139-7.36-11.878-11.097-12.04-11.259-12.185-11.438-12.338-11.609-12.393-11.687-12.448-11.765-12.503-11.843-12.507-15.711-12.51-19.578-12.514-23.445-12.304-23.454-12.094-23.462-11.885-23.471-11.661-23.246-11.429-23.03-11.216-22.796-9.39-20.79-7.564-18.783-5.745-16.77-3.984-14.822-2.242-12.856-.465-10.922-.125-10.552 .012-10.189 .009-9.696-.009-6.464 0-3.232 0 0" fill="#6d6e71"/>
<path transform="matrix(1,0,0,-1,334.0961,200.05332)" d="M0 0C-12.161 .001-24.321-.001-36.482 .008-36.844 .008-37.206 .12-37.568 .179-37.598 .149-37.63 .118-37.663 .086-37.69 .055-37.72 .026-37.752-.001-37.809-.056-37.873-.119-37.954-.198H-36.959-2.274C-1.407-.198-.54-.211 .327-.19 .566-.184 .802-.077 1.039-.017 .693-.011 .346 0 0 0" fill="#939598"/>
<path transform="matrix(1,0,0,-1,335.0617,201.09012)" d="M0 0C-12.803-.001-25.606-.002-38.409 .005-38.675 .005-38.942 .102-39.208 .154-38.921 .17-38.634 .199-38.347 .199-25.871 .201-13.394 .203-.918 .189-.617 .189-.232 .403 0 0" fill="#939598"/>
<path transform="matrix(1,0,0,-1,347.8037,187.74752)" d="M0 0H-.826C-12.399 0-23.972 0-35.545-.002-35.804-.002-36.062-.029-36.321-.043-36.022-.089-35.722-.174-35.423-.175-24.113-.181-12.803-.179-1.493-.188-1.13-.188-.767-.294-.404-.351-.308-.271-.21-.191 .008-.012 .005-.008 .002-.004 0 0" fill="#939598"/>
<path transform="matrix(1,0,0,-1,335.8567,213.04471)" d="M0 0C.229 .292 .377 .482 .524 .669 .315 .678 .105 .686-.105 .695V.061C-.067 .043-.033 .023 0 0" fill="#6d6e71"/>
<path transform="matrix(1,0,0,-1,335.9283,200.51322)" d="M0 0C-.055-.078-.11-.156-.166-.235-.11-.156-.055-.078 0 0" fill="#0f6b96"/>
<path transform="matrix(1,0,0,-1,295.8494,213.03162)" d="M0 0C.057-.007 .115-.015 .172-.022 .115-.015 .057-.007 0 0" fill="#0d6b96"/>
<path transform="matrix(1,0,0,-1,317.1994,192.10231)" d="M0 0C2.747-.009 5.495-.018 8.243-.026 8.53-.027 8.818-.026 9.199-.026 8.84-.637 8.477-.984 7.763-.976 5.015-.943 2.267-.977-.481-.952-1.088-.946-1.631-1.018-2.068-1.457-2.361-1.752-2.647-1.733-3.007-1.571-3.703-1.257-4.42-.992-5.287-.642-3.685-.23-2.279 .137-.869 .486-.651 .54-.412 .511-.182 .52-.281 .364-.381 .208-.513 0Z" fill="#eaeef1"/>
<path transform="matrix(1,0,0,-1,325.735,190.5571)" d="M0 0C.355 .516 .784 .576 1.263 .575 4.007 .565 6.751 .592 9.494 .555 10.18 .546 10.731 .66 11.148 1.233 11.279 1.414 11.477 1.547 11.655 1.713 12.543 1.268 13.408 .834 14.437 .319 12.544-.155 10.822-.587 8.885-1.072 9.277-.642 9.529-.366 9.863 0Z" fill="#f1f5f7"/>
<path transform="matrix(1,0,0,-1,318.4087,197.28022)" d="M0 0C-.175-.162-.35-.324-.525-.485-.841-.493-1.158-.509-1.475-.509-4.184-.511-6.894-.505-9.603-.517-9.901-.518-10.198-.62-10.496-.675-10.815-.962-11.133-1.25-11.525-1.604-12.377-1.26-13.264-.902-14.327-.473-12.465 .08-10.792 .578-9.118 1.075-9.089 1.031-9.059 .987-9.03 .942-9.241 .67-9.453 .397-9.731 .038H-8.801C-6.179 .038-3.556 .04-.934 .036-.618 .036-.303 .005 .012-.012Z" fill="#f0f4f6"/>
<path transform="matrix(1,0,0,-1,329.5702,196.64421)" d="M0 0C.299 .436 .484 .706 .739 1.078H-9.067C-8.757 1.647-8.304 1.647-7.834 1.647-4.947 1.641-2.061 1.644 .826 1.644H1.582C1.865 2 2.166 2.379 2.492 2.789 3.364 2.436 4.235 2.083 5.268 1.665 3.477 1.099 1.83 .578 0 0" fill="#f5f8f9"/>
<path transform="matrix(1,0,0,-1,307.9127,197.95471)" d="M0 0C.298 .055 .595 .156 .893 .157 3.602 .17 6.312 .164 9.021 .166 9.338 .166 9.655 .181 9.971 .189 9.807 .12 9.643-.01 9.479-.01 6.319-.016 3.16-.006 0 0" fill="#939598"/>
<path transform="matrix(1,0,0,-1,317.1994,192.10231)" d="M0 0H-.513C-.381 .208-.281 .364-.182 .52-.172 .6-.161 .679-.15 .765 .095 .497 .095 .497 0 0" fill="#939598"/>
<path transform="matrix(1,0,0,-1,318.4209,197.29181)" d="M0 0C.011 .026 .022 .052 .032 .078 .018 .056 .003 .034-.012 .012Z" fill="#f0f4f6"/>
<g opacity=".789993">
<g clip-path="url(#clip_11)">
<text fill="#414042" xml:space="preserve" transform="matrix(1 0 -0 1 0 283.885)" font-size="14" font-family="Rockwell" font-weight="bold"><tspan y="-71.5352" x="310.5059">3</tspan></text>
</g>
</g>
<path transform="matrix(1,0,0,-1,453.154,146.5579)" stroke-width="2" stroke-linecap="round" stroke-dasharray="7,7" stroke-miterlimit="10" stroke-linejoin="miter" fill="none" stroke="#ed1d24" d="M0 0V-34.019"/>
<path transform="matrix(1,0,0,-1,449.5989,149.2541)" d="M0 0 3.555 1.51 7.11 0 3.555 8.427Z" fill="#ed1d24"/>
<path transform="matrix(1,0,0,-1,449.5989,177.8808)" d="M0 0 3.555-1.51 7.11 0 3.555-8.427Z" fill="#ed1d24"/>
</g>
</g>
</svg>
