<?xml version="1.0" encoding="UTF-8" standalone="no"?>
<!-- Created with Inkscape (http://www.inkscape.org/) -->

<svg
   version="1.1"
   id="svg2"
   width="152"
   height="344"
   viewBox="0 0 152 344"
   sodipodi:docname="topo_hellos.eps"
   xmlns:inkscape="http://www.inkscape.org/namespaces/inkscape"
   xmlns:sodipodi="http://sodipodi.sourceforge.net/DTD/sodipodi-0.dtd"
   xmlns="http://www.w3.org/2000/svg"
   xmlns:svg="http://www.w3.org/2000/svg">
  <defs
     id="defs6" />
  <sodipodi:namedview
     id="namedview4"
     pagecolor="#ffffff"
     bordercolor="#000000"
     borderopacity="0.25"
     inkscape:showpageshadow="2"
     inkscape:pageopacity="0.0"
     inkscape:pagecheckerboard="0"
     inkscape:deskcolor="#d1d1d1" />
  <g
     id="g8"
     inkscape:groupmode="layer"
     inkscape:label="ink_ext_XXXXXX"
     transform="matrix(1.3333333,0,0,-1.3333333,0,344)">
    <g
       id="g10"
       transform="scale(0.1)">
      <path
         d="m 330,2410 c 0,88.36 -71.641,160 -160,160 -88.3594,0 -160,-71.64 -160,-160 0,-88.36 71.6406,-160 160,-160 88.359,0 160,71.64 160,160 z"
         style="fill:none;stroke:#000000;stroke-width:12;stroke-linecap:butt;stroke-linejoin:round;stroke-miterlimit:10;stroke-dasharray:none;stroke-opacity:1"
         id="path12" />
      <g
         id="g14"
         transform="scale(10)">
        <text
           xml:space="preserve"
           transform="matrix(1,0,0,-1,11.316,234.911)"
           style="font-variant:normal;font-size:17.2154px;font-family:f-0;-inkscape-font-specification:f-0-0;writing-mode:lr-tb;fill:#000000;fill-opacity:1;fill-rule:nonzero;stroke:none"
           id="text18"><tspan
             x="0"
             y="0"
             id="tspan16">A</tspan></text>
      </g>
      <path
         d="m 333.91,1762.42 c 0,88.36 -71.64,160 -160,160 -88.3592,0 -159.9998,-71.64 -159.9998,-160 0,-88.36 71.6406,-160 159.9998,-160 88.36,0 160,71.64 160,160 z"
         style="fill:none;stroke:#000000;stroke-width:12;stroke-linecap:butt;stroke-linejoin:round;stroke-miterlimit:10;stroke-dasharray:none;stroke-opacity:1"
         id="path20" />
      <path
         d="m 333.91,962.621 c 0,88.359 -71.64,159.999 -160,159.999 -88.3592,0 -159.9998,-71.64 -159.9998,-159.999 0,-88.359 71.6406,-160 159.9998,-160 88.36,0 160,71.641 160,160 z"
         style="fill:none;stroke:#000000;stroke-width:12;stroke-linecap:butt;stroke-linejoin:round;stroke-miterlimit:10;stroke-dasharray:none;stroke-opacity:1"
         id="path22" />
      <path
         d="m 333.91,166.801 c 0,88.359 -71.64,160 -160,160 -88.3592,0 -159.9998,-71.641 -159.9998,-160 0,-88.3596 71.6406,-160.00022 159.9998,-160.00022 88.36,0 160,71.64062 160,160.00022 z"
         style="fill:none;stroke:#000000;stroke-width:12;stroke-linecap:butt;stroke-linejoin:round;stroke-miterlimit:10;stroke-dasharray:none;stroke-opacity:1"
         id="path24" />
      <path
         d="m 1137.54,1766.52 c 0,88.36 -71.64,160 -160.001,160 -88.359,0 -160,-71.64 -160,-160 0,-88.36 71.641,-160 160,-160 88.361,0 160.001,71.64 160.001,160 z"
         style="fill:none;stroke:#000000;stroke-width:12;stroke-linecap:butt;stroke-linejoin:round;stroke-miterlimit:10;stroke-dasharray:none;stroke-opacity:1"
         id="path26" />
      <path
         d="M 170,770 V 370"
         style="fill:none;stroke:#000000;stroke-width:12;stroke-linecap:butt;stroke-linejoin:round;stroke-miterlimit:10;stroke-dasharray:none;stroke-opacity:1"
         id="path28" />
      <path
         d="m 170,370 23.32,70 h -46.64 z"
         style="fill:#000000;fill-opacity:1;fill-rule:evenodd;stroke:none"
         id="path30" />
      <path
         d="m 170,370 23.32,70 h -46.64 z"
         style="fill:none;stroke:#000000;stroke-width:12;stroke-linecap:butt;stroke-linejoin:round;stroke-miterlimit:10;stroke-dasharray:none;stroke-opacity:1"
         id="path32" />
      <path
         d="m 170,770 -23.32,-70 h 46.64 z"
         style="fill:#000000;fill-opacity:1;fill-rule:evenodd;stroke:none"
         id="path34" />
      <path
         d="m 170,770 -23.32,-70 h 46.64 z"
         style="fill:none;stroke:#000000;stroke-width:12;stroke-linecap:butt;stroke-linejoin:round;stroke-miterlimit:10;stroke-dasharray:none;stroke-opacity:1"
         id="path36" />
      <path
         d="m 170,1570.04 v -400"
         style="fill:none;stroke:#000000;stroke-width:12;stroke-linecap:butt;stroke-linejoin:round;stroke-miterlimit:10;stroke-dasharray:none;stroke-opacity:1"
         id="path38" />
      <path
         d="m 170,1170.04 23.32,70 h -46.64 z"
         style="fill:#000000;fill-opacity:1;fill-rule:evenodd;stroke:none"
         id="path40" />
      <path
         d="m 170,1170.04 23.32,70 h -46.64 z"
         style="fill:none;stroke:#000000;stroke-width:12;stroke-linecap:butt;stroke-linejoin:round;stroke-miterlimit:10;stroke-dasharray:none;stroke-opacity:1"
         id="path42" />
      <path
         d="m 170,1570.04 -23.32,-70 h 46.64 z"
         style="fill:#000000;fill-opacity:1;fill-rule:evenodd;stroke:none"
         id="path44" />
      <path
         d="m 170,1570.04 -23.32,-70 h 46.64 z"
         style="fill:none;stroke:#000000;stroke-width:12;stroke-linecap:butt;stroke-linejoin:round;stroke-miterlimit:10;stroke-dasharray:none;stroke-opacity:1"
         id="path46" />
      <path
         d="M 170,2210 V 1970"
         style="fill:none;stroke:#000000;stroke-width:12;stroke-linecap:butt;stroke-linejoin:round;stroke-miterlimit:10;stroke-dasharray:none;stroke-opacity:1"
         id="path48" />
      <path
         d="m 170,1970 23.32,70 h -46.64 z"
         style="fill:#000000;fill-opacity:1;fill-rule:evenodd;stroke:none"
         id="path50" />
      <path
         d="m 170,1970 23.32,70 h -46.64 z"
         style="fill:none;stroke:#000000;stroke-width:12;stroke-linecap:butt;stroke-linejoin:round;stroke-miterlimit:10;stroke-dasharray:none;stroke-opacity:1"
         id="path52" />
      <path
         d="m 170,2210 -23.32,-70 h 46.64 z"
         style="fill:#000000;fill-opacity:1;fill-rule:evenodd;stroke:none"
         id="path54" />
      <path
         d="m 170,2210 -23.32,-70 h 46.64 z"
         style="fill:none;stroke:#000000;stroke-width:12;stroke-linecap:butt;stroke-linejoin:round;stroke-miterlimit:10;stroke-dasharray:none;stroke-opacity:1"
         id="path56" />
      <path
         d="m 1137.54,966.52 c 0,88.36 -71.64,160 -160.001,160 -88.359,0 -160,-71.64 -160,-160 0,-88.36 71.641,-160 160,-160 88.361,0 160.001,71.64 160.001,160 z"
         style="fill:none;stroke:#000000;stroke-width:12;stroke-linecap:butt;stroke-linejoin:round;stroke-miterlimit:10;stroke-dasharray:none;stroke-opacity:1"
         id="path58" />
      <path
         d="M 370,970 H 770"
         style="fill:none;stroke:#000000;stroke-width:12;stroke-linecap:butt;stroke-linejoin:round;stroke-miterlimit:10;stroke-dasharray:none;stroke-opacity:1"
         id="path60" />
      <path
         d="m 770,970 -70,23.32 v -46.64 z"
         style="fill:#000000;fill-opacity:1;fill-rule:evenodd;stroke:none"
         id="path62" />
      <path
         d="m 770,970 -70,23.32 v -46.64 z"
         style="fill:none;stroke:#000000;stroke-width:12;stroke-linecap:butt;stroke-linejoin:round;stroke-miterlimit:10;stroke-dasharray:none;stroke-opacity:1"
         id="path64" />
      <path
         d="m 370,970 70,-23.32 v 46.64 z"
         style="fill:#000000;fill-opacity:1;fill-rule:evenodd;stroke:none"
         id="path66" />
      <path
         d="m 370,970 70,-23.32 v 46.64 z"
         style="fill:none;stroke:#000000;stroke-width:12;stroke-linecap:butt;stroke-linejoin:round;stroke-miterlimit:10;stroke-dasharray:none;stroke-opacity:1"
         id="path68" />
      <g
         id="g70"
         transform="scale(10)">
        <text
           xml:space="preserve"
           transform="matrix(1,0,0,-1,11.316,170.911)"
           style="font-variant:normal;font-size:17.2154px;font-family:f-0;-inkscape-font-specification:f-0-0;writing-mode:lr-tb;fill:#000000;fill-opacity:1;fill-rule:nonzero;stroke:none"
           id="text82"><tspan
             x="0"
             y="0"
             id="tspan72">B</tspan><tspan
             x="0"
             y="80"
             id="tspan74">D</tspan><tspan
             x="0"
             y="160"
             id="tspan76">E</tspan><tspan
             x="81.678902"
             y="79.927002"
             id="tspan78">F</tspan><tspan
             x="79.999992"
             y="0"
             id="tspan80">C</tspan></text>
      </g>
      <path
         d="m 1137.54,1766.52 c 0,88.36 -71.64,160 -160.001,160 -88.359,0 -160,-71.64 -160,-160 0,-88.36 71.641,-160 160,-160 88.361,0 160.001,71.64 160.001,160 z"
         style="fill:none;stroke:#000000;stroke-width:12;stroke-linecap:butt;stroke-linejoin:round;stroke-miterlimit:10;stroke-dasharray:none;stroke-opacity:1"
         id="path84" />
      <g
         id="g86"
         transform="scale(10)">
        <text
           xml:space="preserve"
           transform="matrix(1,0,0,-1,91.316,170.911)"
           style="font-variant:normal;font-size:17.2154px;font-family:f-0;-inkscape-font-specification:f-0-0;writing-mode:lr-tb;fill:#000000;fill-opacity:1;fill-rule:nonzero;stroke:none"
           id="text90"><tspan
             x="0"
             y="0"
             id="tspan88">C</tspan></text>
      </g>
      <path
         d="m 1137.54,1766.52 c 0,88.36 -71.64,160 -160.001,160 -88.359,0 -160,-71.64 -160,-160 0,-88.36 71.641,-160 160,-160 88.361,0 160.001,71.64 160.001,160 z"
         style="fill:none;stroke:#000000;stroke-width:12;stroke-linecap:butt;stroke-linejoin:round;stroke-miterlimit:10;stroke-dasharray:none;stroke-opacity:1"
         id="path92" />
      <g
         id="g94"
         transform="scale(10)">
        <text
           xml:space="preserve"
           transform="matrix(1,0,0,-1,91.316,170.911)"
           style="font-variant:normal;font-size:17.2154px;font-family:f-0;-inkscape-font-specification:f-0-0;writing-mode:lr-tb;fill:#000000;fill-opacity:1;fill-rule:nonzero;stroke:none"
           id="text98"><tspan
             x="0"
             y="0"
             id="tspan96">C</tspan></text>
      </g>
      <path
         d="m 1137.54,1766.52 c 0,88.36 -71.64,160 -160.001,160 -88.359,0 -160,-71.64 -160,-160 0,-88.36 71.641,-160 160,-160 88.361,0 160.001,71.64 160.001,160 z"
         style="fill:none;stroke:#000000;stroke-width:12;stroke-linecap:butt;stroke-linejoin:round;stroke-miterlimit:10;stroke-dasharray:none;stroke-opacity:1"
         id="path100" />
      <g
         id="g102"
         transform="scale(10)">
        <text
           xml:space="preserve"
           transform="matrix(1,0,0,-1,91.316,170.911)"
           style="font-variant:normal;font-size:17.2154px;font-family:f-0;-inkscape-font-specification:f-0-0;writing-mode:lr-tb;fill:#000000;fill-opacity:1;fill-rule:nonzero;stroke:none"
           id="text106"><tspan
             x="0"
             y="0"
             id="tspan104">C</tspan></text>
      </g>
      <path
         d="m 1137.54,1766.52 c 0,88.36 -71.64,160 -160.001,160 -88.359,0 -160,-71.64 -160,-160 0,-88.36 71.641,-160 160,-160 88.361,0 160.001,71.64 160.001,160 z"
         style="fill:none;stroke:#000000;stroke-width:12;stroke-linecap:butt;stroke-linejoin:round;stroke-miterlimit:10;stroke-dasharray:none;stroke-opacity:1"
         id="path108" />
      <g
         id="g110"
         transform="scale(10)">
        <text
           xml:space="preserve"
           transform="matrix(1,0,0,-1,91.316,170.911)"
           style="font-variant:normal;font-size:17.2154px;font-family:f-0;-inkscape-font-specification:f-0-0;writing-mode:lr-tb;fill:#000000;fill-opacity:1;fill-rule:nonzero;stroke:none"
           id="text114"><tspan
             x="0"
             y="0"
             id="tspan112">C</tspan></text>
      </g>
      <path
         d="M 370,1768.91 H 770"
         style="fill:none;stroke:#000000;stroke-width:12;stroke-linecap:butt;stroke-linejoin:round;stroke-miterlimit:10;stroke-dasharray:none;stroke-opacity:1"
         id="path116" />
      <path
         d="m 770,1768.91 -70,23.32 v -46.61 z"
         style="fill:#000000;fill-opacity:1;fill-rule:evenodd;stroke:none"
         id="path118" />
      <path
         d="m 770,1768.91 -70,23.32 v -46.61 z"
         style="fill:none;stroke:#000000;stroke-width:12;stroke-linecap:butt;stroke-linejoin:round;stroke-miterlimit:10;stroke-dasharray:none;stroke-opacity:1"
         id="path120" />
      <path
         d="m 370,1768.91 70,-23.29 v 46.61 z"
         style="fill:#000000;fill-opacity:1;fill-rule:evenodd;stroke:none"
         id="path122" />
      <path
         d="m 370,1768.91 70,-23.29 v 46.61 z"
         style="fill:none;stroke:#000000;stroke-width:12;stroke-linecap:butt;stroke-linejoin:round;stroke-miterlimit:10;stroke-dasharray:none;stroke-opacity:1"
         id="path124" />
      <path
         d="M 370,1768.91 H 770"
         style="fill:none;stroke:#000000;stroke-width:12;stroke-linecap:butt;stroke-linejoin:round;stroke-miterlimit:10;stroke-dasharray:none;stroke-opacity:1"
         id="path126" />
      <path
         d="m 770,1768.91 -70,23.32 v -46.61 z"
         style="fill:#000000;fill-opacity:1;fill-rule:evenodd;stroke:none"
         id="path128" />
      <path
         d="m 770,1768.91 -70,23.32 v -46.61 z"
         style="fill:none;stroke:#000000;stroke-width:12;stroke-linecap:butt;stroke-linejoin:round;stroke-miterlimit:10;stroke-dasharray:none;stroke-opacity:1"
         id="path130" />
      <path
         d="m 370,1768.91 70,-23.29 v 46.61 z"
         style="fill:#000000;fill-opacity:1;fill-rule:evenodd;stroke:none"
         id="path132" />
      <path
         d="m 370,1768.91 70,-23.29 v 46.61 z"
         style="fill:none;stroke:#000000;stroke-width:12;stroke-linecap:butt;stroke-linejoin:round;stroke-miterlimit:10;stroke-dasharray:none;stroke-opacity:1"
         id="path134" />
      <path
         d="M 850,770 370,290"
         style="fill:none;stroke:#000000;stroke-width:12;stroke-linecap:butt;stroke-linejoin:round;stroke-miterlimit:10;stroke-dasharray:none;stroke-opacity:1"
         id="path136" />
      <path
         d="m 370,290 65.98,33.012 -32.968,32.968 z"
         style="fill:#000000;fill-opacity:1;fill-rule:evenodd;stroke:none"
         id="path138" />
      <path
         d="m 370,290 65.98,33.012 -32.968,32.968 z"
         style="fill:none;stroke:#000000;stroke-width:12;stroke-linecap:butt;stroke-linejoin:round;stroke-miterlimit:10;stroke-dasharray:none;stroke-opacity:1"
         id="path140" />
      <path
         d="M 850,770 784.02,736.988 816.988,704.02 Z"
         style="fill:#000000;fill-opacity:1;fill-rule:evenodd;stroke:none"
         id="path142" />
      <path
         d="M 850,770 784.02,736.988 816.988,704.02 Z"
         style="fill:none;stroke:#000000;stroke-width:12;stroke-linecap:butt;stroke-linejoin:round;stroke-miterlimit:10;stroke-dasharray:none;stroke-opacity:1"
         id="path144" />
      <path
         d="m 333.91,962.621 c 0,88.359 -71.64,159.999 -160,159.999 -88.3592,0 -159.9998,-71.64 -159.9998,-159.999 0,-88.359 71.6406,-160 159.9998,-160 88.36,0 160,71.641 160,160 z"
         style="fill:none;stroke:#000000;stroke-width:12;stroke-linecap:butt;stroke-linejoin:round;stroke-miterlimit:10;stroke-dasharray:none;stroke-opacity:1"
         id="path146" />
      <path
         d="m 333.91,166.801 c 0,88.359 -71.64,160 -160,160 -88.3592,0 -159.9998,-71.641 -159.9998,-160 0,-88.3596 71.6406,-160.00022 159.9998,-160.00022 88.36,0 160,71.64062 160,160.00022 z"
         style="fill:none;stroke:#000000;stroke-width:12;stroke-linecap:butt;stroke-linejoin:round;stroke-miterlimit:10;stroke-dasharray:none;stroke-opacity:1"
         id="path148" />
      <path
         d="M 170,770 V 370"
         style="fill:none;stroke:#000000;stroke-width:12;stroke-linecap:butt;stroke-linejoin:round;stroke-miterlimit:10;stroke-dasharray:none;stroke-opacity:1"
         id="path150" />
      <path
         d="m 170,370 23.32,70 h -46.64 z"
         style="fill:#000000;fill-opacity:1;fill-rule:evenodd;stroke:none"
         id="path152" />
      <path
         d="m 170,370 23.32,70 h -46.64 z"
         style="fill:none;stroke:#000000;stroke-width:12;stroke-linecap:butt;stroke-linejoin:round;stroke-miterlimit:10;stroke-dasharray:none;stroke-opacity:1"
         id="path154" />
      <path
         d="m 170,770 -23.32,-70 h 46.64 z"
         style="fill:#000000;fill-opacity:1;fill-rule:evenodd;stroke:none"
         id="path156" />
      <path
         d="m 170,770 -23.32,-70 h 46.64 z"
         style="fill:none;stroke:#000000;stroke-width:12;stroke-linecap:butt;stroke-linejoin:round;stroke-miterlimit:10;stroke-dasharray:none;stroke-opacity:1"
         id="path158" />
      <path
         d="m 1137.54,966.52 c 0,88.36 -71.64,160 -160.001,160 -88.359,0 -160,-71.64 -160,-160 0,-88.36 71.641,-160 160,-160 88.361,0 160.001,71.64 160.001,160 z"
         style="fill:none;stroke:#000000;stroke-width:12;stroke-linecap:butt;stroke-linejoin:round;stroke-miterlimit:10;stroke-dasharray:none;stroke-opacity:1"
         id="path160" />
      <path
         d="M 370,970 H 770"
         style="fill:none;stroke:#000000;stroke-width:12;stroke-linecap:butt;stroke-linejoin:round;stroke-miterlimit:10;stroke-dasharray:none;stroke-opacity:1"
         id="path162" />
      <path
         d="m 770,970 -70,23.32 v -46.64 z"
         style="fill:#000000;fill-opacity:1;fill-rule:evenodd;stroke:none"
         id="path164" />
      <path
         d="m 770,970 -70,23.32 v -46.64 z"
         style="fill:none;stroke:#000000;stroke-width:12;stroke-linecap:butt;stroke-linejoin:round;stroke-miterlimit:10;stroke-dasharray:none;stroke-opacity:1"
         id="path166" />
      <path
         d="m 370,970 70,-23.32 v 46.64 z"
         style="fill:#000000;fill-opacity:1;fill-rule:evenodd;stroke:none"
         id="path168" />
      <path
         d="m 370,970 70,-23.32 v 46.64 z"
         style="fill:none;stroke:#000000;stroke-width:12;stroke-linecap:butt;stroke-linejoin:round;stroke-miterlimit:10;stroke-dasharray:none;stroke-opacity:1"
         id="path170" />
      <g
         id="g172"
         transform="scale(10)">
        <text
           xml:space="preserve"
           transform="matrix(1,0,0,-1,11.316,90.9109)"
           style="font-variant:normal;font-size:17.2154px;font-family:f-0;-inkscape-font-specification:f-0-0;writing-mode:lr-tb;fill:#000000;fill-opacity:1;fill-rule:nonzero;stroke:none"
           id="text180"><tspan
             x="0"
             y="0"
             id="tspan174">D</tspan><tspan
             x="0"
             y="80"
             id="tspan176">E</tspan><tspan
             x="81.678902"
             y="-0.072999999"
             id="tspan178">F</tspan></text>
      </g>
      <path
         d="M 850,770 370,290"
         style="fill:none;stroke:#000000;stroke-width:12;stroke-linecap:butt;stroke-linejoin:round;stroke-miterlimit:10;stroke-dasharray:none;stroke-opacity:1"
         id="path182" />
      <path
         d="m 370,290 65.98,33.012 -32.968,32.968 z"
         style="fill:#000000;fill-opacity:1;fill-rule:evenodd;stroke:none"
         id="path184" />
      <path
         d="m 370,290 65.98,33.012 -32.968,32.968 z"
         style="fill:none;stroke:#000000;stroke-width:12;stroke-linecap:butt;stroke-linejoin:round;stroke-miterlimit:10;stroke-dasharray:none;stroke-opacity:1"
         id="path186" />
      <path
         d="M 850,770 784.02,736.988 816.988,704.02 Z"
         style="fill:#000000;fill-opacity:1;fill-rule:evenodd;stroke:none"
         id="path188" />
      <path
         d="M 850,770 784.02,736.988 816.988,704.02 Z"
         style="fill:none;stroke:#000000;stroke-width:12;stroke-linecap:butt;stroke-linejoin:round;stroke-miterlimit:10;stroke-dasharray:none;stroke-opacity:1"
         id="path190" />
      <path
         d="m 970,1570.04 v -400"
         style="fill:none;stroke:#000000;stroke-width:12;stroke-linecap:butt;stroke-linejoin:round;stroke-miterlimit:10;stroke-dasharray:none;stroke-opacity:1"
         id="path192" />
      <path
         d="m 970,1170.04 23.32,70 h -46.64 z"
         style="fill:#000000;fill-opacity:1;fill-rule:evenodd;stroke:none"
         id="path194" />
      <path
         d="m 970,1170.04 23.32,70 h -46.64 z"
         style="fill:none;stroke:#000000;stroke-width:12;stroke-linecap:butt;stroke-linejoin:round;stroke-miterlimit:10;stroke-dasharray:none;stroke-opacity:1"
         id="path196" />
      <path
         d="m 970,1570.04 -23.32,-70 h 46.64 z"
         style="fill:#000000;fill-opacity:1;fill-rule:evenodd;stroke:none"
         id="path198" />
      <path
         d="m 970,1570.04 -23.32,-70 h 46.64 z"
         style="fill:none;stroke:#000000;stroke-width:12;stroke-linecap:butt;stroke-linejoin:round;stroke-miterlimit:10;stroke-dasharray:none;stroke-opacity:1"
         id="path200" />
      <path
         d="M 90,2210 V 1970"
         style="fill:none;stroke:#ff8c00;stroke-width:4;stroke-linecap:butt;stroke-linejoin:round;stroke-miterlimit:10;stroke-dasharray:none;stroke-opacity:1"
         id="path202" />
      <path
         d="m 90,1970 23.32,70 H 66.6797 Z"
         style="fill:#ff8c00;fill-opacity:1;fill-rule:evenodd;stroke:none"
         id="path204" />
      <path
         d="m 90,1970 23.32,70 H 66.6797 Z"
         style="fill:none;stroke:#ff8c00;stroke-width:4;stroke-linecap:butt;stroke-linejoin:round;stroke-miterlimit:10;stroke-dasharray:none;stroke-opacity:1"
         id="path206" />
      <path
         d="M 90,1530 V 1290"
         style="fill:none;stroke:#ff8c00;stroke-width:4;stroke-linecap:butt;stroke-linejoin:round;stroke-miterlimit:10;stroke-dasharray:none;stroke-opacity:1"
         id="path208" />
      <path
         d="m 90,1290 23.32,70 H 66.6797 Z"
         style="fill:#ff8c00;fill-opacity:1;fill-rule:evenodd;stroke:none"
         id="path210" />
      <path
         d="m 90,1290 23.32,70 H 66.6797 Z"
         style="fill:none;stroke:#ff8c00;stroke-width:4;stroke-linecap:butt;stroke-linejoin:round;stroke-miterlimit:10;stroke-dasharray:none;stroke-opacity:1"
         id="path212" />
      <path
         d="M 90,690 V 450"
         style="fill:none;stroke:#ff8c00;stroke-width:4;stroke-linecap:butt;stroke-linejoin:round;stroke-miterlimit:10;stroke-dasharray:none;stroke-opacity:1"
         id="path214" />
      <path
         d="m 90,450 23.32,70 H 66.6797 Z"
         style="fill:#ff8c00;fill-opacity:1;fill-rule:evenodd;stroke:none"
         id="path216" />
      <path
         d="m 90,450 23.32,70 H 66.6797 Z"
         style="fill:none;stroke:#ff8c00;stroke-width:4;stroke-linecap:butt;stroke-linejoin:round;stroke-miterlimit:10;stroke-dasharray:none;stroke-opacity:1"
         id="path218" />
      <path
         d="M 250,690 V 450"
         style="fill:none;stroke:#ff8c00;stroke-width:4;stroke-linecap:butt;stroke-linejoin:round;stroke-miterlimit:10;stroke-dasharray:none;stroke-opacity:1"
         id="path220" />
      <path
         d="m 250,690 -23.32,-70 h 46.64 z"
         style="fill:#ff8c00;fill-opacity:1;fill-rule:evenodd;stroke:none"
         id="path222" />
      <path
         d="m 250,690 -23.32,-70 h 46.64 z"
         style="fill:none;stroke:#ff8c00;stroke-width:4;stroke-linecap:butt;stroke-linejoin:round;stroke-miterlimit:10;stroke-dasharray:none;stroke-opacity:1"
         id="path224" />
      <path
         d="M 250,1530 V 1290"
         style="fill:none;stroke:#ff8c00;stroke-width:4;stroke-linecap:butt;stroke-linejoin:round;stroke-miterlimit:10;stroke-dasharray:none;stroke-opacity:1"
         id="path226" />
      <path
         d="m 250,1530 -23.32,-70 h 46.64 z"
         style="fill:#ff8c00;fill-opacity:1;fill-rule:evenodd;stroke:none"
         id="path228" />
      <path
         d="m 250,1530 -23.32,-70 h 46.64 z"
         style="fill:none;stroke:#ff8c00;stroke-width:4;stroke-linecap:butt;stroke-linejoin:round;stroke-miterlimit:10;stroke-dasharray:none;stroke-opacity:1"
         id="path230" />
      <path
         d="M 250,2210 V 1970"
         style="fill:none;stroke:#ff8c00;stroke-width:4;stroke-linecap:butt;stroke-linejoin:round;stroke-miterlimit:10;stroke-dasharray:none;stroke-opacity:1"
         id="path232" />
      <path
         d="m 250,2210 -23.32,-70 h 46.64 z"
         style="fill:#ff8c00;fill-opacity:1;fill-rule:evenodd;stroke:none"
         id="path234" />
      <path
         d="m 250,2210 -23.32,-70 h 46.64 z"
         style="fill:none;stroke:#ff8c00;stroke-width:4;stroke-linecap:butt;stroke-linejoin:round;stroke-miterlimit:10;stroke-dasharray:none;stroke-opacity:1"
         id="path236" />
      <path
         d="M 450,1850 H 690"
         style="fill:none;stroke:#ff8c00;stroke-width:4;stroke-linecap:butt;stroke-linejoin:round;stroke-miterlimit:10;stroke-dasharray:none;stroke-opacity:1"
         id="path238" />
      <path
         d="m 690,1850 -70,23.32 v -46.64 z"
         style="fill:#ff8c00;fill-opacity:1;fill-rule:evenodd;stroke:none"
         id="path240" />
      <path
         d="m 690,1850 -70,23.32 v -46.64 z"
         style="fill:none;stroke:#ff8c00;stroke-width:4;stroke-linecap:butt;stroke-linejoin:round;stroke-miterlimit:10;stroke-dasharray:none;stroke-opacity:1"
         id="path242" />
      <path
         d="M 450,1690 H 690"
         style="fill:none;stroke:#ff8c00;stroke-width:4;stroke-linecap:butt;stroke-linejoin:round;stroke-miterlimit:10;stroke-dasharray:none;stroke-opacity:1"
         id="path244" />
      <path
         d="m 450,1690 70,-23.32 v 46.64 z"
         style="fill:#ff8c00;fill-opacity:1;fill-rule:evenodd;stroke:none"
         id="path246" />
      <path
         d="m 450,1690 70,-23.32 v 46.64 z"
         style="fill:none;stroke:#ff8c00;stroke-width:4;stroke-linecap:butt;stroke-linejoin:round;stroke-miterlimit:10;stroke-dasharray:none;stroke-opacity:1"
         id="path248" />
      <path
         d="M 450,1050 H 690"
         style="fill:none;stroke:#ff8c00;stroke-width:4;stroke-linecap:butt;stroke-linejoin:round;stroke-miterlimit:10;stroke-dasharray:none;stroke-opacity:1"
         id="path250" />
      <path
         d="m 450,1050 70,-23.32 v 46.64 z"
         style="fill:#ff8c00;fill-opacity:1;fill-rule:evenodd;stroke:none"
         id="path252" />
      <path
         d="m 450,1050 70,-23.32 v 46.64 z"
         style="fill:none;stroke:#ff8c00;stroke-width:4;stroke-linecap:butt;stroke-linejoin:round;stroke-miterlimit:10;stroke-dasharray:none;stroke-opacity:1"
         id="path254" />
      <path
         d="M 450,890 H 690"
         style="fill:none;stroke:#ff8c00;stroke-width:4;stroke-linecap:butt;stroke-linejoin:round;stroke-miterlimit:10;stroke-dasharray:none;stroke-opacity:1"
         id="path256" />
      <path
         d="m 690,890 -70,23.32 v -46.64 z"
         style="fill:#ff8c00;fill-opacity:1;fill-rule:evenodd;stroke:none"
         id="path258" />
      <path
         d="m 690,890 -70,23.32 v -46.64 z"
         style="fill:none;stroke:#ff8c00;stroke-width:4;stroke-linecap:butt;stroke-linejoin:round;stroke-miterlimit:10;stroke-dasharray:none;stroke-opacity:1"
         id="path260" />
      <path
         d="M 890,1490 V 1250"
         style="fill:none;stroke:#ff8c00;stroke-width:4;stroke-linecap:butt;stroke-linejoin:round;stroke-miterlimit:10;stroke-dasharray:none;stroke-opacity:1"
         id="path262" />
      <path
         d="m 890,1250 23.32,70 h -46.64 z"
         style="fill:#ff8c00;fill-opacity:1;fill-rule:evenodd;stroke:none"
         id="path264" />
      <path
         d="m 890,1250 23.32,70 h -46.64 z"
         style="fill:none;stroke:#ff8c00;stroke-width:4;stroke-linecap:butt;stroke-linejoin:round;stroke-miterlimit:10;stroke-dasharray:none;stroke-opacity:1"
         id="path266" />
      <path
         d="m 1050,1250 v 240"
         style="fill:none;stroke:#ff8c00;stroke-width:4;stroke-linecap:butt;stroke-linejoin:round;stroke-miterlimit:10;stroke-dasharray:none;stroke-opacity:1"
         id="path268" />
      <path
         d="m 1050,1490 -23.32,-70 h 46.64 z"
         style="fill:#ff8c00;fill-opacity:1;fill-rule:evenodd;stroke:none"
         id="path270" />
      <path
         d="m 1050,1490 -23.32,-70 h 46.64 z"
         style="fill:none;stroke:#ff8c00;stroke-width:4;stroke-linecap:butt;stroke-linejoin:round;stroke-miterlimit:10;stroke-dasharray:none;stroke-opacity:1"
         id="path272" />
      <path
         d="M 730,770 370,410"
         style="fill:none;stroke:#ff8c00;stroke-width:4;stroke-linecap:butt;stroke-linejoin:round;stroke-miterlimit:10;stroke-dasharray:none;stroke-opacity:1"
         id="path274" />
      <path
         d="M 730,770 664.02,736.988 696.988,704.02 Z"
         style="fill:#ff8c00;fill-opacity:1;fill-rule:evenodd;stroke:none"
         id="path276" />
      <path
         d="M 730,770 664.02,736.988 696.988,704.02 Z"
         style="fill:none;stroke:#ff8c00;stroke-width:4;stroke-linecap:butt;stroke-linejoin:round;stroke-miterlimit:10;stroke-dasharray:none;stroke-opacity:1"
         id="path278" />
      <path
         d="M 850,650 490,290"
         style="fill:none;stroke:#ff8c00;stroke-width:4;stroke-linecap:butt;stroke-linejoin:round;stroke-miterlimit:10;stroke-dasharray:none;stroke-opacity:1"
         id="path280" />
      <path
         d="m 490,290 65.98,33.012 -32.968,32.968 z"
         style="fill:#ff8c00;fill-opacity:1;fill-rule:evenodd;stroke:none"
         id="path282" />
      <path
         d="m 490,290 65.98,33.012 -32.968,32.968 z"
         style="fill:none;stroke:#ff8c00;stroke-width:4;stroke-linecap:butt;stroke-linejoin:round;stroke-miterlimit:10;stroke-dasharray:none;stroke-opacity:1"
         id="path284" />
    </g>
  </g>
</svg>
