<?xml version="1.0" encoding="UTF-8" standalone="no"?>
<!-- Created with Inkscape (http://www.inkscape.org/) -->

<svg
   version="1.1"
   id="svg2"
   width="749.33331"
   height="344"
   viewBox="0 0 749.33331 344"
   sodipodi:docname="topo_hello_nodoD_nb.eps"
   xmlns:inkscape="http://www.inkscape.org/namespaces/inkscape"
   xmlns:sodipodi="http://sodipodi.sourceforge.net/DTD/sodipodi-0.dtd"
   xmlns="http://www.w3.org/2000/svg"
   xmlns:svg="http://www.w3.org/2000/svg">
  <defs
     id="defs6" />
  <sodipodi:namedview
     id="namedview4"
     pagecolor="#ffffff"
     bordercolor="#000000"
     borderopacity="0.25"
     inkscape:showpageshadow="2"
     inkscape:pageopacity="0.0"
     inkscape:pagecheckerboard="0"
     inkscape:deskcolor="#d1d1d1" />
  <g
     id="g8"
     inkscape:groupmode="layer"
     inkscape:label="ink_ext_XXXXXX"
     transform="matrix(1.3333333,0,0,-1.3333333,0,344)">
    <g
       id="g10"
       transform="scale(0.1)">
      <path
         d="m 173.09,2569.92 c -44.891,6.72 -90.1994,-9.1 -122.3087,-42.65 -32.0704,-33.6 -47.19146,-80.98 -40.7422,-128.01 V 180.66 C 3.58984,133.672 18.7109,86.25 50.7813,52.6992 82.8906,19.1016 128.199,3.32031 173.09,10 h 3913.82 c 44.93,-6.67969 90.24,9.1016 122.31,42.6992 32.07,33.5508 47.19,80.9728 40.78,127.9608 v 2218.6 c 6.41,47.03 -8.71,94.41 -40.78,128.01 -32.07,33.55 -77.38,49.37 -122.31,42.65 z"
         style="fill:none;stroke:#000000;stroke-width:12;stroke-linecap:butt;stroke-linejoin:round;stroke-miterlimit:10;stroke-dasharray:none;stroke-opacity:1"
         id="path12" />
      <g
         id="g14"
         transform="scale(10)">
        <text
           xml:space="preserve"
           transform="matrix(1,0,0,-1,17,237)"
           style="font-variant:normal;font-size:17.2154px;font-family:f-0;-inkscape-font-specification:f-0-0;writing-mode:lr-tb;fill:#000000;fill-opacity:1;fill-rule:nonzero;stroke:none"
           id="text18"><tspan
             x="0 11.844142 21.24375 32.003376 37.37458 53.230083 63.989708 79.27697 88.951973 97.78347 106.39117 111.76237 122.522 132.19705 146.27931 162.41016 177.5425 187.75116 198.51079 214.64177"
             y="0"
             sodipodi:role="line"
             id="tspan16">Tabladevecinos–NodoD</tspan></text>
      </g>
      <path
         d="M 3370,2090 V 6.87109"
         style="fill:none;stroke:#000000;stroke-width:12;stroke-linecap:butt;stroke-linejoin:round;stroke-miterlimit:10;stroke-dasharray:40, 40;stroke-dashoffset:0;stroke-opacity:1"
         id="path20" />
      <g
         id="g22"
         transform="scale(10)">
        <text
           xml:space="preserve"
           transform="matrix(1,0,0,-1,361,225)"
           style="font-variant:normal;font-size:14.3462px;font-family:f-0;-inkscape-font-specification:f-0-0;writing-mode:lr-tb;fill:#000000;fill-opacity:1;fill-rule:nonzero;stroke:none"
           id="text26"><tspan
             x="0 8.9663754"
             y="0"
             sodipodi:role="line"
             id="tspan24">Su</tspan></text>
        <text
           xml:space="preserve"
           transform="matrix(1,0,0,-1,378.9328,225)"
           style="font-variant:normal;font-size:14.3462px;font-family:f-0;-inkscape-font-specification:f-0-1;writing-mode:lr-tb;fill:#000000;fill-opacity:1;fill-rule:nonzero;stroke:none"
           id="text30"><tspan
             x="0"
             y="0"
             id="tspan28">f</tspan></text>
        <text
           xml:space="preserve"
           transform="matrix(1,0,0,-1,387.89921,225)"
           style="font-variant:normal;font-size:14.3462px;font-family:f-0;-inkscape-font-specification:f-0-0;writing-mode:lr-tb;fill:#000000;fill-opacity:1;fill-rule:nonzero;stroke:none"
           id="text34"><tspan
             x="0 4.9207468"
             y="0"
             sodipodi:role="line"
             id="tspan32">jo</tspan></text>
        <text
           xml:space="preserve"
           transform="matrix(1,0,0,-1,377.00001,173.8629)"
           style="font-variant:normal;font-size:24.7871px;font-family:f-1;-inkscape-font-specification:f-1-0;writing-mode:lr-tb;fill:#000000;fill-opacity:1;fill-rule:nonzero;stroke:none"
           id="text38"><tspan
             x="0"
             y="0"
             id="tspan36">1</tspan></text>
      </g>
      <path
         d="m 4810,2410 c 0,88.36 -71.64,160 -160,160 -88.36,0 -160,-71.64 -160,-160 0,-88.36 71.64,-160 160,-160 88.36,0 160,71.64 160,160 z"
         style="fill:none;stroke:#000000;stroke-width:12;stroke-linecap:butt;stroke-linejoin:round;stroke-miterlimit:10;stroke-dasharray:none;stroke-opacity:1"
         id="path40" />
      <g
         id="g42"
         transform="scale(10)">
        <text
           xml:space="preserve"
           transform="matrix(1,0,0,-1,459.316,234.911)"
           style="font-variant:normal;font-size:17.2154px;font-family:f-2;-inkscape-font-specification:f-2-0;writing-mode:lr-tb;fill:#000000;fill-opacity:1;fill-rule:nonzero;stroke:none"
           id="text46"><tspan
             x="0"
             y="0"
             id="tspan44">A</tspan></text>
      </g>
      <path
         d="m 4813.91,1762.42 c 0,88.36 -71.64,160 -160,160 -88.36,0 -160,-71.64 -160,-160 0,-88.36 71.64,-160 160,-160 88.36,0 160,71.64 160,160 z"
         style="fill:none;stroke:#000000;stroke-width:12;stroke-linecap:butt;stroke-linejoin:round;stroke-miterlimit:10;stroke-dasharray:none;stroke-opacity:1"
         id="path48" />
      <path
         d="m 4813.91,962.621 c 0,88.359 -71.64,159.999 -160,159.999 -88.36,0 -160,-71.64 -160,-159.999 0,-88.359 71.64,-160 160,-160 88.36,0 160,71.641 160,160 z"
         style="fill:none;stroke:#000000;stroke-width:12;stroke-linecap:butt;stroke-linejoin:round;stroke-miterlimit:10;stroke-dasharray:none;stroke-opacity:1"
         id="path50" />
      <path
         d="m 4813.91,166.801 c 0,88.359 -71.64,160 -160,160 -88.36,0 -160,-71.641 -160,-160 0,-88.3596 71.64,-160.00022 160,-160.00022 88.36,0 160,71.64062 160,160.00022 z"
         style="fill:none;stroke:#000000;stroke-width:12;stroke-linecap:butt;stroke-linejoin:round;stroke-miterlimit:10;stroke-dasharray:none;stroke-opacity:1"
         id="path52" />
      <path
         d="m 5617.54,1766.52 c 0,88.36 -71.64,160 -160,160 -88.36,0 -160,-71.64 -160,-160 0,-88.36 71.64,-160 160,-160 88.36,0 160,71.64 160,160 z"
         style="fill:none;stroke:#000000;stroke-width:12;stroke-linecap:butt;stroke-linejoin:round;stroke-miterlimit:10;stroke-dasharray:none;stroke-opacity:1"
         id="path54" />
      <path
         d="M 4650,770 V 370"
         style="fill:none;stroke:#000000;stroke-width:12;stroke-linecap:butt;stroke-linejoin:round;stroke-miterlimit:10;stroke-dasharray:none;stroke-opacity:1"
         id="path56" />
      <path
         d="m 4650,370 23.32,70 h -46.64 z"
         style="fill:#000000;fill-opacity:1;fill-rule:evenodd;stroke:none"
         id="path58" />
      <path
         d="m 4650,370 23.32,70 h -46.64 z"
         style="fill:none;stroke:#000000;stroke-width:12;stroke-linecap:butt;stroke-linejoin:round;stroke-miterlimit:10;stroke-dasharray:none;stroke-opacity:1"
         id="path60" />
      <path
         d="m 4650,770 -23.32,-70 h 46.64 z"
         style="fill:#000000;fill-opacity:1;fill-rule:evenodd;stroke:none"
         id="path62" />
      <path
         d="m 4650,770 -23.32,-70 h 46.64 z"
         style="fill:none;stroke:#000000;stroke-width:12;stroke-linecap:butt;stroke-linejoin:round;stroke-miterlimit:10;stroke-dasharray:none;stroke-opacity:1"
         id="path64" />
      <path
         d="m 4650,1570.04 v -400"
         style="fill:none;stroke:#000000;stroke-width:12;stroke-linecap:butt;stroke-linejoin:round;stroke-miterlimit:10;stroke-dasharray:none;stroke-opacity:1"
         id="path66" />
      <path
         d="m 4650,1170.04 23.32,70 h -46.64 z"
         style="fill:#000000;fill-opacity:1;fill-rule:evenodd;stroke:none"
         id="path68" />
      <path
         d="m 4650,1170.04 23.32,70 h -46.64 z"
         style="fill:none;stroke:#000000;stroke-width:12;stroke-linecap:butt;stroke-linejoin:round;stroke-miterlimit:10;stroke-dasharray:none;stroke-opacity:1"
         id="path70" />
      <path
         d="m 4650,1570.04 -23.32,-70 h 46.64 z"
         style="fill:#000000;fill-opacity:1;fill-rule:evenodd;stroke:none"
         id="path72" />
      <path
         d="m 4650,1570.04 -23.32,-70 h 46.64 z"
         style="fill:none;stroke:#000000;stroke-width:12;stroke-linecap:butt;stroke-linejoin:round;stroke-miterlimit:10;stroke-dasharray:none;stroke-opacity:1"
         id="path74" />
      <path
         d="M 4650,2210 V 1970"
         style="fill:none;stroke:#000000;stroke-width:12;stroke-linecap:butt;stroke-linejoin:round;stroke-miterlimit:10;stroke-dasharray:none;stroke-opacity:1"
         id="path76" />
      <path
         d="m 4650,1970 23.32,70 h -46.64 z"
         style="fill:#000000;fill-opacity:1;fill-rule:evenodd;stroke:none"
         id="path78" />
      <path
         d="m 4650,1970 23.32,70 h -46.64 z"
         style="fill:none;stroke:#000000;stroke-width:12;stroke-linecap:butt;stroke-linejoin:round;stroke-miterlimit:10;stroke-dasharray:none;stroke-opacity:1"
         id="path80" />
      <path
         d="m 4650,2210 -23.32,-70 h 46.64 z"
         style="fill:#000000;fill-opacity:1;fill-rule:evenodd;stroke:none"
         id="path82" />
      <path
         d="m 4650,2210 -23.32,-70 h 46.64 z"
         style="fill:none;stroke:#000000;stroke-width:12;stroke-linecap:butt;stroke-linejoin:round;stroke-miterlimit:10;stroke-dasharray:none;stroke-opacity:1"
         id="path84" />
      <path
         d="m 5617.54,966.52 c 0,88.36 -71.64,160 -160,160 -88.36,0 -160,-71.64 -160,-160 0,-88.36 71.64,-160 160,-160 88.36,0 160,71.64 160,160 z"
         style="fill:none;stroke:#000000;stroke-width:12;stroke-linecap:butt;stroke-linejoin:round;stroke-miterlimit:10;stroke-dasharray:none;stroke-opacity:1"
         id="path86" />
      <path
         d="m 4850,970 h 400"
         style="fill:none;stroke:#000000;stroke-width:12;stroke-linecap:butt;stroke-linejoin:round;stroke-miterlimit:10;stroke-dasharray:none;stroke-opacity:1"
         id="path88" />
      <path
         d="m 5250,970 -70,23.32 v -46.64 z"
         style="fill:#000000;fill-opacity:1;fill-rule:evenodd;stroke:none"
         id="path90" />
      <path
         d="m 5250,970 -70,23.32 v -46.64 z"
         style="fill:none;stroke:#000000;stroke-width:12;stroke-linecap:butt;stroke-linejoin:round;stroke-miterlimit:10;stroke-dasharray:none;stroke-opacity:1"
         id="path92" />
      <path
         d="m 4850,970 70,-23.32 v 46.64 z"
         style="fill:#000000;fill-opacity:1;fill-rule:evenodd;stroke:none"
         id="path94" />
      <path
         d="m 4850,970 70,-23.32 v 46.64 z"
         style="fill:none;stroke:#000000;stroke-width:12;stroke-linecap:butt;stroke-linejoin:round;stroke-miterlimit:10;stroke-dasharray:none;stroke-opacity:1"
         id="path96" />
      <g
         id="g98"
         transform="scale(10)">
        <text
           xml:space="preserve"
           transform="matrix(1,0,0,-1,459.316,170.911)"
           style="font-variant:normal;font-size:17.2154px;font-family:f-2;-inkscape-font-specification:f-2-0;writing-mode:lr-tb;fill:#000000;fill-opacity:1;fill-rule:nonzero;stroke:none"
           id="text110"><tspan
             x="0"
             y="0"
             id="tspan100">B</tspan><tspan
             x="0"
             y="80"
             id="tspan102">D</tspan><tspan
             x="0"
             y="160"
             id="tspan104">E</tspan><tspan
             x="81.678902"
             y="79.927002"
             id="tspan106">F</tspan><tspan
             x="79.999992"
             y="0"
             id="tspan108">C</tspan></text>
      </g>
      <path
         d="m 5617.54,1766.52 c 0,88.36 -71.64,160 -160,160 -88.36,0 -160,-71.64 -160,-160 0,-88.36 71.64,-160 160,-160 88.36,0 160,71.64 160,160 z"
         style="fill:none;stroke:#000000;stroke-width:12;stroke-linecap:butt;stroke-linejoin:round;stroke-miterlimit:10;stroke-dasharray:none;stroke-opacity:1"
         id="path112" />
      <g
         id="g114"
         transform="scale(10)">
        <text
           xml:space="preserve"
           transform="matrix(1,0,0,-1,539.316,170.911)"
           style="font-variant:normal;font-size:17.2154px;font-family:f-2;-inkscape-font-specification:f-2-0;writing-mode:lr-tb;fill:#000000;fill-opacity:1;fill-rule:nonzero;stroke:none"
           id="text118"><tspan
             x="0"
             y="0"
             id="tspan116">C</tspan></text>
      </g>
      <path
         d="m 5617.54,1766.52 c 0,88.36 -71.64,160 -160,160 -88.36,0 -160,-71.64 -160,-160 0,-88.36 71.64,-160 160,-160 88.36,0 160,71.64 160,160 z"
         style="fill:none;stroke:#000000;stroke-width:12;stroke-linecap:butt;stroke-linejoin:round;stroke-miterlimit:10;stroke-dasharray:none;stroke-opacity:1"
         id="path120" />
      <g
         id="g122"
         transform="scale(10)">
        <text
           xml:space="preserve"
           transform="matrix(1,0,0,-1,539.316,170.911)"
           style="font-variant:normal;font-size:17.2154px;font-family:f-2;-inkscape-font-specification:f-2-0;writing-mode:lr-tb;fill:#000000;fill-opacity:1;fill-rule:nonzero;stroke:none"
           id="text126"><tspan
             x="0"
             y="0"
             id="tspan124">C</tspan></text>
      </g>
      <path
         d="m 5617.54,1766.52 c 0,88.36 -71.64,160 -160,160 -88.36,0 -160,-71.64 -160,-160 0,-88.36 71.64,-160 160,-160 88.36,0 160,71.64 160,160 z"
         style="fill:none;stroke:#000000;stroke-width:12;stroke-linecap:butt;stroke-linejoin:round;stroke-miterlimit:10;stroke-dasharray:none;stroke-opacity:1"
         id="path128" />
      <g
         id="g130"
         transform="scale(10)">
        <text
           xml:space="preserve"
           transform="matrix(1,0,0,-1,539.316,170.911)"
           style="font-variant:normal;font-size:17.2154px;font-family:f-2;-inkscape-font-specification:f-2-0;writing-mode:lr-tb;fill:#000000;fill-opacity:1;fill-rule:nonzero;stroke:none"
           id="text134"><tspan
             x="0"
             y="0"
             id="tspan132">C</tspan></text>
      </g>
      <path
         d="m 5617.54,1766.52 c 0,88.36 -71.64,160 -160,160 -88.36,0 -160,-71.64 -160,-160 0,-88.36 71.64,-160 160,-160 88.36,0 160,71.64 160,160 z"
         style="fill:none;stroke:#000000;stroke-width:12;stroke-linecap:butt;stroke-linejoin:round;stroke-miterlimit:10;stroke-dasharray:none;stroke-opacity:1"
         id="path136" />
      <g
         id="g138"
         transform="scale(10)">
        <text
           xml:space="preserve"
           transform="matrix(1,0,0,-1,539.316,170.911)"
           style="font-variant:normal;font-size:17.2154px;font-family:f-2;-inkscape-font-specification:f-2-0;writing-mode:lr-tb;fill:#000000;fill-opacity:1;fill-rule:nonzero;stroke:none"
           id="text142"><tspan
             x="0"
             y="0"
             id="tspan140">C</tspan></text>
      </g>
      <path
         d="m 4850,1768.91 h 400"
         style="fill:none;stroke:#000000;stroke-width:12;stroke-linecap:butt;stroke-linejoin:round;stroke-miterlimit:10;stroke-dasharray:none;stroke-opacity:1"
         id="path144" />
      <path
         d="m 5250,1768.91 -70,23.32 v -46.61 z"
         style="fill:#000000;fill-opacity:1;fill-rule:evenodd;stroke:none"
         id="path146" />
      <path
         d="m 5250,1768.91 -70,23.32 v -46.61 z"
         style="fill:none;stroke:#000000;stroke-width:12;stroke-linecap:butt;stroke-linejoin:round;stroke-miterlimit:10;stroke-dasharray:none;stroke-opacity:1"
         id="path148" />
      <path
         d="m 4850,1768.91 70,-23.29 v 46.61 z"
         style="fill:#000000;fill-opacity:1;fill-rule:evenodd;stroke:none"
         id="path150" />
      <path
         d="m 4850,1768.91 70,-23.29 v 46.61 z"
         style="fill:none;stroke:#000000;stroke-width:12;stroke-linecap:butt;stroke-linejoin:round;stroke-miterlimit:10;stroke-dasharray:none;stroke-opacity:1"
         id="path152" />
      <path
         d="m 4850,1768.91 h 400"
         style="fill:none;stroke:#000000;stroke-width:12;stroke-linecap:butt;stroke-linejoin:round;stroke-miterlimit:10;stroke-dasharray:none;stroke-opacity:1"
         id="path154" />
      <path
         d="m 5250,1768.91 -70,23.32 v -46.61 z"
         style="fill:#000000;fill-opacity:1;fill-rule:evenodd;stroke:none"
         id="path156" />
      <path
         d="m 5250,1768.91 -70,23.32 v -46.61 z"
         style="fill:none;stroke:#000000;stroke-width:12;stroke-linecap:butt;stroke-linejoin:round;stroke-miterlimit:10;stroke-dasharray:none;stroke-opacity:1"
         id="path158" />
      <path
         d="m 4850,1768.91 70,-23.29 v 46.61 z"
         style="fill:#000000;fill-opacity:1;fill-rule:evenodd;stroke:none"
         id="path160" />
      <path
         d="m 4850,1768.91 70,-23.29 v 46.61 z"
         style="fill:none;stroke:#000000;stroke-width:12;stroke-linecap:butt;stroke-linejoin:round;stroke-miterlimit:10;stroke-dasharray:none;stroke-opacity:1"
         id="path162" />
      <path
         d="M 5330,770 4850,290"
         style="fill:none;stroke:#000000;stroke-width:12;stroke-linecap:butt;stroke-linejoin:round;stroke-miterlimit:10;stroke-dasharray:none;stroke-opacity:1"
         id="path164" />
      <path
         d="m 4850,290 65.98,33.012 -32.97,32.968 z"
         style="fill:#000000;fill-opacity:1;fill-rule:evenodd;stroke:none"
         id="path166" />
      <path
         d="m 4850,290 65.98,33.012 -32.97,32.968 z"
         style="fill:none;stroke:#000000;stroke-width:12;stroke-linecap:butt;stroke-linejoin:round;stroke-miterlimit:10;stroke-dasharray:none;stroke-opacity:1"
         id="path168" />
      <path
         d="m 5330,770 -65.98,-33.012 32.97,-32.968 z"
         style="fill:#000000;fill-opacity:1;fill-rule:evenodd;stroke:none"
         id="path170" />
      <path
         d="m 5330,770 -65.98,-33.012 32.97,-32.968 z"
         style="fill:none;stroke:#000000;stroke-width:12;stroke-linecap:butt;stroke-linejoin:round;stroke-miterlimit:10;stroke-dasharray:none;stroke-opacity:1"
         id="path172" />
      <path
         d="m 4813.91,962.621 c 0,88.359 -71.64,159.999 -160,159.999 -88.36,0 -160,-71.64 -160,-159.999 0,-88.359 71.64,-160 160,-160 88.36,0 160,71.641 160,160 z"
         style="fill:none;stroke:#000000;stroke-width:12;stroke-linecap:butt;stroke-linejoin:round;stroke-miterlimit:10;stroke-dasharray:none;stroke-opacity:1"
         id="path174" />
      <path
         d="m 4813.91,166.801 c 0,88.359 -71.64,160 -160,160 -88.36,0 -160,-71.641 -160,-160 0,-88.3596 71.64,-160.00022 160,-160.00022 88.36,0 160,71.64062 160,160.00022 z"
         style="fill:none;stroke:#000000;stroke-width:12;stroke-linecap:butt;stroke-linejoin:round;stroke-miterlimit:10;stroke-dasharray:none;stroke-opacity:1"
         id="path176" />
      <path
         d="M 4650,770 V 370"
         style="fill:none;stroke:#000000;stroke-width:12;stroke-linecap:butt;stroke-linejoin:round;stroke-miterlimit:10;stroke-dasharray:none;stroke-opacity:1"
         id="path178" />
      <path
         d="m 4650,370 23.32,70 h -46.64 z"
         style="fill:#000000;fill-opacity:1;fill-rule:evenodd;stroke:none"
         id="path180" />
      <path
         d="m 4650,370 23.32,70 h -46.64 z"
         style="fill:none;stroke:#000000;stroke-width:12;stroke-linecap:butt;stroke-linejoin:round;stroke-miterlimit:10;stroke-dasharray:none;stroke-opacity:1"
         id="path182" />
      <path
         d="m 4650,770 -23.32,-70 h 46.64 z"
         style="fill:#000000;fill-opacity:1;fill-rule:evenodd;stroke:none"
         id="path184" />
      <path
         d="m 4650,770 -23.32,-70 h 46.64 z"
         style="fill:none;stroke:#000000;stroke-width:12;stroke-linecap:butt;stroke-linejoin:round;stroke-miterlimit:10;stroke-dasharray:none;stroke-opacity:1"
         id="path186" />
      <path
         d="m 5617.54,966.52 c 0,88.36 -71.64,160 -160,160 -88.36,0 -160,-71.64 -160,-160 0,-88.36 71.64,-160 160,-160 88.36,0 160,71.64 160,160 z"
         style="fill:none;stroke:#000000;stroke-width:12;stroke-linecap:butt;stroke-linejoin:round;stroke-miterlimit:10;stroke-dasharray:none;stroke-opacity:1"
         id="path188" />
      <path
         d="m 4850,970 h 400"
         style="fill:none;stroke:#000000;stroke-width:12;stroke-linecap:butt;stroke-linejoin:round;stroke-miterlimit:10;stroke-dasharray:none;stroke-opacity:1"
         id="path190" />
      <path
         d="m 5250,970 -70,23.32 v -46.64 z"
         style="fill:#000000;fill-opacity:1;fill-rule:evenodd;stroke:none"
         id="path192" />
      <path
         d="m 5250,970 -70,23.32 v -46.64 z"
         style="fill:none;stroke:#000000;stroke-width:12;stroke-linecap:butt;stroke-linejoin:round;stroke-miterlimit:10;stroke-dasharray:none;stroke-opacity:1"
         id="path194" />
      <path
         d="m 4850,970 70,-23.32 v 46.64 z"
         style="fill:#000000;fill-opacity:1;fill-rule:evenodd;stroke:none"
         id="path196" />
      <path
         d="m 4850,970 70,-23.32 v 46.64 z"
         style="fill:none;stroke:#000000;stroke-width:12;stroke-linecap:butt;stroke-linejoin:round;stroke-miterlimit:10;stroke-dasharray:none;stroke-opacity:1"
         id="path198" />
      <g
         id="g200"
         transform="scale(10)">
        <text
           xml:space="preserve"
           transform="matrix(1,0,0,-1,459.316,90.9109)"
           style="font-variant:normal;font-size:17.2154px;font-family:f-2;-inkscape-font-specification:f-2-0;writing-mode:lr-tb;fill:#000000;fill-opacity:1;fill-rule:nonzero;stroke:none"
           id="text208"><tspan
             x="0"
             y="0"
             id="tspan202">D</tspan><tspan
             x="0"
             y="80"
             id="tspan204">E</tspan><tspan
             x="81.678902"
             y="-0.072999999"
             id="tspan206">F</tspan></text>
      </g>
      <path
         d="M 5330,770 4850,290"
         style="fill:none;stroke:#000000;stroke-width:12;stroke-linecap:butt;stroke-linejoin:round;stroke-miterlimit:10;stroke-dasharray:none;stroke-opacity:1"
         id="path210" />
      <path
         d="m 4850,290 65.98,33.012 -32.97,32.968 z"
         style="fill:#000000;fill-opacity:1;fill-rule:evenodd;stroke:none"
         id="path212" />
      <path
         d="m 4850,290 65.98,33.012 -32.97,32.968 z"
         style="fill:none;stroke:#000000;stroke-width:12;stroke-linecap:butt;stroke-linejoin:round;stroke-miterlimit:10;stroke-dasharray:none;stroke-opacity:1"
         id="path214" />
      <path
         d="m 5330,770 -65.98,-33.012 32.97,-32.968 z"
         style="fill:#000000;fill-opacity:1;fill-rule:evenodd;stroke:none"
         id="path216" />
      <path
         d="m 5330,770 -65.98,-33.012 32.97,-32.968 z"
         style="fill:none;stroke:#000000;stroke-width:12;stroke-linecap:butt;stroke-linejoin:round;stroke-miterlimit:10;stroke-dasharray:none;stroke-opacity:1"
         id="path218" />
      <path
         d="m 5450,1570.04 v -400"
         style="fill:none;stroke:#000000;stroke-width:12;stroke-linecap:butt;stroke-linejoin:round;stroke-miterlimit:10;stroke-dasharray:none;stroke-opacity:1"
         id="path220" />
      <path
         d="m 5450,1170.04 23.32,70 h -46.64 z"
         style="fill:#000000;fill-opacity:1;fill-rule:evenodd;stroke:none"
         id="path222" />
      <path
         d="m 5450,1170.04 23.32,70 h -46.64 z"
         style="fill:none;stroke:#000000;stroke-width:12;stroke-linecap:butt;stroke-linejoin:round;stroke-miterlimit:10;stroke-dasharray:none;stroke-opacity:1"
         id="path224" />
      <path
         d="m 5450,1570.04 -23.32,-70 h 46.64 z"
         style="fill:#000000;fill-opacity:1;fill-rule:evenodd;stroke:none"
         id="path226" />
      <path
         d="m 5450,1570.04 -23.32,-70 h 46.64 z"
         style="fill:none;stroke:#000000;stroke-width:12;stroke-linecap:butt;stroke-linejoin:round;stroke-miterlimit:10;stroke-dasharray:none;stroke-opacity:1"
         id="path228" />
      <g
         id="g230"
         transform="scale(10)">
        <text
           xml:space="preserve"
           transform="matrix(1,0,0,-1,17,177.002)"
           style="font-variant:normal;font-size:14.3462px;font-family:f-3;-inkscape-font-specification:f-3-0;writing-mode:lr-tb;fill:#000000;fill-opacity:1;fill-rule:nonzero;stroke:none"
           id="text234"><tspan
             x="0 15.077727 25.607838"
             y="0"
             sodipodi:role="line"
             id="tspan232">MAC</tspan></text>
        <text
           xml:space="preserve"
           transform="matrix(1,0,0,-1,52.6691,174.85005)"
           style="font-variant:normal;font-size:9.9626px;font-family:f-4;-inkscape-font-specification:f-4-0;writing-mode:lr-tb;fill:#000000;fill-opacity:1;fill-rule:nonzero;stroke:none"
           id="text238"><tspan
             x="0 9.0859308 13.907829 19.088381 23.91028"
             y="0"
             sodipodi:role="line"
             id="tspan236">NodoB</tspan></text>
      </g>
      <path
         d="M 970,2090 V 6.87109"
         style="fill:none;stroke:#000000;stroke-width:12;stroke-linecap:butt;stroke-linejoin:round;stroke-miterlimit:10;stroke-dasharray:40, 40;stroke-dashoffset:0;stroke-opacity:1"
         id="path240" />
      <g
         id="g242"
         transform="scale(10)">
        <text
           xml:space="preserve"
           transform="matrix(1,0,0,-1,109,173)"
           style="font-variant:normal;font-size:24.7871px;font-family:f-1;-inkscape-font-specification:f-1-0;writing-mode:lr-tb;fill:#000000;fill-opacity:1;fill-rule:nonzero;stroke:none"
           id="text248"><tspan
             x="0 12.740569 25.481138 38.221706 50.962276 63.702847 76.443413 89.183983 101.92455 114.66512 127.40569 140.14627 152.88683 165.6274 178.36797 191.10854 203.84911"
             y="0"
             sodipodi:role="line"
             id="tspan244">00:00:00:00:00:02</tspan><tspan
             x="268"
             y="51.1371"
             id="tspan246">2</tspan></text>
        <text
           xml:space="preserve"
           transform="matrix(1,0,0,-1,17,125.00196)"
           style="font-variant:normal;font-size:14.3462px;font-family:f-3;-inkscape-font-specification:f-3-0;writing-mode:lr-tb;fill:#000000;fill-opacity:1;fill-rule:nonzero;stroke:none"
           id="text252"><tspan
             x="0 15.077727 25.607838"
             y="0"
             sodipodi:role="line"
             id="tspan250">MAC</tspan></text>
        <text
           xml:space="preserve"
           transform="matrix(1,0,0,-1,52.6691,122.85001)"
           style="font-variant:normal;font-size:9.9626px;font-family:f-4;-inkscape-font-specification:f-4-0;writing-mode:lr-tb;fill:#000000;fill-opacity:1;fill-rule:nonzero;stroke:none"
           id="text256"><tspan
             x="0 9.0859308 13.907829 19.088381 23.91028"
             y="0"
             sodipodi:role="line"
             id="tspan254">NodoF</tspan></text>
        <text
           xml:space="preserve"
           transform="matrix(1,0,0,-1,109,121.00001)"
           style="font-variant:normal;font-size:24.7871px;font-family:f-1;-inkscape-font-specification:f-1-0;writing-mode:lr-tb;fill:#000000;fill-opacity:1;fill-rule:nonzero;stroke:none"
           id="text262"><tspan
             x="0 12.740569 25.481138 38.221706 50.962276 63.702847 76.443413 89.183983 101.92455 114.66512 127.40569 140.14627 152.88683 165.6274 178.36797 191.10854 203.84911"
             y="0"
             sodipodi:role="line"
             id="tspan258">00:00:00:00:00:05</tspan><tspan
             x="268"
             y="47.1371"
             id="tspan260">3</tspan></text>
        <text
           xml:space="preserve"
           transform="matrix(1,0,0,-1,17,77.00197)"
           style="font-variant:normal;font-size:14.3462px;font-family:f-3;-inkscape-font-specification:f-3-0;writing-mode:lr-tb;fill:#000000;fill-opacity:1;fill-rule:nonzero;stroke:none"
           id="text266"><tspan
             x="0 15.077727 25.607838"
             y="0"
             sodipodi:role="line"
             id="tspan264">MAC</tspan></text>
        <text
           xml:space="preserve"
           transform="matrix(1,0,0,-1,52.6691,74.85002)"
           style="font-variant:normal;font-size:9.9626px;font-family:f-4;-inkscape-font-specification:f-4-0;writing-mode:lr-tb;fill:#000000;fill-opacity:1;fill-rule:nonzero;stroke:none"
           id="text270"><tspan
             x="0 9.0859308 13.907829 19.088381 23.91028"
             y="0"
             sodipodi:role="line"
             id="tspan268">NodoE</tspan></text>
        <text
           xml:space="preserve"
           transform="matrix(1,0,0,-1,109,73.00002)"
           style="font-variant:normal;font-size:24.7871px;font-family:f-1;-inkscape-font-specification:f-1-0;writing-mode:lr-tb;fill:#000000;fill-opacity:1;fill-rule:nonzero;stroke:none"
           id="text274"><tspan
             x="0 12.740569 25.481138 38.221706 50.962276 63.702847 76.443413 89.183983 101.92455 114.66512 127.40569 140.14627 152.88683 165.6274 178.36797 191.10854 203.84911"
             y="0"
             sodipodi:role="line"
             id="tspan272">00:00:00:00:00:06</tspan></text>
      </g>
    </g>
  </g>
</svg>
